<?xml version="1.0" standalone="no"?>
<!DOCTYPE svg PUBLIC "-//W3C//DTD SVG 1.1//EN" "http://www.w3.org/Graphics/SVG/1.1/DTD/svg11.dtd" >
<svg>
<metadata>
Created by FontForge 20090914 at Thu Dec 15 06:58:27 2016
 By www-data
Haley Fiege kingdomofawesome.com
</metadata>
<defs>
<font id="Sniglet" horiz-adv-x="746" >
  <font-face 
    font-family="Sniglet"
    font-weight="400"
    font-stretch="normal"
    units-per-em="1000"
    panose-1="0 0 0 0 0 0 0 0 0 0"
    ascent="750"
    descent="-250"
    x-height="513.5"
    cap-height="705"
    bbox="9.00195 -289.455 1114 955.223"
    underline-thickness="50"
    underline-position="-50"
    unicode-range="U+0020-U+2212"
  />
<missing-glyph horiz-adv-x="428" 
 />
    <glyph glyph-name=".notdef" horiz-adv-x="428" 
 />
    <glyph glyph-name="space" unicode=" " horiz-adv-x="428" 
 />
    <glyph glyph-name="space" unicode="&#xa0;" horiz-adv-x="428" 
 />
    <glyph glyph-name="exclam" unicode="!" horiz-adv-x="446" 
d="M62 408c-4.66699 17.333 -7.49805 36.5 -8.49805 57.5s-1.16699 41.167 -0.5 60.5c0.666992 22 2 44.667 4 68c4 30 12.333 56.667 25 80c5.33301 10 12.166 19.833 20.499 29.5s18.166 18.167 29.499 25.5s24.666 13.333 39.999 18s32.666 7 51.999 7
c23.333 -2 45.666 -8.33301 66.999 -19c18 -9.33301 35.667 -23.166 53 -41.499s30.333 -44.5 39 -78.5c7.33301 -32.667 11.666 -63.5 12.999 -92.5s1 -54.833 -1 -77.5c-2.66699 -26.667 -6.66699 -51.334 -12 -74.001c-8 -23.333 -19 -44 -33 -62
c-12 -15.333 -28.167 -29.333 -48.5 -42s-46.166 -19 -77.499 -19c-35.333 0 -63.666 8.33301 -84.999 25s-37.666 35 -48.999 55c-13.333 23.333 -22.666 50 -27.999 80zM353.002 77c0 -15.333 -3.33301 -29.5 -10 -42.5s-16 -24.333 -28 -34
s-25.833 -17.334 -41.5 -23.001s-32.5 -8.5 -50.5 -8.5s-34.833 2.83301 -50.5 8.5s-29.334 13.334 -41.001 23.001s-20.834 21 -27.501 34s-10 27.167 -10 42.5c0 14.667 3.33301 28.667 10 42s15.834 24.833 27.501 34.5s25.334 17.334 41.001 23.001s32.5 8.5 50.5 8.5
s34.833 -2.83301 50.5 -8.5s29.5 -13.334 41.5 -23.001s21.333 -21.167 28 -34.5s10 -27.333 10 -42z" />
    <glyph glyph-name="quotedbl" unicode="&#x22;" horiz-adv-x="448" 
d="M201 678c0.666992 -11.333 0.5 -24.3291 -0.5 -38.9961s-3 -29.167 -6 -43.5s-6.33301 -27.833 -10 -40.5s-7.5 -23 -11.5 -31c-4 -8.66699 -9.33301 -16.334 -16 -23.001c-5.33301 -6 -12.166 -11.333 -20.499 -16s-18.166 -6.66699 -29.499 -6
c-12 0.666992 -21.833 4.16699 -29.5 10.5s-13.5 13.166 -17.5 20.499c-5.33301 8.66699 -9 18.334 -11 29.001c-5.33301 20 -9.33301 40.333 -12 61c-2.66699 17.333 -3.83398 36.166 -3.50098 56.499s3.16602 39.5 8.49902 57.5c4.66699 16 11.167 28 19.5 36
s17.333 13.5 27 16.5s19.334 4.16699 29.001 3.5s18.167 -2.33398 25.5 -5.00098c6 -2.66699 12.167 -5.83398 18.5 -9.50098s12.166 -8.5 17.499 -14.5s10 -14 14 -24s6.66699 -23 8 -39zM404 678.004c0.666992 -11.333 0.5 -24.3291 -0.5 -38.9961s-3 -29.167 -6 -43.5
s-6.33301 -27.833 -10 -40.5s-7.5 -23 -11.5 -31c-4 -8.66699 -9.33301 -16.334 -16 -23.001c-5.33301 -6 -12.166 -11.333 -20.499 -16s-18.166 -6.66699 -29.499 -6c-12 0.666992 -21.833 4.16699 -29.5 10.5s-13.5 13.166 -17.5 20.499
c-5.33301 8.66699 -9 18.334 -11 29.001c-5.33301 20 -9.33301 40.333 -12 61c-2.66699 17.333 -3.83398 36.166 -3.50098 56.499s3.16602 39.5 8.49902 57.5c4.66699 16 11.167 28 19.5 36s17.333 13.5 27 16.5s19.334 4.16699 29.001 3.5s18.167 -2.33398 25.5 -5.00098
c6 -2.66699 12.167 -5.83398 18.5 -9.50098s12.166 -8.5 17.499 -14.5s10 -14 14 -24s6.66699 -23 8 -39z" />
    <glyph glyph-name="numbersign" unicode="#" horiz-adv-x="759" 
d="M656 384c-9.33301 -1.33301 -18.6641 -2.16211 -27.9971 -2.49512s-18.666 -0.833008 -27.999 -1.5c-1.33301 -8.66699 -2.83301 -17.167 -4.5 -25.5s-3.5 -16.5 -5.5 -24.5c2.66699 -0.666992 5 -1.16699 7 -1.5s4 -0.5 6 -0.5c19.333 -3.33301 34 -9 44 -17
s17 -16.333 21 -25c4.66699 -10 7 -21 7 -33c1.33301 -12.667 0 -24.667 -4 -36c-3.33301 -9.33301 -9.83301 -18.333 -19.5 -27s-24.167 -13.667 -43.5 -15l-26 -2l-26 -2l-7 -26.5l-5 -19.5l-5 -17c-4.66699 -18 -11.5 -31.5 -20.5 -40.5s-18.167 -15.167 -27.5 -18.5
c-11.333 -4 -23 -5.66699 -35 -5c-12 2 -22.667 6.33301 -32 13c-8 5.33301 -15.333 13.333 -22 24s-10 24.667 -10 42c-1.33301 13.333 -1.33301 28 0 44h-41.5c-13.667 0 -27.167 0.333008 -40.5 1c-2.66699 -9.33301 -4.83398 -17.666 -6.50098 -24.999
s-3.16699 -13.666 -4.5 -18.999c-2 -6 -3.33301 -11.333 -4 -16c-4.66699 -18 -11.5 -31.5 -20.5 -40.5s-18.167 -15.167 -27.5 -18.5c-11.333 -4 -23 -5.66699 -35 -5c-12 2 -22.667 6.33301 -32 13c-8 5.33301 -15.333 13.333 -22 24s-10.334 24.667 -11.001 42v24.5
c0 9 0.333008 18.167 1 27.5c-5.33301 0.666992 -9.83301 1 -13.5 1s-6.83398 0.333008 -9.50098 1c-2.66699 0 -5.33398 0.333008 -8.00098 1c-18.667 1.33301 -33 5.66602 -43 12.999s-17.667 15.333 -23 24c-6 10 -10 21 -12 33c0 12 2.33301 23.333 7 34
c4 9.33301 10.667 18.166 20 26.499s22.666 14.166 39.999 17.499c16.667 4 37.334 7 62.001 9c2 16.667 5 33.667 9 51h-10c-1.33301 0 -2.33301 0.333008 -3 1c-18.667 1.33301 -33 5.66602 -43 12.999s-17.667 15.333 -23 24c-6 10 -9.66699 21 -11 33
c0 12 2.33301 23.333 7 34c4 9.33301 10.5 18.166 19.5 26.499s22.167 14.166 39.5 17.499c16.667 2.66699 36.667 5.66699 60 9c6 24 13 47 21 69c6 18.667 13.833 32.167 23.5 40.5s19.167 13.833 28.5 16.5c10.667 2.66699 22 3 34 1c13.333 -0.666992 25 -4 35 -10
c8.66699 -5.33301 16.167 -13.5 22.5 -24.5s8.83301 -26.167 7.5 -45.5l-2 -19.5l-2 -18.5c13.333 0 26.333 -0.166992 39 -0.5s25.667 -0.5 39 -0.5l9.5 31.5c3 10.333 6.16699 20.166 9.5 29.499c6 18.667 13.833 32.167 23.5 40.5s19.167 13.833 28.5 16.5
c10.667 2.66699 22 3 34 1c13.333 -0.666992 25 -4 35 -10c8.66699 -5.33301 16.167 -13.5 22.5 -24.5s8.83301 -26.167 7.5 -45.5l-2 -25.5c-0.666992 -8.33301 -1.66699 -16.833 -3 -25.5l27 -3c19.333 -3.33301 34 -9 44 -17s17 -16.333 21 -25c4.66699 -10 7 -21 7 -33
c1.33301 -12.667 0 -24.667 -4 -36c-3.33301 -9.33301 -9.83301 -18.333 -19.5 -27s-24.167 -13.667 -43.5 -15zM349.002 344.004c10.667 0 21.332 -0.165039 31.999 -0.498047s21.334 -0.5 32.001 -0.5c1.33301 5.33301 2.33301 10.666 3 15.999s1.66699 10.666 3 15.999
c-11.333 0.666992 -22.333 1 -33 1s-21 0.333008 -31 1c-2 -12 -4 -23 -6 -33z" />
    <glyph glyph-name="dollar" unicode="$" horiz-adv-x="584" 
d="M371 421c43.333 -10.667 75.998 -25.1699 97.998 -43.5029s37.667 -36.166 47 -53.499c11.333 -21.333 16.666 -43.333 15.999 -66c0 -34 -6.33301 -62.333 -19 -85s-28 -40.834 -46 -54.501s-37 -23.834 -57 -30.501s-37.333 -11.334 -52 -14.001
c-1.33301 -8.66699 -2.16602 -16 -2.49902 -22s-0.833008 -11.333 -1.5 -16c-0.666992 -5.33301 -1 -9.66602 -1 -12.999c-2.66699 -19.333 -7.66699 -33.833 -15 -43.5s-15 -16.5 -23 -20.5c-9.33301 -4.66699 -19.333 -7 -30 -7c-12 -1.33301 -23 0.333984 -33 5.00098
c-8.66699 4 -16.667 10.833 -24 20.5s-11.333 24.834 -12 45.501c-0.666992 9.33301 -1 18.5 -1 27.5s-0.333008 18.167 -1 27.5c-48 7.33301 -84.167 18.833 -108.5 34.5s-41.5 31.167 -51.5 46.5c-12 18 -17.333 37.333 -16 58c0 15.333 2.33301 28.333 7 39
s11 19.834 19 27.501s17.167 13.667 27.5 18s20.833 7.5 31.5 9.5c25.333 5.33301 54 6.33301 86 3c-38.667 10 -67.834 24.333 -87.501 43s-33.5 37.334 -41.5 56.001c-9.33301 22 -13.666 45 -12.999 69c1.33301 24.667 6.83301 46 16.5 64s21.834 33 36.501 45
s30.834 21.5 48.501 28.5s34.834 12.5 51.501 16.5c1.33301 12.667 2.16602 24.167 2.49902 34.5s0.833008 19.833 1.5 28.5c2 23.333 6.83301 41.333 14.5 54s15.834 21.667 24.501 27c10 6.66699 20.667 10 32 10c12.667 -0.666992 24 -4.66699 34 -12
c8.66699 -6 16.667 -15.167 24 -27.5s11.666 -30.166 12.999 -53.499c0.666992 -9.33301 1.16699 -18.5 1.5 -27.5s0.5 -18.167 0.5 -27.5c33.333 -4 60.5 -10.167 81.5 -18.5s37.333 -17.833 49 -28.5s19.5 -22 23.5 -34s6 -23.333 6 -34c0 -20 -5.33301 -36.333 -16 -49
s-23.834 -22.5 -39.501 -29.5s-32.667 -11.833 -51 -14.5s-35.166 -4.33398 -50.499 -5.00098v-8v0z" />
    <glyph glyph-name="percent" unicode="%" horiz-adv-x="743" 
d="M273 55c-10 -14 -20.3301 -23.501 -30.9971 -28.501s-20.334 -7.5 -29.001 -7.5c-10 0 -19.667 2.33301 -29 7s-17 11 -23 19c-5.33301 7.33301 -9.33301 16.833 -12 28.5s-1.33398 26.167 3.99902 43.5c6 20 15.667 44.667 29 74s28.666 60.833 45.999 94.5l55 104
l56.5 101.5l51 87.5c15.667 26.333 28.5 46.833 38.5 61.5c11.333 17.333 23.166 29 35.499 35s23.833 9 34.5 9c12 0 24 -3 36 -9c10 -3.33301 18 -9 24 -17c5.33301 -7.33301 9 -17.166 11 -29.499s-0.666992 -28.5 -8 -48.5c-21.333 -58 -48.166 -117.5 -80.499 -178.5
s-64.166 -117.5 -95.499 -169.5c-36.667 -60.667 -74.334 -119.667 -113.001 -177zM307.003 513.999c-4 -22.667 -11.334 -41.3301 -22.001 -55.9971s-23.5 -26.167 -38.5 -34.5s-31.333 -13.333 -49 -15s-35.5 -0.833984 -53.5 2.49902
c-36.667 7.33301 -65.167 24.166 -85.5 50.499s-27.166 58.166 -20.499 95.499c3.33301 18 9.33301 35 18 51s19.834 29.5 33.501 40.5s29.667 18.667 48 23s39.166 4.5 62.499 0.5c22 -4 40.667 -11.167 56 -21.5s27.333 -22.5 36 -36.5s14.167 -29.667 16.5 -47
s1.83301 -35 -1.5 -53zM666.002 119.003c-4 -22.667 -11.3311 -41.5 -21.998 -56.5s-23.5 -26.5 -38.5 -34.5s-31.333 -13 -49 -15s-35.5 -1.33301 -53.5 2c-18.667 3.33301 -35.167 9.5 -49.5 18.5s-26.333 19.833 -36 32.5s-16.334 27.167 -20.001 43.5
s-3.83398 33.5 -0.500977 51.5s9.33301 35 18 51s19.834 29.5 33.501 40.5s29.667 18.833 48 23.5s39.166 5 62.499 1c22 -4 40.667 -11.167 56 -21.5s27.333 -22.5 36 -36.5s14.167 -29.667 16.5 -47s1.83301 -35 -1.5 -53z" />
    <glyph glyph-name="ampersand" unicode="&#x26;" horiz-adv-x="798" 
d="M175 467c-13.333 28 -22.334 55.665 -27.001 82.998c-4 23.333 -4 48.5 0 75.5s17.333 51.833 40 74.5c20 20 42.333 34.833 67 44.5s49.5 14.667 74.5 15s49.333 -4 73 -13s44.167 -22.5 61.5 -40.5c18.667 -20.667 31.667 -43.667 39 -69
c6.66699 -21.333 8.33398 -46.5 5.00098 -75.5s-18 -60.5 -44 -94.5c13.333 -13.333 26 -27.666 38 -42.999c10.667 -13.333 22 -28.833 34 -46.5s22.667 -36.5 32 -56.5c20.667 19.333 41.667 34 63 44c18 8.66699 37.167 12.834 57.5 12.501
s39.166 -11.166 56.499 -32.499c8 -11.333 13.333 -22.5 16 -33.5s3 -21.833 1 -32.5s-5.5 -21.167 -10.5 -31.5s-10.833 -19.833 -17.5 -28.5c-16 -21.333 -36.667 -41.666 -62 -60.999c24 -24 41.667 -48.667 53 -74c4.66699 -10.667 8.16699 -22 10.5 -34
s2.5 -24 0.5 -36s-6.83301 -24.167 -14.5 -36.5s-18.834 -23.833 -33.501 -34.5c-13.333 -10 -26.333 -16.5 -39 -19.5s-25 -3.83301 -37 -2.5s-23.333 4.33301 -34 9s-20.667 10.334 -30 17.001c-22 15.333 -42 35.666 -60 60.999c-30.667 -21.333 -63.667 -37.333 -99 -48
c-15.333 -4.66699 -31.666 -8.33398 -48.999 -11.001s-35.833 -3.5 -55.5 -2.5s-40 4.5 -61 10.5s-42.5 15 -64.5 27c-28.667 16.667 -52.667 38.334 -72 65.001c-8 11.333 -15.667 24.166 -23 38.499s-13.166 30.5 -17.499 48.5s-6.83301 37.667 -7.5 59
s1.66602 44.666 6.99902 69.999c4 22 11.333 44.333 22 67c9.33301 19.333 22.333 41 39 65s39.334 47.333 68.001 70zM307.999 257.998c-15.333 -7.33301 -25.499 -15 -30.499 -23s-7.16699 -15.333 -6.5 -22c0.666992 -7.33301 3.66699 -15 9 -23
c7.33301 -10 15.166 -15.167 23.499 -15.5s15.833 1.5 22.5 5.5c7.33301 4 15 10.667 23 20z" />
    <glyph glyph-name="quotesingle" unicode="'" horiz-adv-x="224" 
d="M198 678c0.666992 -11.333 0.5 -24.3291 -0.5 -38.9961s-3 -29.167 -6 -43.5s-6.33301 -27.833 -10 -40.5s-7.5 -23 -11.5 -31c-4 -8.66699 -9.33301 -16.334 -16 -23.001c-5.33301 -6 -12.166 -11.333 -20.499 -16s-18.166 -6.66699 -29.499 -6
c-12 0.666992 -21.833 4.16699 -29.5 10.5s-13.5 13.166 -17.5 20.499c-5.33301 8.66699 -9 18.334 -11 29.001c-5.33301 20 -9.33301 40.333 -12 61c-2.66699 17.333 -3.83398 36.166 -3.50098 56.499s3.16602 39.5 8.49902 57.5c4.66699 16 11.167 28 19.5 36
s17.333 13.5 27 16.5s19.334 4.16699 29.001 3.5s18.167 -2.33398 25.5 -5.00098c6 -2.66699 12.167 -5.83398 18.5 -9.50098s12.166 -8.5 17.499 -14.5s10 -14 14 -24s6.66699 -23 8 -39z" />
    <glyph glyph-name="parenleft" unicode="(" horiz-adv-x="444" 
d="M146 746c8.66699 14.667 19.1631 27.499 31.4961 38.499s25.833 19.5 40.5 25.5s30.834 8.66699 48.501 8s36.5 -5.33398 56.5 -14.001c24 -11.333 40.5 -25 49.5 -41s14.167 -31.667 15.5 -47c1.33301 -18 -1 -36.667 -7 -56c-14.667 -41.333 -25.667 -81.333 -33 -120
s-12 -75.667 -14 -111s-2 -68.666 0 -99.999s5.33301 -60.333 10 -87c10.667 -62 27.334 -119 50.001 -171c7.33301 -17.333 10 -34.666 8 -51.999c-1.33301 -14.667 -7.16602 -29.667 -17.499 -45s-28.833 -28.333 -55.5 -39c-26 -10.667 -50.667 -13 -74 -7
s-44.5 16.333 -63.5 31s-35.5 31.834 -49.5 51.501s-25 37.5 -33 53.5c-22 45.333 -38.167 89.833 -48.5 133.5s-16.666 85.834 -18.999 126.501s-1.5 79.167 2.5 115.5s10 70.166 18 101.499c18 73.333 46 141.666 84 204.999z" />
    <glyph glyph-name="parenright" unicode=")" horiz-adv-x="447" 
d="M300 -3c-9.33301 -14.667 -19.9961 -27.4971 -31.9961 -38.4971s-25.333 -19.5 -40 -25.5s-30.834 -8.66699 -48.501 -8s-36.5 5.33398 -56.5 14.001c-24.667 10.667 -41.334 24.167 -50.001 40.5s-13.667 32.166 -15 47.499c-1.33301 18 1 36.667 7 56
c14.667 41.333 25.667 81.333 33 120s12 75.667 14 111s2 68.666 0 99.999s-5.33301 60.333 -10 87c-10.667 62 -27.334 119 -50.001 171c-7.33301 17.333 -10 34.666 -8 51.999c1.33301 14.667 7 29.5 17 44.5s28.667 28.167 56 39.5c26 10.667 50.667 13 74 7
s44.5 -16.333 63.5 -31s35.5 -31.834 49.5 -51.501s25 -37.5 33 -53.5c22 -45.333 38.167 -90 48.5 -134s16.666 -86.167 18.999 -126.5s1.5 -78.833 -2.5 -115.5s-10 -70.667 -18 -102c-18 -73.333 -46 -141.333 -84 -204z" />
    <glyph glyph-name="asterisk" unicode="*" horiz-adv-x="625" 
d="M244 590c-4 22 -4.00098 41.6641 -0.000976562 58.9971c2 7.33301 4.66699 14.666 8 21.999s8.33301 13.833 15 19.5s14.667 10.167 24 13.5s21 5 35 5c22 -1.33301 40.333 -7 55 -17c12.667 -8.66699 22.334 -22 29.001 -40s4.66699 -43.333 -6 -76
c26 7.33301 49.667 9.66602 71 6.99902c8.66699 -1.33301 17.334 -3.5 26.001 -6.5s16.5 -7.83301 23.5 -14.5s12.5 -15.167 16.5 -25.5s6 -23.166 6 -38.499s-1.83301 -28.333 -5.5 -39s-8.33398 -19.5 -14.001 -26.5s-12.167 -12.333 -19.5 -16s-14.666 -6.5 -21.999 -8.5
c-18 -4 -38.333 -3.66699 -61 1c13.333 -17.333 22.666 -34.666 27.999 -51.999c4.66699 -14.667 5 -30.167 1 -46.5s-17 -31.166 -39 -44.499c-23.333 -13.333 -43.333 -17.166 -60 -11.499s-30.667 14.5 -42 26.5c-12.667 14 -23.334 32.333 -32.001 55
c-10.667 -18.667 -23.334 -32.667 -38.001 -42c-12.667 -8 -27.834 -12.167 -45.501 -12.5s-37.5 9.16699 -59.5 28.5c-11.333 13.333 -18.666 27.333 -21.999 42c-3.33301 12.667 -2.5 26.834 2.5 42.501s18.833 31.834 41.5 48.501c-24.667 9.33301 -44.667 20.333 -60 33
c-6.66699 5.33301 -12.667 11.5 -18 18.5s-9.16602 14.667 -11.499 23s-2.83301 17.333 -1.5 27s5.66602 20.167 12.999 31.5c14.667 23.333 31.334 37.166 50.001 41.499s36.334 4.5 53.001 0.5c19.333 -4.66699 39 -14 59 -28z" />
    <glyph glyph-name="plus" unicode="+" horiz-adv-x="618" 
d="M576 358c0.666992 -17.333 -2.00488 -33.6699 -8.00488 -49.0029c-5.33301 -13.333 -13.833 -26.333 -25.5 -39s-29.167 -21.667 -52.5 -27l-28 -6c-9.33301 -2 -18.666 -3.66699 -27.999 -5c-2 -21.333 -4 -37.333 -6 -48
c-1.33301 -6.66699 -2.33301 -12.334 -3 -17.001c-3.33301 -23.333 -11.333 -41 -24 -53s-25.667 -20.667 -39 -26c-16 -6 -33.333 -8.66699 -52 -8c-14 0.666992 -27.333 3.33398 -40 8.00098c-11.333 4 -22.5 10.333 -33.5 19s-20.167 21.334 -27.5 38.001
c-4.66699 10 -8.5 21.333 -11.5 34s-5.83301 26.667 -8.5 42c-9.33301 0.666992 -17.666 1.33398 -24.999 2.00098s-13.666 1.66699 -18.999 3l-15 3c-23.333 3.33301 -40.833 11.333 -52.5 24s-20.167 25.667 -25.5 39c-6 16 -8.66699 33.333 -8 52
c0.666992 14 3.33398 27.333 8.00098 40c4 11.333 10.333 22.5 19 33.5s21.334 20.167 38.001 27.5c9.33301 4.66699 20.5 8.5 33.5 11.5s26.833 5.83301 41.5 8.5c1.33301 11.333 2.83301 22.166 4.5 32.499s3.83398 20.166 6.50098 29.499
c5.33301 21.333 13.5 37.833 24.5 49.5s22.167 20.167 33.5 25.5c13.333 6.66699 27.666 10.334 42.999 11.001c17.333 0.666992 33.666 -2 48.999 -8c13.333 -5.33301 26.333 -13.833 39 -25.5s21.667 -29.167 27 -52.5l6 -28c2 -9.33301 3.66699 -18.666 5 -27.999
c26.667 -3.33301 49.334 -7.33301 68.001 -12c21.333 -5.33301 38 -13.5 50 -24.5s20.667 -22.167 26 -33.5c6.66699 -13.333 10 -27.666 10 -42.999z" />
    <glyph glyph-name="comma" unicode="," horiz-adv-x="326" 
d="M272 117c1.33301 -31.333 0.333008 -58.502 -3 -81.502s-8.5 -42.5 -15.5 -58.5s-15 -29.167 -24 -39.5s-18.5 -18.5 -28.5 -24.5c-22.667 -14 -49.334 -19.333 -80.001 -16c-9.33301 1.33301 -15.666 4 -18.999 8s-5.66602 8.33301 -6.99902 13
c-1.33301 5.33301 -1 11 1 17c2.66699 8.66699 7.66699 14.334 15 17.001c2.66699 1.33301 6 2 10 2c9.33301 0 14.5 3.5 15.5 10.5s1.16699 13.833 0.5 20.5c-38 2.66699 -66.833 15.834 -86.5 39.501s-29.5 52.5 -29.5 86.5c0 34.667 10.667 64.167 32 88.5
s52.333 36.5 93 36.5c40 0 70.667 -11.5 92 -34.5s32.666 -51.167 33.999 -84.5z" />
    <glyph glyph-name="hyphen" unicode="-" horiz-adv-x="526" 
d="M395 404c22.667 -6 40.3311 -14.666 52.998 -25.999s21.667 -22.666 27 -33.999c6.66699 -13.333 10.334 -27.333 11.001 -42c1.33301 -16.667 0 -32 -4 -46c-3.33301 -12.667 -10.166 -25 -20.499 -37s-26.166 -21 -47.499 -27c-49.333 -13.333 -95.333 -20 -138 -20
s-87.667 3.66699 -135 11c-23.333 3.33301 -41.5 10.666 -54.5 21.999s-22.167 23 -27.5 35c-7.33301 14 -11 29.333 -11 46c-1.33301 17.333 1 33.666 7 48.999c5.33301 13.333 14.166 26.333 26.499 39s31.833 22 58.5 28c34 7.33301 66.333 11.5 97 12.5
s57.667 0.833008 81 -0.5c27.333 -2 53 -5.33301 77 -10z" />
    <glyph glyph-name="period" unicode="." horiz-adv-x="352" 
d="M301 116c0 -17.333 -2.66699 -33.666 -8 -48.999s-13.333 -28.666 -24 -39.999s-23.834 -20.333 -39.501 -27s-33.834 -10 -54.501 -10c-20 0 -37.833 3.33301 -53.5 10s-28.834 15.667 -39.501 27s-18.834 24.666 -24.501 39.999s-8.5 31.666 -8.5 48.999
s2.83301 33.666 8.5 48.999s13.834 28.666 24.501 39.999s23.834 20.333 39.501 27s33.5 10 53.5 10c20.667 0 38.834 -3.33301 54.501 -10s28.834 -15.667 39.501 -27s18.667 -24.666 24 -39.999s8 -31.666 8 -48.999z" />
    <glyph glyph-name="slash" unicode="/" horiz-adv-x="429" 
d="M187 16c-8.66699 -18 -18.501 -30.6641 -29.501 -37.9971s-21.167 -12 -30.5 -14c-12 -2.66699 -23.667 -2.33398 -35 0.999023s-21.333 8.66602 -30 15.999c-7.33301 6.66699 -13.833 16.167 -19.5 28.5s-7.16699 29.166 -4.5 50.499
c2.66699 24 8.33398 53.833 17.001 89.5s19 74.5 31 116.5s25.167 85 39.5 129l42.5 126l39 109c12 32.667 22 58.334 30 77.001c9.33301 22 20.5 37.5 33.5 46.5s25.167 14.833 36.5 17.5c13.333 2.66699 27.333 2 42 -2c12.667 -2 23 -6.66699 31 -14
c7.33301 -6.66699 13.166 -16.834 17.499 -30.501s4.83301 -32.5 1.5 -56.5c-5.33301 -34.667 -12.666 -70.5 -21.999 -107.5s-19.5 -74 -30.5 -111s-22.5 -73.5 -34.5 -109.5s-24 -70 -36 -102c-28 -76 -57.667 -150 -89 -222z" />
    <glyph glyph-name="zero" unicode="0" horiz-adv-x="592" 
d="M564 310c0 -48.667 -6.66895 -92 -20.002 -130s-31.833 -70 -55.5 -96s-51.5 -45.833 -83.5 -59.5s-66.667 -20.5 -104 -20.5s-72.166 6.83301 -104.499 20.5s-60.166 33.5 -83.499 59.5s-41.666 58 -54.999 96s-20 81.333 -20 130s3.33301 96.667 10 144
s19.5 89.666 38.5 126.999s45.667 67.5 80 90.5s79.166 34.5 134.499 34.5c60 0 107.5 -11.5 142.5 -34.5s61.333 -53.167 79 -90.5s29 -79.666 34 -126.999s7.5 -95.333 7.5 -144zM307.998 382c-12 0 -21.5 -3.66602 -28.5 -10.999s-10.5 -18.333 -10.5 -33
c0 -11.333 3.33301 -20.5 10 -27.5s16.334 -10.5 29.001 -10.5c14 0 23.5 3.83301 28.5 11.5s7.5 16.167 7.5 25.5c0 15.333 -3.33301 26.666 -10 33.999s-15.334 11 -26.001 11z" />
    <glyph glyph-name="one" unicode="1" horiz-adv-x="492" 
d="M206 454c-22.667 -16 -45.001 -27.667 -67.001 -35c-18.667 -6 -37.667 -7.5 -57 -4.5s-34.666 16.167 -45.999 39.5c-8 16 -12.667 31.167 -14 45.5s-0.166016 27.833 3.50098 40.5s9 24.5 16 35.5s14.833 21.167 23.5 30.5c20 22 45.667 41.333 77 58
c34 16.667 64.833 26 92.5 28s51.167 1 70.5 -3c22.667 -4.66699 43 -13 61 -25c16 -11.333 29.667 -27 41 -47s20.5 -42.5 27.5 -67.5s12.5 -51.667 16.5 -80s6.66699 -56.5 8 -84.5c3.33301 -65.333 1.66602 -135.666 -5.00098 -210.999
c-2 -23.333 -5.33301 -43.5 -10 -60.5s-10.5 -31.833 -17.5 -44.5s-14.667 -23.167 -23 -31.5s-16.833 -14.833 -25.5 -19.5c-20 -12 -42 -18 -66 -18c-26 0 -47.167 6.16699 -63.5 18.5s-29.166 26.166 -38.499 41.499c-10.667 17.333 -18.334 37.333 -23.001 60
c-8 40 -11.667 79.833 -11 119.5s3.33398 75.5 8.00098 107.5c5.33301 37.333 12.666 73 21.999 107z" />
    <glyph glyph-name="two" unicode="2" horiz-adv-x="582" 
d="M226 706c46.667 3.33301 85.333 0.337891 116 -8.99512s55 -20.666 73 -33.999c21.333 -15.333 37.333 -33.333 48 -54c12 -22 20 -43.833 24 -65.5s5.33301 -42.834 4 -63.501s-4.83301 -40.667 -10.5 -60s-12.167 -37.333 -19.5 -54
c-18 -39.333 -42.333 -76.666 -73 -111.999c30 -0.666992 57 -5.66699 81 -15c10 -4 19.833 -9.33301 29.5 -16s18.167 -14.834 25.5 -24.501s13.333 -21.167 18 -34.5s6.66699 -29 6 -47c-0.666992 -17.333 -5.16699 -32.333 -13.5 -45s-19.333 -23.334 -33 -32.001
s-29 -15.834 -46 -21.501s-34.167 -10.167 -51.5 -13.5c-41.333 -7.33301 -88 -10.333 -140 -9c-53.333 0 -94.666 6.16699 -123.999 18.5s-51.333 25.833 -66 40.5c-17.333 17.333 -27.666 37 -30.999 59c-3.33301 28 -1.5 52.167 5.5 72.5s17.167 38.5 30.5 54.5
s29.166 31.167 47.499 45.5l56.5 45.5c9.33301 8 18 16.667 26 26s14.5 19.166 19.5 29.499s7.5 20.666 7.5 30.999s-3.33301 20.166 -10 29.499c-8.66699 11.333 -18.667 18.833 -30 22.5s-22 4.83398 -32 3.50098c-12 -1.33301 -24.333 -4.33301 -37 -9
c-22.667 -4.66699 -40.334 -2.83398 -53.001 5.49902s-22.334 18.5 -29.001 30.5c-7.33301 13.333 -12.666 29.666 -15.999 48.999c-0.666992 16.667 1.66602 31.834 6.99902 45.501s12.5 25.667 21.5 36s19.333 19.5 31 27.5s23.834 14.667 36.501 20
c29.333 12.667 63 21.667 101 27z" />
    <glyph glyph-name="three" unicode="3" horiz-adv-x="618" 
d="M246 709c39.333 2 75.665 0.666016 108.998 -4.00098c28.667 -4 56.834 -11.333 84.501 -22s47.834 -27 60.501 -49c13.333 -24.667 19.166 -48.334 17.499 -71.001s-6.16699 -42.667 -13.5 -60c-8.66699 -20.667 -20.667 -40 -36 -58
c25.333 -12 45.833 -27.333 61.5 -46s27.5 -37 35.5 -55c9.33301 -21.333 15.666 -43 18.999 -65c4.66699 -47.333 1.33398 -87 -9.99902 -119s-25.333 -57.667 -42 -77c-19.333 -22.667 -42 -41 -68 -55c-50 -21.333 -97.667 -32.333 -143 -33s-85.333 3 -120 11
c-40.667 9.33301 -78 23.666 -112 42.999c-15.333 10 -27.333 20.167 -36 30.5s-15 20.5 -19 30.5s-6.16699 19.667 -6.5 29s0.5 18 2.5 26c4.66699 18.667 15 36.667 31 54c14 14 29.333 21.833 46 23.5s32 0.833984 46 -2.49902c16.667 -4 33.334 -11 50.001 -21
c15.333 -9.33301 29.166 -14.833 41.499 -16.5s22.833 -1.83398 31.5 -0.500977c10 2 18.667 5.66699 26 11c7.33301 6.66699 12.166 13.667 14.499 21s3.16602 14 2.49902 20c-0.666992 7.33301 -3 14 -7 20c-4.66699 7.33301 -10.667 12.833 -18 16.5
s-14.666 6.16699 -21.999 7.5c-8.66699 2 -17.667 2.66699 -27 2c-32 0 -55.667 5 -71 15s-26.333 21 -33 33c-7.33301 14 -11 30.333 -11 49s5.83301 34.334 17.5 47.001s24.834 22.667 39.501 30c16.667 8.66699 35.667 15.667 57 21
c-27.333 -3.33301 -51 -4.33301 -71 -3s-37.167 3.83301 -51.5 7.5s-26.166 8.33398 -35.499 14.001s-17 11.834 -23 18.501c-13.333 15.333 -19.666 33.666 -18.999 54.999c0 14.667 3 27.834 9 39.501s13.833 21.667 23.5 30s20.5 15.5 32.5 21.5s24.333 11 37 15
c29.333 8.66699 62.666 14 99.999 16z" />
    <glyph glyph-name="four" unicode="4" horiz-adv-x="649" 
d="M613 288c0 -20.667 -4.16602 -36.6689 -12.499 -48.002s-17.166 -19.666 -26.499 -24.999c-11.333 -6.66699 -24 -11 -38 -13c4.66699 -39.333 3.33398 -74.333 -3.99902 -105c-3.33301 -13.333 -8.16602 -26.166 -14.499 -38.499s-14.833 -23.333 -25.5 -33
s-23.834 -17.5 -39.501 -23.5s-34.5 -9 -56.5 -9c-20 0 -37.333 3 -52 9s-27 13.833 -37 23.5s-18 20.667 -24 33s-10.333 25.166 -13 38.499c-7.33301 30.667 -9 65.667 -5 105c-26.667 0 -50 1 -70 3s-37 4.33301 -51 7c-16.667 2.66699 -30.667 6.33398 -42 11.001
c-20 5.33301 -35.167 14 -45.5 26s-17.333 26 -21 42s-4.66699 33.167 -3 51.5s5.16699 36.833 10.5 55.5c12 43.333 31.667 90.666 59 141.999c15.333 26.667 31.333 49.5 48 68.5s33.5 34.667 50.5 47s33.667 22 50 29s32.166 12.167 47.499 15.5
c35.333 7.33301 70 7 104 -1c19.333 -5.33301 36.166 -14.166 50.499 -26.499s26.5 -26.5 36.5 -42.5s18.167 -33.5 24.5 -52.5s11.166 -37.833 14.499 -56.5c8 -44 10.667 -92.333 8 -145c19.333 -0.666992 34 -5.5 44 -14.5s17.667 -19.167 23 -30.5
c6 -12.667 9.33301 -27 10 -43zM250.001 431.998c-11.333 0 -21.165 -4.33301 -29.498 -13s-11.833 -18.334 -10.5 -29.001c1.33301 -14 5.5 -23.667 12.5 -29s16.167 -8 27.5 -8s20.666 3.33301 27.999 10s11 15.667 11 27c0 10.667 -3.33301 20.334 -10 29.001
s-16.334 13 -29.001 13z" />
    <glyph glyph-name="five" unicode="5" horiz-adv-x="591" 
d="M159 682c21.333 8.66699 44.6699 14.3291 70.0029 16.9961s48.666 3.66699 69.999 3c25.333 -0.666992 50 -3 74 -7c38 -6 66.667 -15.833 86 -29.5s33 -27.167 41 -40.5c9.33301 -16 13.666 -33 12.999 -51c0 -16 -3.16699 -29.833 -9.5 -41.5
s-14.333 -21.834 -24 -30.501s-20.834 -15.667 -33.501 -21s-25.334 -9.33301 -38.001 -12c-30.667 -7.33301 -65.334 -10.333 -104.001 -9c42 -2.66699 77 -9.16699 105 -19.5s50.667 -21.5 68 -33.5c20 -14 35.333 -29.667 46 -47
c21.333 -34.667 33.166 -68.167 35.499 -100.5s0.5 -61.166 -5.5 -86.499c-7.33301 -30 -18.666 -58 -33.999 -84c-11.333 -17.333 -24.5 -31.833 -39.5 -43.5s-31.167 -21 -48.5 -28s-35.166 -12.333 -53.499 -16s-36.5 -5.83398 -54.5 -6.50098
c-41.333 -2.66699 -85 0.333008 -131 9c-24.667 6.66699 -45.5 14.667 -62.5 24s-31.333 19.333 -43 30s-20.667 21.5 -27 32.5s-11.166 21.833 -14.499 32.5c-7.33301 24.667 -7.66602 50.334 -0.999023 77.001c8.66699 24 20 40 34 48s27.667 12 41 12
c16 0 32.667 -4 50 -12c22 -11.333 39.333 -17.166 52 -17.499s22.334 1.83398 29.001 6.50098c7.33301 5.33301 12 13.333 14 24c3.33301 12.667 1.66602 23.5 -5.00098 32.5s-15 16.5 -25 22.5c-12 7.33301 -26 13 -42 17c-21.333 7.33301 -40.5 15.333 -57.5 24
s-31.333 20.334 -43 35.001s-20.5 32.834 -26.5 54.501s-8.33301 49.167 -7 82.5c1.33301 30.667 7.16602 55.834 17.499 75.501s21.833 35.167 34.5 46.5c14.667 13.333 31 23.666 49 30.999z" />
    <glyph glyph-name="six" unicode="6" horiz-adv-x="614" 
d="M576 234c0 -30.667 -3.66016 -57.499 -10.9932 -80.499s-16.833 -43 -28.5 -60s-25 -31.333 -40 -43s-30.5 -21.167 -46.5 -28.5c-36.667 -17.333 -78.334 -26.666 -125.001 -27.999c-30.667 0 -58 3.5 -82 10.5s-45.5 16.167 -64.5 27.5s-35.333 24.333 -49 39
s-25.5 29.667 -35.5 45c-22.667 36 -38.334 76.667 -47.001 122c-4 32.667 -4.66699 63.667 -2 93s7.66699 56.833 15 82.5s16.5 49.5 27.5 71.5s22.5 42 34.5 60c28 41.333 61 78 99 110c28 24.667 54.167 39.5 78.5 44.5s46.166 5.83301 65.499 2.5
c22 -4 42.667 -13 62 -27c11.333 -8.66699 20.166 -17.667 26.499 -27s10.666 -18.5 12.999 -27.5s3.16602 -17.833 2.49902 -26.5s-2.33398 -17 -5.00098 -25c-6 -18 -16.667 -36 -32 -54l-28 -33c-7.33301 -8.66699 -13.333 -16 -18 -22
c-5.33301 -7.33301 -9.33301 -13 -12 -17c26 0 48.833 -3 68.5 -9s36.667 -14 51 -24s26.333 -21.333 36 -34s17.5 -25.334 23.5 -38.001c14 -30.667 21.667 -65.334 23 -104.001zM315.007 274.001c-11.333 0 -21.165 -4.33301 -29.498 -13s-11.833 -18.334 -10.5 -29.001
c1.33301 -14 5.5 -23.667 12.5 -29s16.167 -8 27.5 -8s20.666 3.33301 27.999 10s11 15.667 11 27c0 10.667 -3.33301 20.334 -10 29.001s-16.334 13 -29.001 13z" />
    <glyph glyph-name="seven" unicode="7" horiz-adv-x="600" 
d="M295 465c-47.333 -12 -89.332 -17.6689 -125.999 -17.002c-16 0 -31.667 1.5 -47 4.5s-29 8.16699 -41 15.5s-21.833 17.166 -29.5 29.499s-11.834 28.166 -12.501 47.499c-1.33301 25.333 1.83398 47.166 9.50098 65.499s18 33.833 31 46.5s28 23 45 31
s34.5 14.333 52.5 19c41.333 10.667 89.333 14.334 144 11.001c42 -2 76.5 -8.16699 103.5 -18.5s48.833 -21.5 65.5 -33.5c18.667 -14 33.334 -29.667 44.001 -47c11.333 -17.333 18.833 -37.666 22.5 -60.999s4.5 -48.5 2.5 -75.5s-6.33301 -54.667 -13 -83
s-14.334 -56.166 -23.001 -83.499c-20.667 -64 -47.667 -131 -81 -201c-8 -19.333 -16.667 -35.833 -26 -49.5s-19.333 -25 -30 -34s-21.334 -16.167 -32.001 -21.5s-21 -9 -31 -11c-23.333 -5.33301 -47.666 -4.66602 -72.999 2.00098c-25.333 8 -43.833 19.167 -55.5 33.5
s-19.834 28.5 -24.501 42.5c-5.33301 16.667 -7 34 -5 52c2.66699 38 11 76.833 25 116.5s28.667 75.834 44 108.501c18 38 38.333 75 61 111z" />
    <glyph glyph-name="eight" unicode="8" horiz-adv-x="625" 
d="M587 214c0 -38 -6.83594 -71.502 -20.5029 -100.502s-32.667 -53.167 -57 -72.5s-53.166 -34 -86.499 -44s-70 -15 -110 -15s-76.667 5 -110 15s-62 24.667 -86 44s-42.833 43.5 -56.5 72.5s-20.5 62.5 -20.5 100.5c0 43.333 7.83301 81 23.5 113s40.5 57.667 74.5 77
c-18.667 16.667 -32.167 35.5 -40.5 56.5s-12.166 43.5 -11.499 67.5c0 28.667 5.66699 54.334 17 77.001s26.833 41.834 46.5 57.501s43 27.5 70 35.5s56.5 12 88.5 12c31.333 0 60.333 -4 87 -12s49.834 -19.667 69.501 -35s35 -34.333 46 -57s16.5 -48.667 16.5 -78
c0 -55.333 -15 -97 -45 -125c36 -21.333 62.5 -48.333 79.5 -81s25.5 -68.667 25.5 -108zM315.997 272.998c-11.333 0 -21.165 -4.33301 -29.498 -13s-11.833 -18.334 -10.5 -29.001c1.33301 -14 5.5 -23.667 12.5 -29s16.167 -8 27.5 -8s20.666 3.33301 27.999 10
s11 15.667 11 27c0 10.667 -3.33301 20.334 -10 29.001s-16.334 13 -29.001 13zM315.998 536.998c-11.333 0 -21.165 -4.33301 -29.498 -13s-11.833 -18.334 -10.5 -29.001c1.33301 -14 5.5 -23.667 12.5 -29s16.167 -8 27.5 -8s20.666 3.33301 27.999 10s11 15.667 11 27
c0 10.667 -3.33301 20.334 -10 29.001s-16.334 13 -29.001 13z" />
    <glyph glyph-name="nine" unicode="9" horiz-adv-x="609" 
d="M35 468c0 30.667 3.83105 57.502 11.498 80.502s17.834 43 30.501 60s27 31.333 43 43s32.333 21.167 49 28.5c39.333 17.333 84 27 134 29c30.667 0 57.834 -3.5 81.501 -10.5s44.667 -16.167 63 -27.5s34.166 -24.333 47.499 -39s24.666 -29.334 33.999 -44.001
c22 -35.333 36.333 -75.333 43 -120c4 -32.667 4.5 -63.834 1.5 -93.501s-8.5 -57.5 -16.5 -83.5s-17.667 -50 -29 -72s-23 -42 -35 -60c-29.333 -42.667 -63.666 -80 -102.999 -112c-30 -26 -57.5 -42 -82.5 -48s-46.833 -7.33301 -65.5 -4c-22 4 -42 13 -60 27
c-11.333 8.66699 -20 17.667 -26 27s-10 18.833 -12 28.5s-2.66699 19.167 -2 28.5s2.33398 18 5.00098 26c6 19.333 16.667 38 32 56l27 32.5l18 22.5c5.33301 7.33301 9.33301 13 12 17c-26 0 -48.833 3 -68.5 9s-36.667 13.833 -51 23.5s-26.333 20.667 -36 33
s-17.5 25.166 -23.5 38.499c-14 30.667 -21.333 65.334 -22 104.001zM310.998 472.002c-11.333 0 -21.165 -4.33301 -29.498 -13s-11.833 -18.334 -10.5 -29.001c1.33301 -14 5.5 -23.667 12.5 -29s16.167 -8 27.5 -8s20.666 3.33301 27.999 10s11 15.667 11 27
c0 10.667 -3.33301 20.334 -10 29.001s-16.334 13 -29.001 13z" />
    <glyph glyph-name="colon" unicode=":" horiz-adv-x="339" 
d="M278 408c0 -32 -9.49902 -58.667 -28.499 -80s-47.5 -32 -85.5 -32c-36 0 -63.667 10.667 -83 32s-29 48 -29 80c0 31.333 9.66699 58 29 80s47 33 83 33c18.667 0 35.167 -3 49.5 -9s26.166 -14.167 35.499 -24.5s16.5 -22.333 21.5 -36s7.5 -28.167 7.5 -43.5z
M278.001 94c0 -32 -9.5 -58.668 -28.5 -80.001s-47.5 -32 -85.5 -32c-36 0 -63.667 10.667 -83 32s-29 48 -29 80c0 16 2.5 30.833 7.5 44.5s12.333 25.667 22 36s21.334 18.5 35.001 24.5s29.5 9 47.5 9c37.333 0 65.666 -11.167 84.999 -33.5s29 -49.166 29 -80.499z" />
    <glyph glyph-name="semicolon" unicode=";" horiz-adv-x="337" 
d="M273 399c0 -32 -9.33301 -58.5 -28 -79.5s-46.334 -31.5 -83.001 -31.5c-35.333 0 -62.5 10.5 -81.5 31.5s-28.5 47.5 -28.5 79.5c0 30 9.5 56 28.5 78s46.167 33 81.5 33c36.667 0 64.334 -11 83.001 -33s28 -48 28 -78zM269 97
c-1.33301 28.667 -11.1699 53.168 -29.5029 73.501s-44.833 30.5 -79.5 30.5c-36 0 -63.333 -10.5 -82 -31.5s-28 -46.833 -28 -77.5c0 -30 8.5 -55.167 25.5 -75.5s42.167 -31.833 75.5 -34.5c0.666992 -6 0.666992 -12.167 0 -18.5s-5 -9.5 -13 -9.5
c-3.33301 0 -6.33301 -0.666992 -9 -2s-5.16699 -3 -7.5 -5s-4.16602 -5 -5.49902 -9c-1.33301 -6 -1.66602 -11 -0.999023 -15s2.5 -7.5 5.5 -10.5s8.83301 -5.16699 17.5 -6.5c26.667 -3.33301 50 1 70 13c8.66699 4.66699 16.834 11.5 24.501 20.5s14.5 20.5 20.5 34.5
s10.5 31.167 13.5 51.5s3.83301 44.166 2.5 71.499z" />
    <glyph glyph-name="less" unicode="&#x3c;" horiz-adv-x="474" 
d="M243 106c-0.666992 0.666992 -6.33496 4.49902 -17.002 11.499s-23.667 16.5 -39 28.5s-32 26 -50 42s-34.667 33.5 -50 52.5s-28 38.833 -38 59.5s-15 42 -15 64c0 20.667 5 41.5 15 62.5s22.667 41.167 38 60.5s32 37.333 50 54s34.667 31.167 50 43.5s28.333 22 39 29
s16.334 10.833 17.001 11.5c10.667 8 23.334 13 38.001 15s29.334 1.5 44.001 -1.5s28.5 -8.66699 41.5 -17s23.833 -19.166 32.5 -32.499c18 -28.667 23.167 -56 15.5 -82s-23.834 -48 -48.501 -66l-24 -20l-25.5 -24c-9.66699 -9.33301 -19.834 -19.666 -30.501 -30.999
c14.667 -14.667 28.5 -27.834 41.5 -39.501l34.5 -30.5c12 -10 22.667 -19.333 32 -28c12.667 -12 21.667 -25.667 27 -41c4.66699 -13.333 5.83398 -29 3.50098 -47s-12.5 -37.667 -30.5 -59c-8.66699 -10 -19.5 -18 -32.5 -24s-26.5 -9.66699 -40.5 -11
s-28 -0.333008 -42 3s-26 9 -36 17z" />
    <glyph glyph-name="equal" unicode="=" horiz-adv-x="536" 
d="M398 550c22.667 -5.33301 40.166 -12.3291 52.499 -20.9961s21.166 -17.334 26.499 -26.001c6.66699 -10 10.334 -20.667 11.001 -32c1.33301 -12.667 0 -24.667 -4 -36c-3.33301 -9.33301 -10 -18.833 -20 -28.5s-25.667 -16.834 -47 -21.501
c-49.333 -10.667 -95.166 -16 -137.499 -16s-87.166 3 -134.499 9c-23.333 3.33301 -41.333 9.16602 -54 17.499s-21.667 17.166 -27 26.499c-6.66699 10.667 -10.334 22.667 -11.001 36c-2 13.333 0 26 6 38c5.33301 10 14.333 20 27 30s32 17.333 58 22
c33.333 6 65.333 9.5 96 10.5s57.667 0.833008 81 -0.5c27.333 -2 53 -4.66699 77 -8zM397.999 328.004c22.667 -5.33301 40.166 -12.3291 52.499 -20.9961s21.166 -17.334 26.499 -26.001c6.66699 -10 10.334 -20.667 11.001 -32c1.33301 -12.667 0 -24.667 -4 -36
c-3.33301 -9.33301 -10 -18.833 -20 -28.5s-25.667 -16.834 -47 -21.501c-49.333 -10.667 -95.166 -16 -137.499 -16s-87.166 3 -134.499 9c-23.333 3.33301 -41.333 9.16602 -54 17.499s-21.667 17.166 -27 26.499c-6.66699 10.667 -10.334 22.667 -11.001 36
c-2 13.333 0 26 6 38c5.33301 10 14.333 20 27 30s32 17.333 58 22c33.333 6 65.333 9.5 96 10.5s57.667 0.833008 81 -0.5c27.333 -2 53 -4.66699 77 -8z" />
    <glyph glyph-name="greater" unicode="&#x3e;" horiz-adv-x="468" 
d="M224 620c0.666992 -0.666992 6.33301 -4.5 17 -11.5s23.667 -16.5 39 -28.5s32 -26 50 -42s34.667 -33.5 50 -52.5s28 -39 38 -60s15 -42.167 15 -63.5c0 -20.667 -5 -41.5 -15 -62.5s-22.667 -41.167 -38 -60.5s-32 -37.333 -50 -54s-34.667 -31.167 -50 -43.5
s-28.333 -22.166 -39 -29.499s-16.334 -11 -17.001 -11c-11.333 -8 -24.166 -13 -38.499 -15s-28.833 -1.5 -43.5 1.5s-28.5 8.66699 -41.5 17s-23.833 19.166 -32.5 32.499c-18 28.667 -23.167 56 -15.5 82s23.834 48 48.501 66l24 20
c7.33301 6.66699 15.666 14.667 24.999 24l31 31l-41.5 39l-34.5 31c-12 10 -22.667 19.333 -32 28c-12.667 12 -21.667 25.667 -27 41c-4.66699 13.333 -6 29 -4 47s12.333 37.667 31 59c8.66699 10 19.5 18 32.5 24s26.5 9.66699 40.5 11s28 0.333008 42 -3s26 -9 36 -17z
" />
    <glyph glyph-name="question" unicode="?" horiz-adv-x="646" 
d="M509 61c0 -34.667 -12.333 -61.501 -37 -80.501s-56.334 -28.5 -95.001 -28.5s-69.5 10.833 -92.5 32.5s-34.5 47.834 -34.5 78.501c0 36 11.5 63.667 34.5 83s53.833 29 92.5 29s70.334 -10.5 95.001 -31.5s37 -48.5 37 -82.5zM525 289.999
c-16 -26 -34.999 -46.332 -56.999 -60.999c-9.33301 -6 -19.833 -11.333 -31.5 -16s-24.334 -7.33398 -38.001 -8.00098s-28.334 1.16602 -44.001 5.49902s-32.167 12.166 -49.5 23.499c-11.333 6.66699 -19.833 15.167 -25.5 25.5s-9.33398 21.166 -11.001 32.499
s-1.5 23.333 0.5 36s5 25 9 37c8.66699 28 22.334 57.667 41.001 89c-22 -20.667 -44.333 -36.334 -67 -47.001c-19.333 -9.33301 -41.166 -14.333 -65.499 -15s-48.5 9 -72.5 29c-23.333 22 -39.333 46.333 -48 73c-4 11.333 -6.33301 24 -7 38s1 29 5 45
s11.167 32.833 21.5 50.5s24.833 36.167 43.5 55.5c30 25.333 64 44 102 56c16 4.66699 33.833 8.16699 53.5 10.5s40.667 2 63 -1s46 -9 71 -18s51.167 -22.167 78.5 -39.5c25.333 -16 44.5 -35.667 57.5 -59s21.667 -48.166 26 -74.499s5.16602 -53.166 2.49902 -80.499
s-7.16699 -53.166 -13.5 -77.499s-13.666 -46.166 -21.999 -65.499s-15.833 -34 -22.5 -44z" />
    <glyph glyph-name="at" unicode="@" horiz-adv-x="710" 
d="M231 477c2.66699 7.33301 6.33594 14.3291 11.0029 20.9961c4 5.33301 9.66699 10.166 17 14.499s16.666 6.5 27.999 6.5c18 0 31.833 -6.66699 41.5 -20s16.834 -27.666 21.501 -42.999c5.33301 -18 8.66602 -38.667 9.99902 -62
c1.33301 -37.333 -1.33398 -65.333 -8.00098 -84s-14.667 -32 -24 -40c-10.667 -9.33301 -23.334 -13.666 -38.001 -12.999c-9.33301 0 -17.666 1.33301 -24.999 4c-6.66699 2.66699 -13 7 -19 13s-9.66699 15.333 -11 28c-4 -9.33301 -10 -17.666 -18 -24.999
c-7.33301 -6 -17.5 -11 -30.5 -15s-30.167 -4.66699 -51.5 -2c-18 1.33301 -33.667 6.33301 -47 15c-11.333 7.33301 -21.833 18.833 -31.5 34.5s-14.5 37.5 -14.5 65.5c-1.33301 24 1.66699 46 9 66c6 17.333 16 33.333 30 48s35.333 23.334 64 26.001
c18 1.33301 32.667 0.333008 44 -3s20 -7.66602 26 -12.999c7.33301 -6 12.666 -13.333 15.999 -22zM206.002 394.996c-5.33301 0 -9.66602 -1.66699 -12.999 -5s-5 -8.33301 -5 -15c0 -6 1.66699 -10.5 5 -13.5s7.66602 -4.5 12.999 -4.5s9.66602 1.5 12.999 4.5
s5 7.5 5 13.5c0 6.66699 -1.66699 11.667 -5 15s-7.66602 5 -12.999 5zM448.002 541.996c-2 16.667 -1.33105 30.998 2.00195 42.998c3.33301 10.667 9.66602 20.334 18.999 29.001s24.666 13 45.999 13c20 0 34.833 -4.5 44.5 -13.5s16.5 -18.833 20.5 -29.5
c4 -12.667 5.66699 -27 5 -43c17.333 1.33301 32.666 0 45.999 -4c11.333 -3.33301 21.833 -9.66602 31.5 -18.999s14.5 -23.333 14.5 -42c0 -17.333 -4.5 -30.166 -13.5 -38.499s-18.833 -14.166 -29.5 -17.499c-12.667 -4 -27 -5.66699 -43 -5
c2.66699 -30.667 2.66699 -58 0 -82c-2.66699 -20.667 -8.66699 -39.334 -18 -56.001s-24.333 -25 -45 -25c-21.333 0 -37.166 4.5 -47.499 13.5s-17.5 21.167 -21.5 36.5s-5.66699 33 -5 53s1.66699 41 3 63c-18.667 -2.66699 -35 -2.66699 -49 0
c-12.667 2.66699 -24 8.16699 -34 16.5s-15 22.166 -15 41.499c0 13.333 3 24.333 9 33s13.5 15.5 22.5 20.5s18.667 8.33301 29 10s19.833 2.5 28.5 2.5zM612.004 237.994c-60 1.33301 -120.001 2.33301 -180.001 3h-80.5c-28.333 0 -56.666 -0.166992 -84.999 -0.5
s-56.5 -0.833008 -84.5 -1.5s-54.333 -1.33398 -79 -2.00098c-13.333 -0.666992 -23.5 -3.66699 -30.5 -9s-12.167 -11 -15.5 -17c-4 -7.33301 -6 -15.666 -6 -24.999c0.666992 -7.33301 2.66699 -14.333 6 -21c3.33301 -5.33301 8.16602 -10.5 14.499 -15.5
s15.833 -7.83301 28.5 -8.5c22.667 -1.33301 49 -2.5 79 -3.5s61.333 -1.5 94 -1.5h100c34 0 66.5 0.333008 97.5 1s59.667 1.5 86 2.5s48.166 2.5 65.499 4.5c9.33301 0.666992 16.666 3.5 21.999 8.5s9.33301 10.167 12 15.5c2.66699 6.66699 4.33398 13.667 5.00098 21
c0 8.66699 -1.66699 16.667 -5 24c-3.33301 6 -8.16602 11.667 -14.499 17s-16.166 8 -29.499 8z" />
    <glyph glyph-name="A" unicode="A" 
d="M622 9c-16 -5.33301 -32.665 -8.66602 -49.998 -9.99902c-14.667 -1.33301 -30.834 -0.666016 -48.501 2.00098s-35.167 9 -52.5 19c-20 12 -36.167 25.833 -48.5 41.5s-22.166 31 -29.499 46s-12.333 28.667 -15 41s-4.33398 20.5 -5.00098 24.5
c-0.666992 -4 -2.33398 -12.167 -5.00098 -24.5s-7.66699 -26 -15 -41s-17.166 -30.333 -29.499 -46s-28.5 -29.5 -48.5 -41.5c-17.333 -10 -34.833 -16.333 -52.5 -19s-33.834 -3.33398 -48.501 -2.00098c-17.333 1.33301 -34 4.66602 -50 9.99902
c-13.333 4.66699 -24.833 10.834 -34.5 18.501s-17.667 16.334 -24 26.001s-11.666 20 -15.999 31s-7.5 21.833 -9.5 32.5c-5.33301 25.333 -7.33301 52.333 -6 81c2 47.333 7.33301 90.833 16 130.5s19.5 76 32.5 109s27.167 62.667 42.5 89s30.333 50.166 45 71.499
c22 32 44.5 56.333 67.5 73s44.333 28.834 64 36.501s36 12 49 13s20.5 1.5 22.5 1.5s9.5 -0.5 22.5 -1.5s29.333 -5.33301 49 -13s41.167 -19.834 64.5 -36.501s46 -41 68 -73c14.667 -21.333 29.5 -45.166 44.5 -71.499s29 -56 42 -89s23.833 -69.333 32.5 -109
s14 -83.167 16 -130.5c2 -28.667 0.333008 -55.667 -5 -81c-2 -10.667 -5.16699 -21.5 -9.5 -32.5s-9.83301 -21.333 -16.5 -31s-14.834 -18.334 -24.501 -26.001s-21.167 -13.834 -34.5 -18.501zM377.002 369c-11.333 0 -21.165 -4.33301 -29.498 -13
s-11.833 -18.334 -10.5 -29.001c1.33301 -14 5.5 -23.667 12.5 -29s16.167 -8 27.5 -8s20.666 3.33301 27.999 10s11 15.667 11 27c0 10.667 -3.33301 20.334 -10 29.001s-16.334 13 -29.001 13z" />
    <glyph glyph-name="B" unicode="B" horiz-adv-x="668" 
d="M373 714c47.333 -2 85.501 -10.1699 114.501 -24.5029s51.833 -29.833 68.5 -46.5c19.333 -19.333 33.333 -41.333 42 -66c10 -36.667 11.333 -67.5 4 -92.5s-17.666 -45.5 -30.999 -61.5c-15.333 -18.667 -34.333 -34 -57 -46
c30.667 -9.33301 54.334 -22.333 71.001 -39s28.667 -33 36 -49c8.66699 -18.667 13.667 -38.667 15 -60c1.33301 -27.333 -1.33398 -51.666 -8.00098 -72.999s-16 -39.833 -28 -55.5s-26 -29.167 -42 -40.5s-32.333 -20.666 -49 -27.999c-40 -17.333 -85.667 -28 -137 -32
c-28 -2 -53.667 -1.66699 -77 1s-44.333 6.66699 -63 12s-35.334 11.5 -50.001 18.5s-27.334 14.5 -38.001 22.5c-26 18 -45.667 39 -59 63c-20 34 -33 70.667 -39 110s-9 76 -9 110c0 34.667 2 66 6 94s8.66699 51.667 14 71c6 22.667 12.667 43 20 61
c8.66699 22.667 19.667 42.167 33 58.5s27.833 30.333 43.5 42s32 20.834 49 27.501s33.5 12 49.5 16c38 8.66699 78.333 11 121 7zM338.001 513.997c-11.333 0 -20.833 -3.5 -28.5 -10.5s-11.5 -16.167 -11.5 -27.5c0 -10.667 2.83301 -20.5 8.5 -29.5
s16.167 -13.5 31.5 -13.5c13.333 0 23.333 4.5 30 13.5s10 18.833 10 29.5c0 10 -3.33301 18.833 -10 26.5s-16.667 11.5 -30 11.5zM347.001 273.997c-11.333 0 -21.165 -4.33301 -29.498 -13s-11.833 -18.334 -10.5 -29.001c1.33301 -14 5.5 -23.667 12.5 -29
s16.167 -8 27.5 -8s20.666 3.33301 27.999 10s11 15.667 11 27c0 10.667 -3.33301 20.334 -10 29.001s-16.334 13 -29.001 13z" />
    <glyph glyph-name="C" unicode="C" horiz-adv-x="695" 
d="M497 426c-20.667 3.33301 -39.332 3.66602 -55.999 0.999023c-14 -2.66699 -27 -8.33398 -39 -17.001s-18.667 -23.667 -20 -45c-0.666992 -16 3 -30 11 -42c7.33301 -10 19 -18.5 35 -25.5s40 -8.83301 72 -5.5c30 3.33301 57 2 81 -4
c10 -2.66699 20.167 -6.33398 30.5 -11.001s19.666 -11.167 27.999 -19.5s15.666 -18.666 21.999 -30.999s10.5 -26.833 12.5 -43.5c1.33301 -20 -0.333984 -39.333 -5.00098 -58c-4 -16 -11.5 -33 -22.5 -51s-28.167 -33.333 -51.5 -46
c-24.667 -13.333 -54.334 -23 -89.001 -29c-30 -5.33301 -66.667 -7.33301 -110 -6s-94.333 10 -153 26c-41.333 13.333 -78 34.666 -110 63.999c-14 12.667 -27.5 27.5 -40.5 44.5s-24.5 37 -34.5 60s-17.833 49.167 -23.5 78.5s-7.83398 62 -6.50098 98
c0.666992 52 10 100.667 28 146c8 19.333 18.167 38.833 30.5 58.5s28 38.167 47 55.5s41.333 33 67 47s55.834 25 90.501 33c34 8 69.333 12.333 106 13c30.667 0.666992 64.5 -2.16602 101.5 -8.49902s72.833 -19.833 107.5 -40.5c18 -12.667 32.333 -28 43 -46
c4.66699 -8 8.66699 -16.833 12 -26.5s5.5 -20.167 6.5 -31.5s0.5 -23.666 -1.5 -36.999s-6.33301 -27.666 -13 -42.999c-7.33301 -15.333 -17.666 -28 -30.999 -38c-11.333 -8.66699 -27.166 -15.667 -47.499 -21s-46.166 -5 -77.499 1z" />
    <glyph glyph-name="D" unicode="D" horiz-adv-x="684" 
d="M624 180c-8 -26.667 -18.9961 -49.8359 -32.9961 -69.5029s-29.667 -36.5 -47 -50.5s-35.833 -25.333 -55.5 -34s-39.167 -15.667 -58.5 -21c-46 -12 -95 -17.333 -147 -16c-40 -0.666992 -73 3.5 -99 12.5s-47 19.167 -63 30.5c-18.667 12.667 -33.667 27 -45 43
c-10 16.667 -17.5 35.334 -22.5 56.001s-8.5 41.5 -10.5 62.5s-3 41.667 -3 62v56.5c0 35.333 1 67.833 3 97.5s4.66699 55.5 8 77.5c2.66699 26 6.33398 49.333 11.001 70c3.33301 20.667 9 38.667 17 54s17.167 28.5 27.5 39.5s21.333 20.167 33 27.5s23.5 13 35.5 17
c27.333 10 57.666 14.333 90.999 13c32 0 61.333 -2.16699 88 -6.5s50.667 -10 72 -17s40.5 -15.167 57.5 -24.5s32.167 -18.666 45.5 -27.999c30.667 -22.667 54.667 -48.334 72 -77.001c16.667 -28.667 29 -61.667 37 -99c3.33301 -16 6.16602 -33.833 8.49902 -53.5
s3.16602 -41.167 2.49902 -64.5s-2.83398 -48.166 -6.50098 -74.499s-9.83398 -54.166 -18.501 -83.499zM347.004 383.998c-11.333 0 -20.8311 -2.83301 -28.498 -8.5s-11.5 -16.834 -11.5 -33.501c0 -16 3.83301 -26.167 11.5 -30.5s17.167 -6.5 28.5 -6.5
s20.666 3.33301 27.999 10s11 15.667 11 27c0 10.667 -3.33301 20.334 -10 29.001s-16.334 13 -29.001 13z" />
    <glyph glyph-name="E" unicode="E" horiz-adv-x="668" 
d="M343 711c37.333 -1.33301 69.835 -3.99902 97.502 -7.99902s51.667 -9.16699 72 -15.5s37.166 -13.166 50.499 -20.499s24 -15 32 -23c19.333 -18 28.666 -38 27.999 -60c0 -20 -3.66699 -37.167 -11 -51.5s-17 -26.5 -29 -36.5s-26 -18 -42 -24s-32.333 -10.667 -49 -14
c-39.333 -7.33301 -84 -9.66602 -134 -6.99902c38 -6.66699 66.667 -15.834 86 -27.501s32.666 -23.167 39.999 -34.5c8.66699 -13.333 12.334 -28 11.001 -44c0 -21.333 -5.66699 -38.5 -17 -51.5s-23.666 -23.5 -36.999 -31.5c-16 -9.33301 -34 -16.333 -54 -21
c31.333 0.666992 58.666 -0.666016 81.999 -3.99902s43.5 -8 60.5 -14s31.167 -12.833 42.5 -20.5s20.666 -15.5 27.999 -23.5c16.667 -18.667 25 -40.334 25 -65.001c-1.33301 -16 -6 -29.833 -14 -41.5s-18.167 -21.834 -30.5 -30.501s-26.5 -15.834 -42.5 -21.501
s-32 -10.5 -48 -14.5c-38 -8.66699 -81.333 -13.334 -130 -14.001c-36.667 -1.33301 -69 0 -97 4s-52.667 9.33301 -74 16s-39.666 14.334 -54.999 23.001s-28 17.667 -38 27c-24 22 -39 47 -45 75c-8.66699 44 -13.5 90.167 -14.5 138.5s-0.166992 92.833 2.5 133.5
c2.66699 47.333 7.33398 94 14.001 140c4 22.667 11.167 42.5 21.5 59.5s22.666 31.5 36.999 43.5s30 21.833 47 29.5s34.167 13.5 51.5 17.5c40 10 84.333 14 133 12z" />
    <glyph glyph-name="F" unicode="F" horiz-adv-x="638" 
d="M354 257c7.33301 -36.667 10.8359 -68.3379 10.5029 -95.0049s-3.33301 -49.5 -9 -68.5s-13.334 -34.5 -23.001 -46.5s-19.834 -21.333 -30.501 -28c-26 -16.667 -57.667 -23 -95 -19c-18.667 0 -35.334 2.5 -50.001 7.5s-27.667 11.833 -39 20.5s-21 18.5 -29 29.5
s-15 22.167 -21 33.5c-13.333 26.667 -22.666 57.334 -27.999 92.001c-8.66699 44 -13.334 88.667 -14.001 134s0 86.333 2 123c2.66699 42.667 6.66699 84.334 12 125.001c4 24 11.833 44.667 23.5 62s25.5 32.166 41.5 44.499s33.333 22.333 52 30s37.667 13.5 57 17.5
c44.667 10 93.667 13.667 147 11c32 -2 60.167 -5.33301 84.5 -10s45.166 -10.167 62.499 -16.5s32 -13.333 44 -21s21.667 -15.5 29 -23.5c17.333 -18 26.333 -38.333 27 -61c0.666992 -18 -2.16602 -33.833 -8.49902 -47.5s-14.833 -25.167 -25.5 -34.5
s-23 -17.166 -37 -23.499s-28.333 -11.166 -43 -14.499c-34.667 -8 -74.667 -11.333 -120 -10c33.333 -5.33301 58.5 -13.166 75.5 -23.499s29.167 -21.166 36.5 -32.499c8.66699 -12.667 13 -26.334 13 -41.001c0 -28 -7.66699 -49.667 -23 -65s-32 -26.666 -50 -33.999
c-21.333 -8.66699 -45.333 -13.667 -72 -15z" />
    <glyph glyph-name="G" unicode="G" horiz-adv-x="754" 
d="M446 279c-15.333 6.66699 -25.833 14.335 -31.5 23.002s-9.16699 16.667 -10.5 24c-1.33301 8.66699 -0.333008 17.667 3 27c4.66699 12 15.5 20.833 32.5 26.5s36.5 9.5 58.5 11.5s44.833 2.33301 68.5 1s44.167 -3.33301 61.5 -6c11.333 -2 21 -4.83301 29 -8.5
s14.667 -7.16699 20 -10.5c6 -4 11 -8.66699 15 -14c6 -8 11 -18.333 15 -31s7.16699 -26.5 9.5 -41.5s4 -30.667 5 -47s1.5 -32.5 1.5 -48.5c0 -37.333 -2 -77.333 -6 -120c-2 -27.333 -8.5 -48.333 -19.5 -63s-22.833 -25.334 -35.5 -32.001
c-14.667 -8 -31 -12.333 -49 -13c-14.667 0 -29 1.5 -43 4.5s-26.667 8.33301 -38 16s-20.333 18 -27 31s-10 29.167 -10 48.5c-7.33301 -9.33301 -17.833 -18.666 -31.5 -27.999s-30.167 -17.166 -49.5 -23.499s-41.666 -10.333 -66.999 -12
s-53.666 0.166016 -84.999 5.49902c-48 9.33301 -90.333 28.333 -127 57c-16 12 -31.5 26.667 -46.5 44s-28.333 38.166 -40 62.499s-21.167 52.166 -28.5 83.499s-11 67 -11 107c0.666992 50.667 9.66699 99 27 145c7.33301 19.333 17 39.166 29 59.499s27 39.833 45 58.5
s39.5 35.834 64.5 51.501s54.167 29.167 87.5 40.5c40 10 80 14.333 120 13c16.667 -0.666992 34.5 -2.5 53.5 -5.5s38 -8 57 -15s37.833 -16.333 56.5 -28s36.334 -26.167 53.001 -43.5c10.667 -12.667 19 -27 25 -43c5.33301 -13.333 8.16602 -29.333 8.49902 -48
s-4.5 -39 -14.5 -61c-8 -15.333 -19.667 -27 -35 -35c-13.333 -7.33301 -31.166 -11.666 -53.499 -12.999s-51.166 4.66699 -86.499 18c-24.667 6.66699 -46.334 8.66699 -65.001 6c-16.667 -2.66699 -31.667 -10.167 -45 -22.5s-20.333 -34.5 -21 -66.5
c1.33301 -24 6.66602 -44 15.999 -60c4 -6.66699 9.16699 -12.834 15.5 -18.501s14.166 -10 23.499 -13s20.166 -4.16699 32.499 -3.5s26.833 4 43.5 10z" />
    <glyph glyph-name="H" unicode="H" horiz-adv-x="766" 
d="M366 489l37.9941 -0.000976562c0.666992 42.667 7 80.667 19 114c4.66699 14 11 28 19 42s18 26.333 30 37s26 19.334 42 26.001s35 10 57 10c25.333 -2 49 -10.333 71 -25c18.667 -12.667 36.5 -32.5 53.5 -59.5s28.5 -64.833 34.5 -113.5
c5.33301 -47.333 8.33301 -92 9 -134s0.333984 -79 -0.999023 -111c-2 -37.333 -4.66699 -72 -8 -104c-4 -32.667 -12.333 -62 -25 -88c-5.33301 -11.333 -12 -22.166 -20 -32.499s-17.5 -19.666 -28.5 -27.999s-23.5 -14.833 -37.5 -19.5s-30 -7 -48 -7
c-20 0 -37.667 3.33301 -53 10s-28.666 15.5 -39.999 26.5s-20.833 23.333 -28.5 37s-14.167 27.5 -19.5 41.5c-12 33.333 -19.333 71 -22 113h-37c-4 -42.667 -12.667 -80.334 -26 -113.001c-6 -14 -13.167 -27.833 -21.5 -41.5s-18.166 -25.667 -29.499 -36
s-24.666 -18.833 -39.999 -25.5s-32.666 -10 -51.999 -10c-27.333 0.666992 -52 7.66699 -74 21c-9.33301 6 -18.833 13.333 -28.5 22s-18.5 19.834 -26.5 33.501s-14.833 29.667 -20.5 48s-9.5 39.833 -11.5 64.5c-5.33301 58 -7.83301 109.167 -7.5 153.5
s1.5 82.166 3.5 113.499c2.66699 36.667 6.33398 68.334 11.001 95.001c5.33301 31.333 14.333 59.333 27 84c5.33301 10.667 11.833 21 19.5 31s16.667 19 27 27s22 14.333 35 19s27.5 7 43.5 7c22 0 41 -3.33301 57 -10s30 -15.334 42 -26.001
s21.833 -22.834 29.5 -36.501s14.167 -27.5 19.5 -41.5c12 -33.333 18 -71.333 18 -114z" />
    <glyph glyph-name="I" unicode="I" horiz-adv-x="420" 
d="M39 203c-4 27.333 -6.49707 57.168 -7.49707 89.501s-1.16699 62.5 -0.5 90.5c0.666992 32.667 2 65.667 4 99c3.33301 41.333 11.666 78.333 24.999 111c6 14 13.333 27.667 22 41s19.167 25.166 31.5 35.499s26.833 18.833 43.5 25.5s36 10 58 10
c26.667 -2 51 -10 73 -24c9.33301 -6 18.833 -13.667 28.5 -23s18.667 -21 27 -35s15.666 -30.333 21.999 -49s11.166 -40 14.499 -64c5.33301 -46.667 8.33301 -90.834 9 -132.501s0.333984 -78.5 -0.999023 -110.5c-2 -36.667 -4.66699 -71 -8 -103
c-4.66699 -32.667 -13.334 -61.667 -26.001 -87c-6 -10.667 -13 -21.167 -21 -31.5s-17.667 -19.666 -29 -27.999s-24.333 -14.833 -39 -19.5s-31.334 -7 -50.001 -7c-20.667 0 -39 3.16699 -55 9.5s-30.167 14.5 -42.5 24.5s-22.666 21.333 -30.999 34
s-15.5 25.667 -21.5 39c-13.333 31.333 -22 66.333 -26 105z" />
    <glyph glyph-name="J" unicode="J" horiz-adv-x="547" 
d="M175 255c-2 26.667 -3.49805 54.499 -4.49805 83.499s-1.5 55.5 -1.5 79.5c0 28 0.333008 55.667 1 83c0.666992 38.667 6.66699 73.667 18 105c4.66699 12.667 10.834 25.334 18.501 38.001s17 24 28 34s24 18.167 39 24.5s32.5 9.5 52.5 9.5c28.667 0 55 -6 79 -18
c10 -5.33301 20 -12.333 30 -21s19.167 -19.5 27.5 -32.5s15.5 -28.667 21.5 -47s10 -39.833 12 -64.5c3.33301 -46 5.66602 -87 6.99902 -123s1.66602 -66.667 0.999023 -92c-0.666992 -30 -1.66699 -56.333 -3 -79c-1.33301 -23.333 -5 -46.333 -11 -69
c-5.33301 -19.333 -13.166 -40.166 -23.499 -62.499s-25.166 -42.833 -44.499 -61.5c-10.667 -10 -25.834 -19 -45.501 -27s-41.5 -14 -65.5 -18s-49.333 -5.83301 -76 -5.5s-52.334 3.33301 -77.001 9s-47.334 14.334 -68.001 26.001s-37 27.167 -49 46.5
c-8 12 -12.333 25.167 -13 39.5s1.5 27.666 6.5 39.999s12.333 22.833 22 31.5s21.167 13.667 34.5 15c23.333 2 40.833 6 52.5 12s19.834 12.333 24.501 19c5.33301 7.33301 7.66602 15.666 6.99902 24.999z" />
    <glyph glyph-name="K" unicode="K" horiz-adv-x="732" 
d="M380 541c2 12 5.99902 24.001 11.999 36.001c5.33301 10.667 12.166 22.167 20.499 34.5s19.5 24.5 33.5 36.5c24.667 21.333 48.167 33.333 70.5 36s41.833 1.33398 58.5 -3.99902c19.333 -6.66699 37.333 -17.334 54 -32.001c15.333 -16 26.166 -32 32.499 -48
s9.16602 -32 8.49902 -48s-3.83398 -31.5 -9.50098 -46.5s-12.5 -29.167 -20.5 -42.5c-19.333 -31.333 -46.666 -61.333 -81.999 -90c31.333 -34 56.5 -65 75.5 -93s33.5 -53.5 43.5 -76.5s16.167 -43.5 18.5 -61.5s2.5 -34 0.5 -48c-5.33301 -32 -22 -57 -50 -75
c-23.333 -14 -45.166 -22.667 -65.499 -26s-39.5 -2.83301 -57.5 1.5s-34.5 11.5 -49.5 21.5s-28.833 21.333 -41.5 34c-29.333 29.333 -55 67.333 -77 114c2.66699 -27.333 0.666992 -52 -6 -74c-6 -19.333 -17 -38 -33 -56s-41 -30.333 -75 -37
c-18.667 -4 -35.667 -4.66699 -51 -2s-29 7.16699 -41 13.5s-22.5 14.333 -31.5 24s-16.833 19.5 -23.5 29.5c-16 24 -28 52.667 -36 86c-7.33301 32 -12.666 67 -15.999 105c-3.33301 32.667 -4.66602 71 -3.99902 115s5 91.667 13 143s20.833 90.666 38.5 117.999
s35.834 47.333 54.501 60c21.333 14.667 44.333 22.667 69 24c26 0.666992 48.333 -1.16602 67 -5.49902s34.167 -10.5 46.5 -18.5s22.333 -17.333 30 -28s13.5 -21.334 17.5 -32.001c9.33301 -26 11.333 -55.333 6 -88z" />
    <glyph glyph-name="L" unicode="L" horiz-adv-x="651" 
d="M355 284c28.667 15.333 54.668 26.0039 78.001 32.0039s44 8.66699 62 8s33.833 -4.16699 47.5 -10.5s25.167 -13.833 34.5 -22.5c22 -20.667 37.667 -49 47 -85c1.33301 -6 1.83301 -15.333 1.5 -28s-3 -26.834 -8 -42.501s-13 -31.834 -24 -48.501s-26.667 -32 -47 -46
s-46.166 -25.833 -77.499 -35.5s-69.333 -15.167 -114 -16.5c-31.333 -1.33301 -59.5 0.666992 -84.5 6s-47.333 12.5 -67 21.5s-37 19.5 -52 31.5s-27.833 24.333 -38.5 37c-25.333 29.333 -43.666 63 -54.999 101c-12 34 -19.333 71.833 -22 113.5s-3 80.834 -1 117.501
c2 42.667 6.33301 85.667 13 129c7.33301 42.667 19.666 75.334 36.999 98.001s35 38.667 53 48c20.667 11.333 43 17 67 17c28 0.666992 51.667 -4.83301 71 -16.5s35.166 -27.334 47.499 -47.001s21.666 -42.334 27.999 -68.001s10.5 -51.834 12.5 -78.501
c5.33301 -62.667 2.33301 -134.334 -9 -215.001z" />
    <glyph glyph-name="M" unicode="M" horiz-adv-x="987" 
d="M492 500c4.66699 40.667 14.6602 77 29.9932 109c6.66699 13.333 14.667 26.5 24 39.5s20.333 24.667 33 35s27.334 18.666 44.001 24.999s35.667 9.5 57 9.5c32.667 0 61.167 -8 85.5 -24s44.5 -33.667 60.5 -53c18.667 -22 34.667 -47.333 48 -76
c18 -42 31.833 -83.833 41.5 -125.5s16.834 -79.5 21.501 -113.5c5.33301 -40 8.33301 -78.333 9 -115c0.666992 -28 -0.833008 -52.667 -4.5 -74s-8.83398 -39.666 -15.501 -54.999s-14.5 -28.166 -23.5 -38.499s-18.5 -18.833 -28.5 -25.5
c-22.667 -15.333 -48.667 -23.333 -78 -24c-26 0 -48.833 4.5 -68.5 13.5s-36.667 21 -51 36s-26.333 32 -36 51s-17.5 38.5 -23.5 58.5c-14.667 46.667 -22.334 99.667 -23.001 159c-3.33301 -39.333 -10.166 -69 -20.499 -89s-21.166 -34 -32.499 -42
c-13.333 -10 -28 -14.333 -44 -13c-26 0 -46.333 7.5 -61 22.5s-25.667 31.833 -33 50.5c-8.66699 21.333 -14 45.666 -16 72.999c0 -40.667 -2.5 -76.5 -7.5 -107.5s-11.5 -57.667 -19.5 -80s-17.167 -41.166 -27.5 -56.499s-20.833 -28 -31.5 -38
c-25.333 -22.667 -54 -35.334 -86 -38.001c-25.333 0 -47.166 3 -65.499 9s-34.166 13.833 -47.499 23.5s-24.333 20.834 -33 33.501s-15.667 25.667 -21 39c-12 31.333 -18 66.666 -18 105.999c0 54 3.83301 103.5 11.5 148.5s16.167 83.833 25.5 116.5
c11.333 38 24 72.333 38 103c17.333 40 38 69.833 62 89.5s46.667 33.5 68 41.5c25.333 9.33301 51 13.333 77 12c22.667 0 42.834 -3.16699 60.501 -9.5s32.834 -14.5 45.501 -24.5s23.334 -21.5 32.001 -34.5s15.667 -26.167 21 -39.5c12.667 -32 19.667 -68 21 -108z" />
    <glyph glyph-name="N" unicode="N" horiz-adv-x="823" 
d="M55 552c6.66699 28.667 18.0078 54.666 34.0078 77.999c13.333 20 32.166 38.5 56.499 55.5s56.166 26.5 95.499 28.5c28 1.33301 52.5 -1.5 73.5 -8.5s39.5 -16.5 55.5 -28.5s29.5 -26 40.5 -42s20.167 -32.333 27.5 -49c17.333 -39.333 27 -84.666 29 -135.999
c-0.666992 34 1.16602 63.833 5.49902 89.5s10.166 47.667 17.499 66s15.833 33.666 25.5 45.999s19.5 22.166 29.5 29.499c23.333 17.333 50.333 26 81 26c31.333 0.666992 56.5 -4.83301 75.5 -16.5s33.5 -24.834 43.5 -39.501c12 -17.333 20 -36.666 24 -57.999
c11.333 -58.667 17 -114.5 17 -167.5s-1.66699 -100.167 -5 -141.5c-4.66699 -48 -11.334 -93.333 -20.001 -136c-4.66699 -21.333 -10.5 -39.833 -17.5 -55.5s-14.667 -29 -23 -40s-17.166 -20 -26.499 -27s-18.333 -12.5 -27 -16.5c-21.333 -9.33301 -43.333 -13 -66 -11
c-27.333 -0.666992 -51.833 3 -73.5 11s-40.834 19 -57.501 33s-31 30 -43 48s-22.333 36.333 -31 55c-20.667 44 -34.667 94.333 -42 151c2 -41.333 1.33301 -77.166 -2 -107.499s-8.66602 -56.333 -15.999 -78s-15.833 -39.5 -25.5 -53.5s-19.834 -25 -30.501 -33
c-25.333 -20 -54.333 -28.667 -87 -26c-28.667 -1.33301 -52 3.83398 -70 15.501s-32 24.5 -42 38.5c-12 16.667 -20.667 35.667 -26 57c-12.667 52.667 -19.834 105.167 -21.501 157.5s-0.833984 99.833 2.49902 142.5c3.33301 49.333 9.66602 97 18.999 143z" />
    <glyph glyph-name="O" unicode="O" horiz-adv-x="748" 
d="M393 704c40 0 75.166 -4.83496 105.499 -14.502s56.833 -22.5 79.5 -38.5s41.667 -34.167 57 -54.5s28 -41.166 38 -62.499c23.333 -50 36.666 -106.333 39.999 -169c0 -47.333 -4.66699 -88.833 -14 -124.5s-21.5 -66.667 -36.5 -93s-32 -48.5 -51 -66.5
s-38.5 -33 -58.5 -45c-46.667 -27.333 -100 -43 -160 -47c-45.333 0 -85 4.83301 -119 14.5s-63.667 22.334 -89 38.001s-46.666 33.667 -63.999 54s-31.666 41.166 -42.999 62.499c-26.667 49.333 -41.667 105.666 -45 168.999c0 52 5.16699 97 15.5 135s24 70.833 41 98.5
s36.167 50.334 57.5 68.001s43.333 31.834 66 42.501c52.667 24.667 112.667 35.667 180 33zM377.999 382.998c-11.333 0 -21.165 -4.33301 -29.498 -13s-11.833 -18.334 -10.5 -29.001c1.33301 -14 5.5 -23.667 12.5 -29s16.167 -8 27.5 -8s20.666 3.33301 27.999 10
s11 15.667 11 27c0 10.667 -3.33301 20.334 -10 29.001s-16.334 13 -29.001 13z" />
    <glyph glyph-name="P" unicode="P" horiz-adv-x="737" 
d="M693 463c1.33301 -36.667 -2.00098 -68.498 -10.001 -95.498s-19 -50 -33 -69s-30.167 -34.5 -48.5 -46.5s-37.166 -21.333 -56.499 -28c-45.333 -16.667 -97 -23 -155 -19c5.33301 -24.667 8 -46.334 8 -65.001s-2 -35 -6 -49s-9.33301 -25.833 -16 -35.5
s-14 -17.834 -22 -24.501c-18.667 -15.333 -41.667 -24.666 -69 -27.999c-39.333 -4 -72 1 -98 15s-46.667 30.333 -62 49c-18 22 -32 47.333 -42 76c-15.333 52 -23.833 101.667 -25.5 149s-0.166992 89.333 4.5 126c5.33301 42 13.666 81.667 24.999 119
c8.66699 26 19.834 48.5 33.501 67.5s28.334 35.333 44.001 49s32.167 24.667 49.5 33s34.333 15.166 51 20.499c39.333 12 81 16.667 125 14c37.333 -1.33301 70.166 -6 98.499 -14s53 -18.167 74 -30.5s38.833 -26.166 53.5 -41.499s27 -31 37 -47
c22 -36.667 35.333 -78.334 40 -125.001zM387.999 483.002c-11.333 0 -21.165 -4.33301 -29.498 -13s-11.833 -18.334 -10.5 -29.001c1.33301 -14 5.5 -23.667 12.5 -29s16.167 -8 27.5 -8s20.666 3.33301 27.999 10s11 15.667 11 27c0 10.667 -3.33301 20.334 -10 29.001
s-16.334 13 -29.001 13z" />
    <glyph glyph-name="Q" unicode="Q" horiz-adv-x="833" 
d="M722 206c13.333 -10 26.334 -21.1719 39.001 -33.5049s22.334 -26.166 29.001 -41.499s9.16699 -32.5 7.5 -51.5s-10.5 -40.5 -26.5 -64.5c-18.667 -28 -39.167 -46.167 -61.5 -54.5s-43.833 -10.666 -64.5 -6.99902s-39.334 11.167 -56.001 22.5s-28.334 23 -35.001 35
c-17.333 -7.33301 -33.833 -12.833 -49.5 -16.5s-29.167 -6.5 -40.5 -8.5c-14 -2.66699 -26.667 -4 -38 -4c-46 0 -86.667 4.83301 -122 14.5s-66 22.5 -92 38.5s-47.833 34.167 -65.5 54.5s-32.167 41.166 -43.5 62.499c-26.667 50 -42 107 -46 171
c0 52 5.33301 97.167 16 135.5s24.5 71.333 41.5 99s36.5 50.334 58.5 68.001s44.667 31.834 68 42.501c54 24.667 115.667 35.667 185 33c40.667 0 76.667 -5 108 -15s58.5 -23 81.5 -39s42.5 -34.167 58.5 -54.5s29 -41.166 39 -62.499c24 -50 37.667 -106.667 41 -170
c0 -36.667 -3 -66.667 -9 -90s-13.667 -44.666 -23 -63.999zM426.001 369.995c-11.333 0 -21.165 -4.33301 -29.498 -13s-11.833 -18.334 -10.5 -29.001c1.33301 -14 5.5 -23.667 12.5 -29s16.167 -8 27.5 -8s20.666 3.33301 27.999 10s11 15.667 11 27
c0 10.667 -3.33301 20.334 -10 29.001s-16.334 13 -29.001 13z" />
    <glyph glyph-name="R" unicode="R" horiz-adv-x="687" 
d="M618 519c6.66699 -36 7.66895 -67.9951 3.00195 -95.9951s-10.667 -51.667 -18 -71c-9.33301 -22.667 -20.666 -42.334 -33.999 -59.001c24 -20.667 43.167 -40.5 57.5 -59.5s24.833 -36.833 31.5 -53.5s10.167 -32.167 10.5 -46.5s-0.833984 -27.5 -3.50098 -39.5
c-7.33301 -28 -23.666 -53.333 -48.999 -76c-19.333 -15.333 -38 -24.833 -56 -28.5s-35 -3.33398 -51 0.999023s-31.167 12 -45.5 23s-27.5 23.5 -39.5 37.5c-28 32 -53.667 74 -77 126c3.33301 -22 4.33301 -41.333 3 -58s-4.33301 -31.334 -9 -44.001
s-10.334 -23.5 -17.001 -32.5s-14 -16.5 -22 -22.5c-18 -14.667 -40 -24 -66 -28c-33.333 -4.66699 -61 -0.833984 -83 11.499s-39.333 26.5 -52 42.5c-15.333 18.667 -26.666 40.667 -33.999 66c-17.333 58.667 -27.333 112.167 -30 160.5s-2.33398 90.5 0.999023 126.5
c4 41.333 11.333 79 22 113c6.66699 27.333 16 51 28 71s25.5 37.333 40.5 52s30.833 26.667 47.5 36s33 16.666 49 21.999c38 12.667 78.667 18 122 16c29.333 0 55.666 -2.83301 78.999 -8.5s44.166 -13 62.499 -22s34.333 -19 48 -30s25.167 -22.5 34.5 -34.5
c22 -27.333 37.667 -59 47 -95zM347.002 450.005c-11.333 0 -21.165 -4.33301 -29.498 -13s-11.833 -18.334 -10.5 -29.001c1.33301 -14 5.5 -23.667 12.5 -29s16.167 -8 27.5 -8s20.666 3.33301 27.999 10s11 15.667 11 27c0 10.667 -3.33301 20.334 -10 29.001
s-16.334 13 -29.001 13z" />
    <glyph glyph-name="S" unicode="S" horiz-adv-x="625" 
d="M306 460c37.333 -5.33301 70.0039 -12.3281 98.0039 -20.9951s52.167 -18.667 72.5 -30s37.166 -23.333 50.499 -36s24.333 -25.334 33 -38.001c20 -29.333 30.333 -61.333 31 -96c0 -30 -3.66699 -56.667 -11 -80s-17.166 -43.5 -29.499 -60.5s-26.333 -31.333 -42 -43
s-31.5 -21.5 -47.5 -29.5c-38 -18 -81.333 -28.667 -130 -32c-37.333 -2.66699 -70.333 -2.66699 -99 0s-53.5 7.16699 -74.5 13.5s-38.667 13.833 -53 22.5s-25.833 18 -34.5 28c-22 22.667 -33.667 49.334 -35 80.001c0 22 3 40.667 9 56s14.333 28.166 25 38.499
s22.834 18.666 36.501 24.999s27.5 11.166 41.5 14.499c33.333 7.33301 71.333 8.33301 114 3c-29.333 6.66699 -54.5 15.167 -75.5 25.5s-38.833 22 -53.5 35s-26.5 26.5 -35.5 40.5s-16.167 27.667 -21.5 41c-12 32 -16 66 -12 102
c3.33301 24.667 9.16602 46.334 17.499 65.001s18.166 34.667 29.499 48s23.5 24.5 36.5 33.5s26.167 16.167 39.5 21.5c31.333 12.667 65.666 19 102.999 19c62 2.66699 111.167 -0.5 147.5 -9.5s63.666 -20.833 81.999 -35.5s29.666 -30.834 33.999 -48.501
s5.83301 -33.834 4.5 -48.501c-2 -16.667 -7 -30.834 -15 -42.501s-18 -21.5 -30 -29.5s-25.5 -14.5 -40.5 -19.5s-30.167 -8.5 -45.5 -10.5c-36 -6 -76 -6.66699 -120 -2z" />
    <glyph glyph-name="T" unicode="T" horiz-adv-x="736" 
d="M239 415c-38 -2.66699 -72.0029 0 -102.003 8c-12.667 3.33301 -25 8.16602 -37 14.499s-22.833 14.333 -32.5 24s-17.334 21.5 -23.001 35.5s-8.5 30.667 -8.5 50c0 33.333 6.83301 59.833 20.5 79.5s28.834 34.5 45.501 44.5c19.333 12 41.333 20 66 24
c53.333 11.333 105.333 17.833 156 19.5s96.334 1.16699 137.001 -1.5c46.667 -2.66699 91.667 -7.66699 135 -15c30.667 -6.66699 53.834 -17 69.501 -31s27.167 -28.333 34.5 -43c8 -17.333 12 -35.666 12 -54.999c-0.666992 -21.333 -3.83398 -39.666 -9.50098 -54.999
s-13 -28.5 -22 -39.5s-19.167 -19.833 -30.5 -26.5s-22.666 -12 -33.999 -16c-26.667 -8.66699 -57 -11.667 -91 -9c8.66699 -50.667 13.5 -95.5 14.5 -134.5s0.5 -72.167 -1.5 -99.5c-2.66699 -32 -7 -59.333 -13 -82c-6.66699 -32 -17.5 -55.667 -32.5 -71
s-30.167 -26.666 -45.5 -33.999c-18 -8 -37.333 -12 -58 -12c-23.333 -0.666992 -45 2.66602 -65 9.99902c-17.333 6.66699 -34 18 -50 34s-27.667 40.333 -35 73c-7.33301 34 -11.5 69.167 -12.5 105.5s-0.5 69.5 1.5 99.5c2.66699 35.333 6.33398 69.666 11.001 102.999z
" />
    <glyph glyph-name="U" unicode="U" horiz-adv-x="767" 
d="M202 711c24 -1.33301 45.335 -7.66992 64.002 -19.0029c16 -9.33301 30.833 -24.333 44.5 -45s20.5 -50 20.5 -88c0 -28.667 -0.333008 -55.834 -1 -81.501s0 -48.334 2 -68.001s5.83301 -35.334 11.5 -47.001s14.5 -17.5 26.5 -17.5s20.833 5.83301 26.5 17.5
s9.5 27.334 11.5 47.001s2.66699 42.334 2 68.001s-1.33398 52.834 -2.00098 81.501c-0.666992 18.667 0.833008 35.167 4.5 49.5s8.83398 26.833 15.501 37.5s14.167 19.5 22.5 26.5s16.833 12.5 25.5 16.5c20.667 10 44.334 15 71.001 15c34 2 61.5 -2.66699 82.5 -14
s37.5 -24 49.5 -38c13.333 -17.333 23.333 -36.666 30 -57.999c11.333 -50.667 17.166 -99.5 17.499 -146.5s-1.83398 -88.833 -6.50098 -125.5c-5.33301 -42.667 -13 -83 -23 -121c-14 -40.667 -34.667 -77 -62 -109c-12 -13.333 -25.833 -26.5 -41.5 -39.5
s-34 -24.5 -55 -34.5s-44.667 -18 -71 -24s-55.5 -9 -87.5 -9c-27.333 0 -52.166 2.16699 -74.499 6.5s-42.833 9.83301 -61.5 16.5s-35.334 14.334 -50.001 23.001s-27.667 17.334 -39 26.001c-26.667 20.667 -47.667 44 -63 70c-12.667 21.333 -23 43.833 -31 67.5
s-14.5 47.667 -19.5 72s-8.66699 48.333 -11 72s-3.5 46.5 -3.5 68.5c-0.666992 51.333 2.66602 102 9.99902 152c8 42 21 73.5 39 94.5s36.333 35.833 55 44.5c22 10 45.667 14.333 71 13z" />
    <glyph glyph-name="V" unicode="V" horiz-adv-x="806" 
d="M419 424c8.66699 62 23.6631 116.336 44.9961 163.003c8.66699 20 19.334 38.833 32.001 56.5s27.5 32.834 44.5 45.501s36.167 21.667 57.5 27s45.666 5 72.999 -1c26 -6 46.833 -15.833 62.5 -29.5s27.5 -29.834 35.5 -48.501s12.833 -39.167 14.5 -61.5
s1.5 -44.5 -0.5 -66.5c-4.66699 -52 -18.667 -109.333 -42 -172c-23.333 -64 -51 -121 -83 -171c-13.333 -21.333 -28.5 -42.333 -45.5 -63s-35.5 -39 -55.5 -55s-41.5 -28.833 -64.5 -38.5s-47.5 -14.5 -73.5 -14.5c-37.333 0 -71.333 7.16699 -102 21.5
s-58.334 33.166 -83.001 56.499s-46.334 49.333 -65.001 78s-35 57.167 -49 85.5s-25.667 55.166 -35 80.499s-16.666 46.333 -21.999 63c-5.33301 16 -11.166 34.667 -17.499 56s-11 43.333 -14 66s-3.66699 45.334 -2 68.001s7.33398 43.667 17.001 63
s24.334 36 44.001 50s45.834 24 78.501 30c24.667 4 47.167 3.16699 67.5 -2.5s38.833 -14.834 55.5 -27.501s31.334 -27.834 44.001 -45.501s23.667 -36.167 33 -55.5c22 -45.333 38.667 -98 50 -158z" />
    <glyph glyph-name="W" unicode="W" horiz-adv-x="1012" 
d="M513 208c-5.33301 -40.667 -16 -77 -32 -109c-6.66699 -14 -14.834 -27.5 -24.501 -40.5s-21 -24.5 -34 -34.5s-28.167 -18.167 -45.5 -24.5s-37 -9.5 -59 -9.5c-34 0 -63.5 7.83301 -88.5 23.5s-45.833 33.167 -62.5 52.5c-19.333 22 -36 47.667 -50 77
c-18.667 41.333 -32.834 83 -42.501 125s-16.834 80 -21.501 114c-5.33301 40 -8.33301 78.333 -9 115c-1.33301 27.333 -0.166016 51.333 3.50098 72s9 38.667 16 54s15.167 28.166 24.5 38.499s19 18.833 29 25.5c23.333 16 50.333 25 81 27
c26.667 0 50.167 -4.66699 70.5 -14s37.833 -21.666 52.5 -36.999s27 -32.833 37 -52.5s18 -39.5 24 -59.5c14.667 -47.333 22.334 -101.333 23.001 -162c-1.33301 40 3.16699 70.167 13.5 90.5s22.166 35.166 35.499 44.499c15.333 10.667 33 16 53 16
c14.667 0 27.5 -2.33301 38.5 -7s20.5 -10.5 28.5 -17.5s14.833 -15 20.5 -24s10.167 -18.167 13.5 -27.5c7.33301 -22 11.333 -47 12 -75c0 40.667 2.5 76.334 7.5 107.001s11.667 57.5 20 80.5s17.833 42.333 28.5 58s21.667 28.5 33 38.5c26.667 24 56.667 37.667 90 41
c22.667 0 42.667 -3 60 -9s32.333 -14 45 -24s23.334 -21.333 32.001 -34s15.667 -26 21 -40c12.667 -32 19.667 -68.667 21 -110c0 -54.667 -3.66699 -104 -11 -148s-15.666 -82 -24.999 -114c-10.667 -36.667 -22.667 -69.667 -36 -99
c-8.66699 -19.333 -18.167 -36 -28.5 -50s-21.166 -26.167 -32.499 -36.5s-22.833 -19 -34.5 -26s-22.834 -12.5 -33.501 -16.5c-25.333 -10 -51.333 -15 -78 -15c-24 0 -45 3.16699 -63 9.5s-33.667 14.5 -47 24.5s-24.5 21.5 -33.5 34.5s-16.167 26.167 -21.5 39.5
c-13.333 32 -20.333 68 -21 108z" />
    <glyph glyph-name="X" unicode="X" horiz-adv-x="833" 
d="M402 539c24 53.333 51.6709 96.0039 83.0039 128.004c13.333 13.333 28 25.166 44 35.499s33.167 16.833 51.5 19.5s37.833 0.833984 58.5 -5.49902s42.334 -19.5 65.001 -39.5c18 -16 31 -32.833 39 -50.5s12.167 -35.667 12.5 -54s-2.33398 -36.5 -8.00098 -54.5
s-12.834 -35 -21.501 -51c-20.667 -38 -50 -76 -88 -114c40.667 -32.667 72 -66.667 94 -102c9.33301 -15.333 17 -31.5 23 -48.5s8.66699 -34.667 8 -53s-5.16699 -37.166 -13.5 -56.499s-22.5 -38.333 -42.5 -57c-26.667 -25.333 -52.5 -40.5 -77.5 -45.5
s-48.833 -3.66699 -71.5 4s-43.667 20 -63 37s-36.333 34.667 -51 53s-26.667 35.666 -36 51.999s-15.333 28.166 -18 35.499c-24.667 -54.667 -52.334 -98 -83.001 -130c-13.333 -14 -27.666 -26 -42.999 -36s-32 -16.333 -50 -19s-37 -0.5 -57 6.5s-41 20.833 -63 41.5
c-20.667 19.333 -35.334 38.833 -44.001 58.5s-13.334 39 -14.001 58s2.16602 37.333 8.49902 55s14.5 34.167 24.5 49.5c22.667 36.667 55.667 71.667 99 105c-49.333 32.667 -87 67 -113 103c-11.333 15.333 -20.5 31.666 -27.5 48.999s-10.167 35.333 -9.5 54
s6.16699 37.5 16.5 56.5s27.5 38.167 51.5 57.5c22 17.333 43.333 28.666 64 33.999s40.5 6.16602 59.5 2.49902s37 -10.5 54 -20.5s32.5 -21.667 46.5 -35c33.333 -31.333 64 -72.333 92 -123z" />
    <glyph glyph-name="Y" unicode="Y" horiz-adv-x="792" 
d="M415 547c14 50.667 31.8281 88.501 53.4951 113.501s43.167 42.167 64.5 51.5c24.667 11.333 50.334 15.333 77.001 12c21.333 -2.66699 39.5 -7.33398 54.5 -14.001s27.5 -14.5 37.5 -23.5s17.833 -18.833 23.5 -29.5s10.167 -21.334 13.5 -32.001
c6.66699 -25.333 7.33398 -53.333 2.00098 -84c-8.66699 -36.667 -23 -68.5 -43 -95.5s-40.333 -49.167 -61 -66.5c-24 -20.667 -50 -38 -78 -52c13.333 -42 19.333 -79.667 18 -113s-5 -61.666 -11 -84.999c-7.33301 -27.333 -17.666 -51.666 -30.999 -72.999
c-15.333 -21.333 -32.666 -36.5 -51.999 -45.5s-42 -13.5 -68 -13.5c-21.333 0 -39.833 2.33301 -55.5 7s-28.5 10 -38.5 16c-12 6.66699 -22 14.334 -30 23.001c-10.667 12 -19.5 25 -26.5 39s-12.5 28.667 -16.5 44s-6.66699 30.833 -8 46.5s-2 30.5 -2 44.5
c0 33.333 3.66699 67.666 11 102.999c-34 14.667 -65 33 -93 55c-12 9.33301 -23.833 19.833 -35.5 31.5s-22.5 24.5 -32.5 38.5s-18.5 29.167 -25.5 45.5s-11.833 33.833 -14.5 52.5c-3.33301 22 -3.66602 41.5 -0.999023 58.5s7 32 13 45s13.167 24.167 21.5 33.5
s17.166 17 26.499 23c22 14.667 47.667 24 77 28c22 1.33301 42.333 -0.333984 61 -5.00098s35.5 -11.167 50.5 -19.5s28.333 -18 40 -29s21.834 -22.5 30.501 -34.5c20.667 -27.333 36.667 -59.333 48 -96z" />
    <glyph glyph-name="Z" unicode="Z" horiz-adv-x="727" 
d="M244 392c-38.667 -1.33301 -73.334 2.99512 -104.001 12.9951c-13.333 4 -26.166 9.5 -38.499 16.5s-23.333 15.833 -33 26.5s-17.5 23.667 -23.5 39s-9 33.333 -9 54c0 30.667 11 58 33 82c9.33301 10 21.333 19.833 36 29.5s33.167 18.334 55.5 26.001
s48.833 13.5 79.5 17.5s66.667 5.66699 108 5c54.667 -1.33301 100.167 -5.16602 136.5 -11.499s65 -15.666 86 -27.999s35.167 -27.666 42.5 -45.999s9.33301 -39.5 6 -63.5c-6 -26.667 -16 -54.334 -30 -83.001c-12 -25.333 -28.833 -53.5 -50.5 -84.5
s-50.5 -62.833 -86.5 -95.5c44.667 4.66699 85 3.33398 121 -3.99902c15.333 -3.33301 30.333 -8 45 -14s27.667 -14.333 39 -25s20.5 -23.667 27.5 -39s10.5 -33.666 10.5 -54.999c0 -42.667 -9.66699 -75.667 -29 -99s-44.166 -40.333 -74.499 -51
s-64 -16.834 -101 -18.501s-72.833 -2.5 -107.5 -2.5s-68.667 0.333008 -102 1s-64 4.33398 -92 11.001s-52.333 17.5 -73 32.5s-36 37.167 -46 66.5c-6.66699 19.333 -9.33398 38.5 -8.00098 57.5s5.5 37.333 12.5 55s16 34.5 27 50.5s22.833 31 35.5 45
c29.333 32 65 62.667 107 92z" />
    <glyph glyph-name="bracketleft" unicode="[" horiz-adv-x="617" 
d="M500 22c23.333 -2 40.8379 -6.83105 52.5049 -14.498s20.167 -15.834 25.5 -24.501c6 -10 8.66699 -21.333 8 -34c0 -12.667 -3 -25 -9 -37c-5.33301 -10 -13.833 -19.833 -25.5 -29.5s-29.167 -16.834 -52.5 -21.501c-60.667 -11.333 -114.667 -16.166 -162 -14.499
s-85 5.5 -113 11.5c-19.333 4 -36.166 10.167 -50.499 18.5s-26.833 18 -37.5 29s-19.834 22.833 -27.501 35.5s-13.834 25.334 -18.501 38.001c-12 29.333 -19 61.333 -21 96c-2 14.667 -3.66699 34.5 -5 59.5s-2.33301 52.833 -3 83.5s-1 63 -1 97v101
c0.666992 78 2 161.333 4 250c-1.33301 14 -1 28.333 1 43c1.33301 12.667 4.33301 26.667 9 42s12 30.666 22 45.999c2 4.66699 6 10 12 16s13 11.833 21 17.5s16.333 11 25 16s16.667 8.5 24 10.5c21.333 6.66699 46.166 12 74.499 16s57.833 6.5 88.5 7.5s61 0.5 91 -1.5
s57.667 -5.66699 83 -11c21.333 -4.66699 37.5 -11 48.5 -19s18.833 -15.667 23.5 -23c5.33301 -8.66699 7.66602 -18 6.99902 -28c0 -11.333 -3 -21.666 -9 -30.999c-5.33301 -8.66699 -13.666 -17 -24.999 -25s-28.333 -13.667 -51 -17s-51 -6 -85 -8s-66.333 -4 -97 -6
c1.33301 -7.33301 2.16602 -15.833 2.49902 -25.5s1.16602 -19.167 2.49902 -28.5c2 -30.667 3.5 -66 4.5 -106s1.5 -81.333 1.5 -124s-0.5 -85.5 -1.5 -128.5s-2 -82.833 -3 -119.5s-2.16699 -68.834 -3.5 -96.501s-2.33301 -47.834 -3 -60.501
c14.667 1.33301 30.667 2.16602 48 2.49902s34 0.333008 50 0s30.667 -0.666016 44 -0.999023s23.666 -0.833008 30.999 -1.5z" />
    <glyph glyph-name="backslash" unicode="\" horiz-adv-x="495" 
d="M374 -33c-12 -3.33301 -23.668 -3.66895 -35.001 -1.00195c-10 2 -20.333 6.66699 -31 14s-20.334 20 -29.001 38c-32.667 72 -62.667 146 -90 222c-12 32 -24 66 -36 102s-23.5 72.5 -34.5 109.5s-21 74 -30 111s-16.167 72.833 -21.5 107.5
c-4 24 -3.66699 42.833 1 56.5s10.667 23.834 18 30.501c8 7.33301 18.333 12 31 14c14.667 4 28.667 4.66699 42 2c11.333 -2.66699 23.5 -8.5 36.5 -17.5s24.167 -24.5 33.5 -46.5c8 -18.667 18 -44.334 30 -77.001l39 -109l42.5 -126c14.333 -44 27.5 -87 39.5 -129
s22.333 -81 31 -117s14.334 -65.667 17.001 -89c2 -21.333 0.333008 -38.166 -5 -50.499s-11.666 -21.833 -18.999 -28.5c-8.66699 -7.33301 -18.667 -12.666 -30 -15.999z" />
    <glyph glyph-name="bracketright" unicode="]" horiz-adv-x="582" 
d="M105 720c-23.333 1.33301 -40.8359 6.00098 -52.5029 14.001s-20.167 16.333 -25.5 25c-6 10 -8.66699 21.333 -8 34c0 12.667 3 25 9 37c5.33301 10 13.833 19.833 25.5 29.5s29.167 16.834 52.5 21.501c60.667 11.333 114.667 16.166 162 14.499s85 -5.5 113 -11.5
c18.667 -4 35.167 -10.333 49.5 -19s27 -18.5 38 -29.5s20.167 -22.667 27.5 -35s13.666 -24.833 18.999 -37.5c12 -29.333 19 -61.333 21 -96c2 -15.333 3.66699 -35.5 5 -60.5s2.33301 -52.667 3 -83s1 -62.5 1 -96.5v-101c-0.666992 -78 -2 -161.333 -4 -250
c1.33301 -14 1 -28.333 -1 -43c-1.33301 -12.667 -4.5 -26.834 -9.5 -42.501s-12.167 -30.834 -21.5 -45.501c-2 -4.66699 -6 -10 -12 -16s-13 -11.833 -21 -17.5s-16.333 -11 -25 -16s-16.667 -8.5 -24 -10.5c-21.333 -6.66699 -46.166 -12 -74.499 -16
s-57.833 -6.5 -88.5 -7.5s-61.167 -0.5 -91.5 1.5s-57.833 5.66699 -82.5 11c-21.333 4.66699 -37.5 11 -48.5 19s-18.833 15.667 -23.5 23c-5.33301 8.66699 -7.66602 18 -6.99902 28c0 10.667 3 21 9 31c5.33301 8 13.666 16.167 24.999 24.5s28.333 14.166 51 17.499
s51 6 85 8s66.333 4 97 6c-1.33301 7.33301 -2.16602 15.833 -2.49902 25.5s-1.16602 19.167 -2.49902 28.5c-2 30.667 -3.5 66 -4.5 106s-1.5 81.333 -1.5 124s0.5 85.5 1.5 128.5s2 82.833 3 119.5s2.16699 68.834 3.5 96.501s2.33301 47.834 3 60.501
c-15.333 -1.33301 -31.5 -2.16602 -48.5 -2.49902s-33.5 -0.333008 -49.5 0s-30.667 0.666016 -44 0.999023s-23.666 0.833008 -30.999 1.5z" />
    <glyph glyph-name="asciicircum" unicode="^" horiz-adv-x="635" 
d="M57 545c0.666992 0.666992 4.5 6.33301 11.5 17s16.5 23.667 28.5 39s26 32 42 50s33.5 34.667 52.5 50s38.833 28 59.5 38s42 15 64 15c21.333 0 42.333 -5 63 -15s40.667 -22.667 60 -38s37.333 -32 54 -50s31.167 -34.667 43.5 -50s22 -28.333 29 -39
s10.833 -16.334 11.5 -17.001c8 -11.333 13 -24.166 15 -38.499s1.5 -28.833 -1.5 -43.5s-8.66699 -28.5 -17 -41.5s-19.166 -23.833 -32.499 -32.5c-28.667 -18 -56 -23.167 -82 -15.5s-48 23.834 -66 48.501l-20 24c-6.66699 7.33301 -14.667 15.666 -24 24.999l-31 31
c-14.667 -14.667 -27.834 -28.5 -39.501 -41.5l-30.5 -34.5c-10 -12 -19.333 -22.667 -28 -32c-12 -12.667 -25.667 -21.667 -41 -27c-13.333 -4.66699 -29 -6 -47 -4s-37.667 12.333 -59 31c-10 8.66699 -18 19.5 -24 32.5s-9.66699 26.5 -11 40.5s-0.333008 28 3 42
s9 26 17 36z" />
    <glyph glyph-name="underscore" unicode="_" horiz-adv-x="686" 
d="M557 148c23.333 -2.66699 41.168 -8.16895 53.501 -16.502s21.166 -17.166 26.499 -26.499c6.66699 -11.333 10 -23.333 10 -36c0.666992 -13.333 -1.33301 -26 -6 -38c-4 -10 -10.833 -19.667 -20.5 -29s-24.5 -15.666 -44.5 -18.999
c-25.333 -4 -55.333 -7.16699 -90 -9.5s-71.167 -3.83301 -109.5 -4.5s-77 -0.333984 -116 0.999023s-74.833 3.33301 -107.5 6c-23.333 2 -41.333 7.33301 -54 16s-21.667 17.667 -27 27c-6.66699 11.333 -10.334 23.666 -11.001 36.999
c-1.33301 14.667 1.33398 28 8.00098 40c5.33301 10.667 14.5 21 27.5 31s32.833 17 59.5 21c48 6.66699 95.833 10.334 143.5 11.001s90.5 0.333984 128.5 -0.999023c44.667 -2 87.667 -5.33301 129 -10z" />
    <glyph glyph-name="grave" unicode="`" horiz-adv-x="376" 
d="M182 768c10.667 -3.33301 22.5 -8.5 35.5 -15.5s25.5 -14.667 37.5 -23s23.167 -17 33.5 -26s18.166 -16.833 23.499 -23.5c6 -8 10.667 -16 14 -24c3.33301 -7.33301 5.5 -15.666 6.5 -24.999s-1.16699 -19 -6.5 -29c-5.33301 -11.333 -12.333 -19 -21 -23
s-17.334 -6.66699 -26.001 -8c-10 -1.33301 -20.333 -0.666016 -31 2.00098c-20.667 3.33301 -41 8 -61 14c-17.333 5.33301 -35.166 11.833 -53.499 19.5s-34.5 17.834 -48.5 30.501c-12.667 10.667 -21 21.5 -25 32.5s-5.5 21.5 -4.5 31.5s3.83301 19.333 8.5 28
s9.66699 15.667 15 21c4.66699 4.66699 10 9.16699 16 13.5s12.833 7.66602 20.5 9.99902s16.834 3.16602 27.501 2.49902s23.667 -3.33398 39 -8.00098z" />
    <glyph glyph-name="a" unicode="a" horiz-adv-x="704" 
d="M419 435c5.33301 16 13.0039 30.001 23.0039 42.001c8.66699 10.667 20.167 20.5 34.5 29.5s33.166 13.5 56.499 13.5c18.667 0 35 -3.66699 49 -11s26.333 -17 37 -29s19.667 -25.667 27 -41s13.333 -31 18 -47c11.333 -37.333 17.666 -79.666 18.999 -126.999
c2 -38 1.33301 -71.167 -2 -99.5s-8.16602 -52.666 -14.499 -72.999s-13.833 -37.333 -22.5 -51s-17.667 -24.5 -27 -32.5c-22 -19.333 -47.667 -28.333 -77 -27c-18 -0.666992 -35 2.33301 -51 9c-13.333 5.33301 -26.333 14.5 -39 27.5s-20.667 32.167 -24 57.5
c-6.66699 -20 -18.667 -37 -36 -51c-14.667 -12 -35.334 -22.333 -62.001 -31s-62 -10.334 -106 -5.00098c-36 4 -68 14.667 -96 32c-12 7.33301 -23.833 16.666 -35.5 27.999s-22 25.333 -31 42s-16.167 36 -21.5 58s-8 47.333 -8 76c-1.33301 50 5 95.333 19 136
c6 17.333 14 34.5 24 51.5s22.667 32.5 38 46.5s33.666 25.833 54.999 35.5s46.666 15.834 75.999 18.501c37.333 3.33301 67.333 1.16602 90 -6.50098s40.667 -16.834 54 -27.501c15.333 -12 26.333 -26.667 33 -44zM375.004 278.001
c-11.333 0 -21.165 -4.33301 -29.498 -13s-11.833 -18.334 -10.5 -29.001c1.33301 -14 5.5 -23.667 12.5 -29s16.167 -8 27.5 -8s20.666 3.33301 27.999 10s11 15.667 11 27c0 10.667 -3.33301 20.334 -10 29.001s-16.334 13 -29.001 13z" />
    <glyph glyph-name="b" unicode="b" horiz-adv-x="680" 
d="M201 765c21.333 -2 39.332 -7.5 53.999 -16.5s26.667 -20.333 36 -34s16.333 -28.834 21 -45.501s7.66699 -33.334 9 -50.001c3.33301 -40 0.333008 -84.667 -9 -134c30.667 12.667 62 19.334 94 20.001c13.333 0 27.666 -1 42.999 -3s30.833 -6.16699 46.5 -12.5
s31.334 -14.833 47.001 -25.5s31.167 -24.334 46.5 -41.001c14 -16 25.167 -35.833 33.5 -59.5s13.5 -48.167 15.5 -73.5s1.16699 -50.833 -2.5 -76.5s-10.167 -48.5 -19.5 -68.5c-11.333 -24.667 -24 -45 -38 -61s-27.333 -28.667 -40 -38
c-14.667 -11.333 -29.334 -20 -44.001 -26c-38 -17.333 -76.833 -27.333 -116.5 -30s-77.334 0.333008 -113.001 9s-68.167 21.834 -97.5 39.501s-53 38.167 -71 61.5c-15.333 19.333 -27.666 41.333 -36.999 66s-16.666 50.667 -21.999 78s-8.83301 55.166 -10.5 83.499
s-2.5 55.833 -2.5 82.5c0.666992 62 6.33398 126.667 17.001 194c5.33301 32 14.666 60.333 27.999 85c6 10.667 13 20.834 21 30.501s17.333 18.167 28 25.5s22.834 12.833 36.501 16.5s29.167 4.83398 46.5 3.50098zM336.999 289c-11.333 0 -21.165 -4.33301 -29.498 -13
s-11.833 -18.334 -10.5 -29.001c1.33301 -14 5.5 -23.667 12.5 -29s16.167 -8 27.5 -8s20.666 3.33301 27.999 10s11 15.667 11 27c0 10.667 -3.33301 20.334 -10 29.001s-16.334 13 -29.001 13z" />
    <glyph glyph-name="c" unicode="c" horiz-adv-x="570" 
d="M384 285c-13.333 4 -25.0059 5.66602 -35.0059 4.99902c-9.33301 -0.666992 -17.5 -3.33398 -24.5 -8.00098s-10.5 -13.334 -10.5 -26.001c0.666992 -9.33301 3.66699 -16.666 9 -21.999c4.66699 -4.66699 11.667 -7.83398 21 -9.50098s23 1.16602 41 8.49902
c19.333 7.33301 38.333 11 57 11c16 -0.666992 33 -5 51 -13s34.333 -23.667 49 -47c8 -17.333 12 -34.666 12 -51.999c0 -15.333 -4 -32.333 -12 -51s-24.667 -37 -50 -55c-26.667 -18 -56.667 -31 -90 -39c-28.667 -7.33301 -63 -10.166 -103 -8.49902
s-84.333 13.5 -133 35.5c-24 12 -45.333 29 -64 51c-16 18.667 -30.667 43.5 -44 74.5s-20 69.5 -20 115.5c0.666992 38.667 7.33398 75 20.001 109c5.33301 14.667 12.333 29.334 21 44.001s19.334 28.834 32.001 42.501s27.834 26 45.501 37s38.167 20.167 61.5 27.5
c32.667 9.33301 66 14.333 100 15c28.667 0.666992 59.834 -3.33301 93.501 -12s65.167 -26.334 94.5 -53.001c8.66699 -8.66699 15.667 -19 21 -31c4.66699 -10.667 7.83398 -23.667 9.50098 -39s-1.16602 -32.666 -8.49902 -51.999
c-6.66699 -14.667 -16.334 -27 -29.001 -37c-11.333 -8.66699 -26.166 -15.667 -44.499 -21s-41.833 -5.33301 -70.5 0z" />
    <glyph glyph-name="d" unicode="d" horiz-adv-x="754" 
d="M689 30c-17.333 -18 -35.8379 -28.5 -55.5049 -31.5s-38.167 -2.66699 -55.5 1s-31.666 8.5 -42.999 14.5l-17 9c-26 -13.333 -54.667 -23.666 -86 -30.999s-63.166 -11.666 -95.499 -12.999s-63.833 0.666992 -94.5 6s-58 14.333 -82 27c-16 9.33301 -31 20.333 -45 33
c-12 11.333 -24.167 25.166 -36.5 41.499s-21.166 35.833 -26.499 58.5c-5.33301 20.667 -8.83301 43.5 -10.5 68.5s-0.5 50.5 3.5 76.5s11.333 51.167 22 75.5s26 45.833 46 64.5c30.667 28.667 62.834 47.667 96.501 57s64.834 14 93.501 14
c33.333 -0.666992 66 -5.66699 98 -15c-7.33301 50 -8.33301 94.667 -3 134c2 16.667 5.66699 33.167 11 49.5s12.833 30.833 22.5 43.5s22 22.834 37 30.501s33.167 11.5 54.5 11.5c18.667 0 35.334 -2.66699 50.001 -8s27.667 -12.333 39 -21s21.166 -18.5 29.499 -29.5
s15.166 -22.167 20.499 -33.5c12.667 -26.667 21 -57.334 25 -92.001c4 -36.667 6 -74.667 6 -114c0 -34 -2.16699 -71.833 -6.5 -113.5s-12.166 -83.5 -23.499 -125.5c19.333 -9.33301 33.833 -22 43.5 -38s15.167 -33 16.5 -51s-1 -35.833 -7 -53.5
s-15 -32.834 -27 -45.501zM395.995 278c-11.333 0 -21.165 -4.33301 -29.498 -13s-11.833 -18.334 -10.5 -29.001c1.33301 -14 5.5 -23.667 12.5 -29s16.167 -8 27.5 -8s20.666 3.33301 27.999 10s11 15.667 11 27c0 10.667 -3.33301 20.334 -10 29.001
s-16.334 13 -29.001 13z" />
    <glyph glyph-name="e" unicode="e" horiz-adv-x="585" 
d="M359 207c19.333 -15.333 39.668 -24.8271 61.001 -28.4941s41.166 -6.83398 59.499 -9.50098s34 -7.66699 47 -15s21.167 -22.666 24.5 -45.999c0.666992 -13.333 -1 -26.333 -5 -39c-4 -11.333 -10.833 -22.833 -20.5 -34.5s-24.834 -21.5 -45.501 -29.5
c-29.333 -9.33301 -61 -15.333 -95 -18c-29.333 -2.66699 -62.666 -2.16699 -99.999 1.5s-76.333 13.834 -117 30.501c-26.667 12 -50.334 29 -71.001 51c-8.66699 9.33301 -17.167 20.166 -25.5 32.499s-15.666 26.333 -21.999 42s-11.333 33.167 -15 52.5
s-4.83398 40.666 -3.50098 63.999c2 36 9 70.333 21 103c5.33301 14 12 28.167 20 42.5s17.833 28.166 29.5 41.499s25.334 25.666 41.001 36.999s33.834 20.666 54.501 27.999c34 10 68.667 15.333 104 16c14.667 0 30.5 -0.833008 47.5 -2.5s34 -5 51 -10
s34.167 -12.167 51.5 -21.5s34 -21 50 -35c10.667 -10.667 20 -22.667 28 -36c7.33301 -12 13.666 -26.5 18.999 -43.5s8.33301 -37.167 9 -60.5c0 -26 -5.83301 -47.333 -17.5 -64s-27 -29.334 -46 -38.001s-40.333 -13.834 -64 -15.501s-47.167 -0.166992 -70.5 4.5z
M333.002 334.006c-11.333 0 -21.165 -4.33301 -29.498 -13s-11.833 -18.334 -10.5 -29.001c1.33301 -14 5.5 -23.667 12.5 -29s16.167 -8 27.5 -8s20.666 3.33301 27.999 10s11 15.667 11 27c0 10.667 -3.33301 20.334 -10 29.001s-16.334 13 -29.001 13z" />
    <glyph glyph-name="f" unicode="f" horiz-adv-x="641" 
d="M455 513c26.667 7.33301 50.6611 10.333 71.9941 9c18 -1.33301 34.667 -7.16602 50 -17.499s23.666 -29.166 24.999 -56.499c0.666992 -27.333 -5.33301 -47 -18 -59s-27 -20 -43 -24c-18.667 -4.66699 -40 -5.33398 -64 -2.00098
c9.33301 -69.333 11.333 -131.666 6 -186.999c-2 -23.333 -6 -46.333 -12 -69s-14.5 -43 -25.5 -61s-25 -32.667 -42 -44s-37.833 -17.333 -62.5 -18c-43.333 -2 -76.5 5.5 -99.5 22.5s-39.667 42.167 -50 75.5s-16.166 73.666 -17.499 120.999s-1.33301 100.666 0 159.999
c-25.333 -7.33301 -48 -9.66602 -68 -6.99902c-8.66699 0.666992 -17.167 2.66699 -25.5 6s-16 8 -23 14s-12.667 13.833 -17 23.5s-6.83301 21.834 -7.5 36.501c-0.666992 20 3.83301 36 13.5 48s21.834 20.667 36.501 26s30.334 8.16602 47.001 8.49902
s31.334 -0.833984 44.001 -3.50098c-1.33301 18.667 -0.666016 38 2.00098 58c2.66699 17.333 7.83398 36.666 15.501 57.999s19.834 42.666 36.501 63.999c18 21.333 40.333 38.333 67 51c23.333 11.333 52.833 19 88.5 23s79.167 -0.666992 130.5 -14
c14.667 -5.33301 28 -12 40 -20c10 -7.33301 18.667 -16.833 26 -28.5s10 -26.167 8 -43.5c-0.666992 -12 -3.66699 -22.667 -9 -32c-4.66699 -8 -11.5 -15.167 -20.5 -21.5s-21.833 -9.16602 -38.5 -8.49902c-9.33301 0 -17.666 -1.33301 -24.999 -4
c-6.66699 -2 -13.334 -5.33301 -20.001 -10s-11.667 -11.667 -15 -21c-1.33301 -3.33301 -2.33301 -7.66602 -3 -12.999c-2 -10 -2.66699 -23.333 -2 -40z" />
    <glyph glyph-name="g" unicode="g" horiz-adv-x="680" 
d="M223 -266c-16.667 6 -30.4941 12.6699 -41.4941 20.0029s-19.833 15 -26.5 23s-11.667 16.167 -15 24.5s-5.33301 16.5 -6 24.5c-2 18 1.66699 36.667 11 56c7.33301 16 17.666 27.5 30.999 34.5s26.666 11.833 39.999 14.5c15.333 2.66699 31.666 3 48.999 1
c30 1.33301 52.5 6 67.5 14s25.833 16.667 32.5 26c7.33301 10.667 11 22.667 11 36c-33.333 -7.33301 -66 -10.333 -98 -9c-28 1.33301 -57.167 6.66602 -87.5 15.999s-57.5 26.666 -81.5 51.999c-14.667 15.333 -26.834 33.833 -36.501 55.5s-16.667 44.334 -21 68.001
s-5.83301 47.5 -4.5 71.5s5.66602 46.333 12.999 67c9.33301 25.333 20 46.833 32 64.5s23.667 32.167 35 43.5c12.667 13.333 26 24.666 40 33.999c32.667 19.333 67.667 32 105 38s74 6.5 110 1.5s69.833 -14.667 101.5 -29s58.5 -31.833 80.5 -52.5
c18.667 -18 34.334 -37.833 47.001 -59.5s22.834 -44.5 30.501 -68.5s13.167 -48.167 16.5 -72.5s5.66602 -47.833 6.99902 -70.5c2 -53.333 -2 -108 -12 -164c-8 -45.333 -20.333 -83.833 -37 -115.5s-35.834 -57.834 -57.501 -78.501s-45 -36.667 -70 -48
s-49.833 -19.333 -74.5 -24c-58.667 -12 -122.334 -10 -191.001 6zM363.006 259.003c-11.333 0 -21.165 -4.33301 -29.498 -13s-11.833 -18.334 -10.5 -29.001c1.33301 -14 5.5 -23.667 12.5 -29s16.167 -8 27.5 -8s20.666 3.33301 27.999 10s11 15.667 11 27
c0 10.667 -3.33301 20.334 -10 29.001s-16.334 13 -29.001 13z" />
    <glyph glyph-name="h" unicode="h" horiz-adv-x="731" 
d="M696 230c1.33301 -39.333 -2.33008 -74.9893 -10.9971 -106.989c-4 -14 -9.16699 -27.833 -15.5 -41.5s-14.833 -26.334 -25.5 -38.001s-23.167 -21.834 -37.5 -30.501s-31.5 -14.667 -51.5 -18l-12 -1c-8 -0.666992 -18.167 -0.333984 -30.5 0.999023
s-25.666 4.16602 -39.999 8.49902s-27.833 11.666 -40.5 21.999s-23.5 24.166 -32.5 41.499s-14.167 39.333 -15.5 66c-2.66699 26 -5.33398 49.333 -8.00098 70c-3.33301 17.333 -7 33.5 -11 48.5s-9.33301 22.5 -16 22.5c2 -24.667 3.16699 -46 3.5 -64
s0.166016 -33.333 -0.500977 -46c-0.666992 -14.667 -1.33398 -27.334 -2.00098 -38.001c-3.33301 -25.333 -11 -47.666 -23 -66.999c-10 -17.333 -24.833 -32.833 -44.5 -46.5s-46.834 -20.5 -81.501 -20.5s-62 7.16699 -82 21.5s-35.333 30.166 -46 47.499
c-12 20.667 -20 44 -24 70c-5.33301 40 -9.33301 84.333 -12 133c-2 42 -2.5 91.167 -1.5 147.5s5.5 118.166 13.5 185.499c2.66699 30 10 56.667 22 80c4.66699 10 10.667 19.667 18 29s16.333 17.666 27 24.999s23 13.166 37 17.499s30 6.5 48 6.5
c30.667 -0.666992 56.667 -7.66699 78 -21s38.5 -32.333 51.5 -57s22.167 -54.334 27.5 -89.001s7 -73.667 5 -117c57.333 28 109.333 39.333 156 34c20 -2 39.833 -8 59.5 -18s37.5 -25.5 53.5 -46.5s29.667 -48.5 41 -82.5s19 -76.667 23 -128z" />
    <glyph glyph-name="i" unicode="i" horiz-adv-x="389" 
d="M304 663c1.33301 -14.667 -0.5 -28.998 -5.5 -42.998s-12.333 -26.5 -22 -37.5s-21.5 -20 -35.5 -27s-29.333 -11.5 -46 -13.5c-17.333 -2 -33.5 -0.833008 -48.5 3.5s-28.5 10.833 -40.5 19.5s-21.833 19.167 -29.5 31.5s-12.5 26.166 -14.5 41.499
c-1.33301 14.667 0.5 28.834 5.5 42.501s12.5 26 22.5 37s22 20.167 36 27.5s29.333 12 46 14s32.5 0.833008 47.5 -3.5s28.5 -10.833 40.5 -19.5s22 -19.334 30 -32.001s12.667 -26.334 14 -41.001zM347 101.002c-5.33301 -30 -15.6689 -52.835 -31.002 -68.502
s-31 -27.167 -47 -34.5c-19.333 -8 -40 -12.333 -62 -13c-28.667 -1.33301 -52 2.5 -70 11.5s-32.333 19.167 -43 30.5c-12 12.667 -21.667 27.667 -29 45c-13.333 36 -21.166 73.167 -23.499 111.5s-1.83301 73.5 1.5 105.5c3.33301 36.667 9.33301 72.667 18 108
c8 30.667 19.833 53.834 35.5 69.501s31.167 27.167 46.5 34.5c18 8 37 12.333 57 13c30.667 1.33301 55.5 -3.83398 74.5 -15.501s34.167 -25.167 45.5 -40.5c12.667 -17.333 22 -38 28 -62c4.66699 -22 8.33398 -47.667 11.001 -77c2 -25.333 2.5 -56.166 1.5 -92.499
s-5.5 -78.166 -13.5 -125.499z" />
    <glyph glyph-name="j" unicode="j" horiz-adv-x="514" 
d="M437 646c-0.666992 -15.333 -4.83398 -29.666 -12.501 -42.999s-17.5 -24.833 -29.5 -34.5s-26 -17.167 -42 -22.5s-33 -7.66602 -51 -6.99902s-34.667 4.5 -50 11.5s-28.666 15.833 -39.999 26.5s-20 23 -26 37s-8.66699 29 -8 45
c0.666992 15.333 4.83398 29.666 12.501 42.999s17.667 24.833 30 34.5s26.333 17 42 22s32.5 7.16699 50.5 6.5s34.667 -4.33398 50 -11.001s28.666 -15.5 39.999 -26.5s20 -23.5 26 -37.5s8.66699 -28.667 8 -44zM456 -69c10 62.667 16.001 121.5 18.001 176.5
s2 103.5 0 145.5c-2.66699 48.667 -6.66699 93.667 -12 135c-2 22.667 -9 42.667 -21 60c-10 15.333 -25.667 29.333 -47 42s-51 19 -89 19c-25.333 -0.666992 -48 -5 -68 -13c-17.333 -7.33301 -33.5 -19 -48.5 -35s-23.167 -39.667 -24.5 -71
c-2.66699 -56 -4.5 -103.5 -5.5 -142.5s-1.5 -72.167 -1.5 -99.5v-69.5c0 -19 -0.666992 -35.833 -2 -50.5c0 -24.667 -1.66699 -46.667 -5 -66c-3.33301 -16.667 -8.5 -32.167 -15.5 -46.5s-17.5 -22.5 -31.5 -24.5c-13.333 -2.66699 -24.666 -7.66699 -33.999 -15
c-8 -6 -15 -15 -21 -27s-8 -27.667 -6 -47c0.666992 -13.333 4.66699 -26 12 -38c6 -10 15.333 -19.833 28 -29.5s31 -16.167 55 -19.5c29.333 -4.66699 58.333 -5.66699 87 -3c24.667 2 50.667 7.33301 78 16s51.666 23.667 72.999 45c16.667 16 30.167 33.167 40.5 51.5
s18.5 35.5 24.5 51.5c7.33301 18 12.666 36.333 15.999 55z" />
    <glyph glyph-name="k" unicode="k" horiz-adv-x="738" 
d="M361 543c15.333 20.667 30.6699 37.334 46.0029 50.001s30 22 44 28s27.333 9.5 40 10.5s24.667 0.166992 36 -2.5c26 -6 50.333 -19.333 73 -40c12 -13.333 20.667 -26.833 26 -40.5s8.16602 -27.334 8.49902 -41.001s-1.33398 -27.167 -5.00098 -40.5
s-8.5 -26 -14.5 -38c-13.333 -28 -33 -55.333 -59 -82c18 -11.333 35.667 -25.666 53 -42.999s32.833 -36 46.5 -56s24.834 -40.833 33.501 -62.5s13.5 -42.834 14.5 -63.501s-2.33301 -40 -10 -58s-20.834 -33.333 -39.501 -46c-23.333 -16 -45.333 -25.333 -66 -28
s-40 -0.666992 -58 6s-34.833 16.667 -50.5 30s-29.834 28 -42.501 44c-30 38 -56 86.667 -78 146c2 -45.333 -2 -85.333 -12 -120c-4 -14.667 -9.83301 -29 -17.5 -43s-17.334 -26.167 -29.001 -36.5s-26 -18.333 -43 -24s-36.833 -7.83398 -59.5 -6.50098
c-25.333 1.33301 -46.333 9 -63 23s-30.334 29 -41.001 45c-12 18.667 -21.667 39.667 -29 63c-14 56 -22 112.833 -24 170.5s-1.33301 110.5 2 158.5c3.33301 56 10 110 20 162c3.33301 13.333 7.5 28 12.5 44s12.5 31 22.5 45s23 25.833 39 35.5s37 15.167 63 16.5
c20.667 0.666992 39 -1.66602 55 -6.99902s29.833 -12.833 41.5 -22.5s21.334 -20.667 29.001 -33s13.834 -24.833 18.501 -37.5c11.333 -30.667 17 -66 17 -106z" />
    <glyph glyph-name="l" unicode="l" horiz-adv-x="394" 
d="M39 202c-4.66699 38 -7.00098 77.833 -7.00098 119.5s1 80.5 3 116.5c2 41.333 5 82 9 122c4 36.667 12 69.667 24 99c5.33301 12 11.833 24 19.5 36s16.834 22.667 27.501 32s23.167 16.833 37.5 22.5s30.5 8.5 48.5 8.5c25.333 -0.666992 49 -8.66699 71 -24
c8.66699 -6.66699 17.667 -15 27 -25s17.833 -22.667 25.5 -38s14.334 -33.333 20.001 -54s9.5 -44.667 11.5 -72c4 -53.333 6 -104.333 6 -153s-0.666992 -92 -2 -130c-2 -44.667 -5 -86.334 -9 -125.001c-3.33301 -29.333 -11 -55 -23 -77
c-5.33301 -9.33301 -11.833 -18.666 -19.5 -27.999s-17 -17.5 -28 -24.5s-23.833 -12.5 -38.5 -16.5s-31.334 -5.66699 -50.001 -5c-17.333 0.666992 -32.833 4.16699 -46.5 10.5s-25.834 14.5 -36.501 24.5s-19.667 21.5 -27 34.5s-13.666 26.167 -18.999 39.5
c-12 31.333 -20 67 -24 107z" />
    <glyph glyph-name="m" unicode="m" horiz-adv-x="994" 
d="M813 500c24.667 -8 45.3311 -19.6689 61.998 -35.002s30.334 -33 41.001 -53s18.834 -41.5 24.501 -64.5s9.5 -45.833 11.5 -68.5c4.66699 -53.333 2.33398 -111.333 -6.99902 -174c-6 -22.667 -14.667 -42.667 -26 -60c-10 -15.333 -23.333 -29 -40 -41
s-38.667 -18 -66 -18c-25.333 0 -46.666 5 -63.999 15s-31.666 22.5 -42.999 37.5s-20.166 31.333 -26.499 49s-11 34.5 -14 50.5s-4.66699 29.833 -5 41.5s-0.5 18.834 -0.5 21.501c0 -2.66699 -0.666992 -10 -2 -22s-4 -26 -8 -42s-9.5 -33 -16.5 -51
s-16.667 -34.667 -29 -50s-27.666 -28 -45.999 -38s-40.166 -15 -65.499 -15s-47.166 5.16699 -65.499 15.5s-33.833 23.166 -46.5 38.499s-22.834 32.166 -30.501 50.499s-13.5 35.833 -17.5 52.5s-6.83301 31 -8.5 43s-2.5 19.333 -2.5 22
c0 -2.66699 -0.333008 -10 -1 -22s-2.33398 -26 -5.00098 -42s-7 -33.167 -13 -51.5s-14.333 -35.166 -25 -50.499s-24.167 -28 -40.5 -38s-35.833 -15 -58.5 -15c-30.667 0 -55 6.5 -73 19.5s-31.667 27.5 -41 43.5c-11.333 18 -18.666 39 -21.999 63c-6 62 -6 119 0 171
c2.66699 22 6.66699 44.333 12 67s12.666 43.834 21.999 63.501s21.166 37 35.499 52s31.833 26.5 52.5 34.5c37.333 14 71.166 20.667 101.499 20s57.333 -6 81 -16s44.167 -23.167 61.5 -39.5s32 -33 44 -50s21.167 -33.167 27.5 -48.5s10.5 -26.666 12.5 -33.999
c2 7.33301 6.16699 18.333 12.5 33s15.166 30.167 26.499 46.5s25.333 32.333 42 48s36.667 28.5 60 38.5s49.666 15.833 78.999 17.5s62.666 -3.5 99.999 -15.5z" />
    <glyph glyph-name="n" unicode="n" horiz-adv-x="716" 
d="M699 230c1.33301 -39.333 -2.32812 -74.9932 -10.9951 -106.993c-4 -14 -9.16699 -27.833 -15.5 -41.5s-14.833 -26.334 -25.5 -38.001s-23.167 -21.834 -37.5 -30.501s-31.5 -14.667 -51.5 -18l-12 -1c-8 -0.666992 -18.167 -0.333984 -30.5 0.999023
s-25.666 4.16602 -39.999 8.49902s-27.833 11.666 -40.5 21.999s-23.5 24.166 -32.5 41.499s-14.167 39.333 -15.5 66c-2.66699 26 -5.33398 49.333 -8.00098 70c-3.33301 17.333 -7 33.5 -11 48.5s-9.33301 22.5 -16 22.5c2 -24.667 3.16699 -46 3.5 -64
s0.166016 -33.333 -0.500977 -46c-0.666992 -14.667 -1.33398 -27.334 -2.00098 -38.001c-3.33301 -24.667 -11 -46.667 -23 -66c-10 -16.667 -24.833 -32 -44.5 -46s-46.834 -21.333 -81.501 -22c-16.667 0 -31.5 1.83301 -44.5 5.5s-24.5 8.83398 -34.5 15.501
s-18.833 14.167 -26.5 22.5s-14.167 16.833 -19.5 25.5c-12.667 20.667 -21.667 44 -27 70c-4.66699 18 -8.33398 38.667 -11.001 62c-2.66699 20 -4.33398 44 -5.00098 72s0.666016 60 3.99902 96c3.33301 28 11 53.333 23 76c4.66699 9.33301 10.667 18.666 18 27.999
s16 17.833 26 25.5s21.5 14 34.5 19s27.833 8.16699 44.5 9.5c29.333 2 53.5 0.666992 72.5 -4s34.5 -10.834 46.5 -18.501s21.167 -16 27.5 -25s11.833 -17.5 16.5 -25.5c60 32.667 114.667 48 164 46c20.667 -0.666992 41.334 -5.16699 62.001 -13.5
s39.5 -22.333 56.5 -42s31.5 -46.167 43.5 -79.5s20 -75.666 24 -126.999z" />
    <glyph glyph-name="o" unicode="o" horiz-adv-x="586" 
d="M540 116c-10.667 -19.333 -23.1699 -36.166 -37.5029 -50.499s-28.166 -26.166 -41.499 -35.499c-15.333 -11.333 -31 -20.333 -47 -27c-13.333 -5.33301 -26.166 -9.5 -38.499 -12.5s-23.166 -5.16699 -32.499 -6.5c-11.333 -2 -21.333 -3 -30 -3
c-36.667 0 -68.834 3.66699 -96.501 11s-51.834 16.833 -72.501 28.5s-38.167 25.167 -52.5 40.5s-25.833 31 -34.5 47c-22 36.667 -34 79 -36 127c0 38.667 4.16699 72.167 12.5 100.5s19.333 52.666 33 72.999s29.334 37.166 47.001 50.499s35.5 24 53.5 32
c42.667 18.667 91.334 27 146.001 25c32 0 60.333 -3.66699 85 -11s46.167 -17 64.5 -29s33.666 -25.5 45.999 -40.5s22.5 -30.5 30.5 -46.5c18.667 -36.667 29.334 -78.667 32.001 -126c0 -31.333 -2.83301 -59 -8.5 -83s-13.167 -45.333 -22.5 -64zM306.997 274
c-11.333 0 -21.165 -4.33301 -29.498 -13s-11.833 -18.334 -10.5 -29.001c1.33301 -14 5.5 -23.667 12.5 -29s16.167 -8 27.5 -8s20.666 3.33301 27.999 10s11 15.667 11 27c0 10.667 -3.33301 20.334 -10 29.001s-16.334 13 -29.001 13z" />
    <glyph glyph-name="p" unicode="p" horiz-adv-x="686" 
d="M35 -76c-7.33301 66 -9.33105 130.001 -5.99805 192.001c1.33301 26.667 4.16602 54.167 8.49902 82.5s10.5 56.333 18.5 84s18.167 54.334 30.5 80.001s27.5 48.834 45.5 69.501c23.333 26.667 52.666 47.667 87.999 63s72.5 25 111.5 29s78.333 2.5 118 -4.5
s75.5 -19.5 107.5 -37.5c16 -10 31 -22 45 -36c12 -12 23.833 -27 35.5 -45s20.834 -39 27.501 -63c5.33301 -21.333 8.16602 -45.666 8.49902 -72.999s-2.16699 -54.5 -7.5 -81.5s-13.666 -52.333 -24.999 -76s-25.666 -42.834 -42.999 -57.501
c-16 -13.333 -32.333 -24 -49 -32s-33.167 -14 -49.5 -18s-32 -6.33301 -47 -7s-29.167 -0.333984 -42.5 0.999023c-31.333 2.66699 -61.333 10.667 -90 24c9.33301 -50.667 11.666 -95.667 6.99902 -135c-2 -16.667 -5.66699 -33 -11 -49s-13 -30.333 -23 -43
s-22.833 -22.834 -38.5 -30.501s-34.834 -11.5 -57.501 -11.5c-18 0 -34 2.5 -48 7.5s-26.5 11.5 -37.5 19.5s-20.5 17.167 -28.5 27.5s-15 21.166 -21 32.499c-13.333 26 -22.333 55.333 -27 88zM367.002 274.001c-11.333 0 -21.165 -4.33301 -29.498 -13
s-11.833 -18.334 -10.5 -29.001c1.33301 -14 5.5 -23.667 12.5 -29s16.167 -8 27.5 -8s20.666 3.33301 27.999 10s11 15.667 11 27c0 10.667 -3.33301 20.334 -10 29.001s-16.334 13 -29.001 13z" />
    <glyph glyph-name="q" unicode="q" horiz-adv-x="722" 
d="M541 -244c-21.333 0 -39.8418 3.83691 -55.5088 11.5039s-28.667 17.834 -39 30.501s-18.666 27 -24.999 43s-11.166 32.333 -14.499 49c-7.33301 39.333 -8.66602 84.333 -3.99902 135c-28.667 -14.667 -59 -24 -91 -28c-13.333 -2 -27.666 -2.83301 -42.999 -2.5
s-31.166 2.33301 -47.499 6s-32.833 9.5 -49.5 17.5s-33 18.667 -49 32c-20 16 -36 36.167 -48 60.5s-20.5 50 -25.5 77s-6.66699 54.167 -5 81.5s6.16699 52.666 13.5 75.999c8 25.333 19 47.166 33 65.499s27.667 33.833 41 46.5c16 14.667 32.667 27.334 50 38.001
c37.333 19.333 78.333 31.666 123 36.999s88.334 4.5 131.001 -2.5s82 -19.667 118 -38s64 -41.5 84 -69.5c14 -20 25.833 -42.833 35.5 -68.5s17.334 -52.334 23.001 -80.001s9.83398 -55.834 12.501 -84.501s4.33398 -56.334 5.00098 -83.001
c1.33301 -63.333 -2.33398 -128.333 -11.001 -195c-5.33301 -29.333 -14.333 -55.333 -27 -78c-11.333 -19.333 -27.666 -37 -48.999 -53s-50 -24 -86 -24zM376.991 274.004c-11.333 0 -21.165 -4.33301 -29.498 -13s-11.833 -18.334 -10.5 -29.001
c1.33301 -14 5.5 -23.667 12.5 -29s16.167 -8 27.5 -8s20.666 3.33301 27.999 10s11 15.667 11 27c0 10.667 -3.33301 20.334 -10 29.001s-16.334 13 -29.001 13z" />
    <glyph glyph-name="r" unicode="r" horiz-adv-x="609" 
d="M317 448c17.333 24.667 36.167 42.168 56.5 52.501s39.166 16.833 56.499 19.5c20.667 2.66699 41 2 61 -2c20 -5.33301 36.333 -13 49 -23s22.334 -21 29.001 -33s11.334 -24 14.001 -36s4 -22.333 4 -31c0.666992 -21.333 -2.16602 -39.833 -8.49902 -55.5
s-13.166 -28.167 -20.499 -37.5c-8.66699 -12 -19 -21.333 -31 -28c-21.333 -12.667 -42.166 -18.667 -62.499 -18s-38.833 3.66699 -55.5 9c-19.333 6.66699 -37.666 16 -54.999 28c5.33301 -40 7.16602 -75 5.49902 -105s-5.66699 -55.833 -12 -77.5
s-14.5 -39.667 -24.5 -54s-20.667 -25.833 -32 -34.5c-26.667 -20.667 -58.667 -30.334 -96 -29.001c-28.667 -1.33301 -52 3 -70 13s-32.667 21.333 -44 34c-12.667 14.667 -22.667 31.334 -30 50.001c-12 36 -19.833 73.333 -23.5 112s-4.83398 74 -3.50098 106
c0.666992 37.333 3.66699 74 9 110c7.33301 32 19.166 56.167 35.499 72.5s33.166 28.166 50.499 35.499c20 8 42 12 66 12c28 1.33301 50.667 -2.83398 68 -12.501s30.666 -20.167 39.999 -31.5c11.333 -13.333 19.333 -28.666 24 -45.999z" />
    <glyph glyph-name="s" unicode="s" horiz-adv-x="561" 
d="M330 318c28.667 -4 53.999 -9.33496 75.999 -16.002s40.833 -14.334 56.5 -23.001s28.667 -17.834 39 -27.501s18.5 -19.167 24.5 -28.5c14.667 -22 22 -46.333 22 -73c0 -22 -3.16699 -41.5 -9.5 -58.5s-14.666 -31.667 -24.999 -44s-22 -22.833 -35 -31.5
s-26.167 -16 -39.5 -22c-32 -13.333 -68.333 -21.666 -109 -24.999c-37.333 -1.33301 -69.833 -0.666016 -97.5 2.00098s-51.5 6.66699 -71.5 12s-36.833 11.666 -50.5 18.999s-24.5 15 -32.5 23c-19.333 18.667 -29 40.334 -29 65.001
c-0.666992 16.667 1.5 31.334 6.5 44.001s12 23.667 21 33s19.167 17.166 30.5 23.499s23 11.5 35 15.5c28 9.33301 60.333 14.666 97 15.999c-45.333 10.667 -79.666 24.334 -102.999 41.001s-40 32.667 -50 48c-12 18 -18 37 -18 57c0.666992 21.333 5 40 13 56
s18.167 29.833 30.5 41.5s26 21.334 41 29.001s30.5 14.167 46.5 19.5c36.667 12 78.334 18 125.001 18c46.667 -1.33301 84.5 -5.16602 113.5 -11.499s51.5 -15 67.5 -26s26.667 -23.667 32 -38s7.66602 -29.5 6.99902 -45.5
c-0.666992 -15.333 -4.33398 -28.333 -11.001 -39s-15 -19.5 -25 -26.5s-21.333 -12.667 -34 -17s-25.667 -7.5 -39 -9.5c-31.333 -4.66699 -66.333 -5 -105 -1z" />
    <glyph glyph-name="t" unicode="t" horiz-adv-x="692" 
d="M205 583c-4.66699 32.667 -3.32617 62.0029 4.00684 88.0029c3.33301 10.667 8 21.334 14 32.001s14.333 20 25 28s23.667 14.5 39 19.5s33.666 7.5 54.999 7.5c20.667 0 38.667 -2.5 54 -7.5s28.166 -11.833 38.499 -20.5s18.833 -18.334 25.5 -29.001
s12 -21.334 16 -32.001c8.66699 -26 12 -55.333 10 -88c35.333 2 67 -1 95 -9c12 -3.33301 23.667 -8.16602 35 -14.499s21.5 -14.333 30.5 -24s16.167 -21.5 21.5 -35.5s8 -30.667 8 -50c0 -18 -2.5 -33.5 -7.5 -46.5s-11.833 -24.167 -20.5 -33.5s-18.334 -17 -29.001 -23
s-21.334 -10.667 -32.001 -14c-26.667 -8 -56.334 -11.333 -89.001 -10c6.66699 -62.667 6.66699 -118.334 0 -167.001c-2.66699 -20.667 -6.83398 -41 -12.501 -61s-13.5 -37.667 -23.5 -53s-22.667 -27.833 -38 -37.5s-33.666 -14.5 -54.999 -14.5
c-42.667 0 -74.834 9.16699 -96.501 27.5s-36.667 43.166 -45 74.499s-11.833 67.333 -10.5 108s3.66602 83.667 6.99902 129c-38 -5.33301 -71.667 -5 -101 1c-12.667 2.66699 -25 6.66699 -37 12s-22.667 12.666 -32 21.999s-16.833 21 -22.5 35s-8.5 31 -8.5 51
c0 28 6.16699 50.667 18.5 68s27.833 31 46.5 41s38.5 16.833 59.5 20.5s40.167 5.5 57.5 5.5z" />
    <glyph glyph-name="u" unicode="u" horiz-adv-x="680" 
d="M205 514c19.333 -2.66699 36.6709 -9 52.0039 -19c13.333 -8.66699 25.5 -21.667 36.5 -39s17.167 -41.333 18.5 -72c0 -11.333 0.166992 -24 0.5 -38s1.33301 -27 3 -39s4.66699 -22.167 9 -30.5s10.833 -12.5 19.5 -12.5c15.333 0 24.166 9.5 26.499 28.5
s3.83301 49.5 4.5 91.5c0 32.667 6 58 18 76s25 31 39 39c16.667 9.33301 35.667 14.666 57 15.999c33.333 1.33301 59.5 -3.5 78.5 -14.5s33.833 -23.5 44.5 -37.5c12 -16.667 20.333 -35.667 25 -57c7.33301 -35.333 9.83301 -69 7.5 -101s-6.16602 -60.667 -11.499 -86
c-6.66699 -29.333 -15.334 -57 -26.001 -83c-12.667 -29.333 -30.334 -55.333 -53.001 -78c-10 -10 -21.333 -19.667 -34 -29s-27.334 -17.5 -44.001 -24.5s-35 -12.5 -55 -16.5s-42.333 -5.66699 -67 -5c-52 1.33301 -94.833 7.5 -128.5 18.5s-60.5 22.833 -80.5 35.5
c-23.333 14.667 -41 31.334 -53 50.001c-20.667 30 -34.334 63.333 -41.001 100s-9.66699 71 -9 103c0 37.333 3.66699 75 11 113c7.33301 32.667 19.333 57 36 73s33.667 26.667 51 32c20 6.66699 41.667 8.66699 65 6z" />
    <glyph glyph-name="v" unicode="v" horiz-adv-x="668" 
d="M340 303c5.33301 46 16.667 86 34 120c7.33301 14 16.166 27.5 26.499 40.5s22.5 24 36.5 33s30.167 15.167 48.5 18.5s39.166 2.66602 62.499 -2.00098c20.667 -4.66699 37.5 -12.167 50.5 -22.5s22.667 -22.333 29 -36s10.333 -28.667 12 -45s1.5 -32.5 -0.5 -48.5
c-4 -38 -16 -79.667 -36 -125c-21.333 -45.333 -45.333 -85.666 -72 -120.999c-11.333 -15.333 -24 -30.166 -38 -44.499s-29 -27.166 -45 -38.499s-33 -20.5 -51 -27.5s-37 -10.5 -57 -10.5c-28 0 -54 5.16699 -78 15.5s-46.167 23.833 -66.5 40.5s-38.5 35.167 -54.5 55.5
s-30.167 40.833 -42.5 61.5s-22.666 40 -30.999 58s-14.833 33 -19.5 45c-7.33301 17.333 -13.333 38.5 -18 63.5s-5 49.5 -1 73.5s14 45.667 30 65s41.333 32.666 76 39.999c20 4 38.333 4 55 0s31.834 -10.5 45.501 -19.5s25.667 -20 36 -33s19.5 -26.5 27.5 -40.5
c18 -32.667 31.667 -71.334 41 -116.001z" />
    <glyph glyph-name="w" unicode="w" horiz-adv-x="875" 
d="M443 130c-4 -26.667 -12.3418 -50.6602 -25.0088 -71.9932c-11.333 -18 -28.333 -34.5 -51 -49.5s-53.667 -22.5 -93 -22.5c-28 0 -52.167 6 -72.5 18s-37.166 25.333 -50.499 40c-16 17.333 -29 36.666 -39 57.999c-16.667 32 -29.667 63.167 -39 93.5
s-16.666 57.833 -21.999 82.5c-6 28 -10 55 -12 81c-3.33301 40.667 1.5 72 14.5 94s28.167 38.667 45.5 50c20 12 43.333 19.667 70 23c24 0 45.167 -3.33301 63.5 -10s34 -15.5 47 -26.5s23.833 -23.667 32.5 -38s15.667 -28.833 21 -43.5c12 -34.667 18.333 -74 19 -118
c-1.33301 30 2.66699 52.667 12 68s20 26.666 32 33.999c14 8 30 12.333 48 13c26.667 -0.666992 46.834 -6.83398 60.501 -18.501s23.5 -24.834 29.5 -39.501c7.33301 -17.333 11 -36.333 11 -57c0 30.667 2.33301 57.667 7 81s10.667 43.5 18 60.5s15.833 31 25.5 42
s19.5 20.167 29.5 27.5c23.333 16.667 50 25 80 25c18.667 0 35.167 -2.5 49.5 -7.5s26.5 -11.333 36.5 -19s18.5 -16.334 25.5 -26.001s12.5 -19.5 16.5 -29.5c9.33301 -24 14 -51 14 -81c-1.33301 -42 -5.66602 -79.5 -12.999 -112.5s-14.666 -60.833 -21.999 -83.5
c-9.33301 -26.667 -19.333 -50 -30 -70c-16 -29.333 -33.5 -51.333 -52.5 -66s-37.167 -25.334 -54.5 -32.001c-20 -7.33301 -39.667 -11.333 -59 -12c-21.333 0 -40.166 2 -56.499 6s-30.666 9.33301 -42.999 16s-22.666 14.167 -30.999 22.5
s-15.166 17.166 -20.499 26.499c-12.667 21.333 -20 45.333 -22 72z" />
    <glyph glyph-name="x" unicode="x" horiz-adv-x="624" 
d="M313 429c20 30 42.3389 53.334 67.0059 70.001c10.667 6.66699 22.167 12.334 34.5 17.001s25.5 6.83398 39.5 6.50098s28.667 -3.66602 44 -9.99902s31.333 -16.833 48 -31.5c13.333 -12 23.166 -24.333 29.499 -37s10 -25.334 11 -38.001s0 -25 -3 -37
s-7.16699 -23.333 -12.5 -34c-12 -25.333 -30.333 -49.666 -55 -72.999c29.333 -25.333 50.666 -51.333 63.999 -78c6 -12 10.5 -24.667 13.5 -38s3.33301 -27.166 1 -41.499s-7.83301 -29 -16.5 -44s-22 -29.833 -40 -44.5c-22 -18.667 -42.833 -30.834 -62.5 -36.501
s-37.667 -7 -54 -4s-31.333 9.16699 -45 18.5s-25.334 19.5 -35.001 30.5s-17.667 21.667 -24 32s-10.5 18.166 -12.5 23.499c-18 -32.667 -38 -58 -60 -76c-9.33301 -8 -19.833 -14.5 -31.5 -19.5s-24 -7.66699 -37 -8s-27 2.5 -42 8.5s-30.5 16.333 -46.5 31
c-18 16 -31.5 31.667 -40.5 47s-14.667 30.166 -17 44.499s-2.33301 27.833 0 40.5s6.16602 24.667 11.499 36c12 26 32 50 60 72c-23.333 23.333 -40.666 47.666 -51.999 72.999c-4.66699 10.667 -8.33398 22.167 -11.001 34.5s-3.33398 25 -2.00098 38
s5.16602 26.167 11.499 39.5s16.5 26.666 30.5 39.999c17.333 16.667 34 28.5 50 35.5s31.167 10.833 45.5 11.5s27.833 -1.33301 40.5 -6s24 -10.667 34 -18c24 -17.333 45.333 -42.333 64 -75z" />
    <glyph glyph-name="y" unicode="y" horiz-adv-x="711" 
d="M606 505c20.667 -9.33301 37.001 -24.998 49.001 -46.998c4.66699 -9.33301 8.66699 -20.5 12 -33.5s5 -28.167 5 -45.5s-2.16699 -37.166 -6.5 -59.499s-11.5 -47.5 -21.5 -75.5c-19.333 -52 -38.833 -99.167 -58.5 -141.5s-37.834 -78.5 -54.501 -108.5
c-19.333 -35.333 -38 -66.666 -56 -93.999c-18.667 -32.667 -40 -60 -64 -82c-10 -9.33301 -21.167 -17.833 -33.5 -25.5s-25.666 -13.334 -39.999 -17.001s-29.333 -4.83398 -45 -3.50098s-32.167 6.33301 -49.5 15c-22 10.667 -38 24.334 -48 41.001
s-16 34.834 -18 54.501s-0.833008 40.167 3.5 61.5s9.66602 41.333 15.999 60s13 35.5 20 50.5l16.5 34.5c-4 4 -8.16699 7.83301 -12.5 11.5s-8.16602 7.16699 -11.499 10.5c-4 3.33301 -7.66699 6.66602 -11 9.99902c-22 16.667 -41.667 33.667 -59 51
s-31.666 33.333 -42.999 48c-13.333 17.333 -25 33.666 -35 48.999c-15.333 24.667 -25 50 -29 76c-2 10.667 -2.66699 22.167 -2 34.5s3 24.833 7 37.5s10.5 25.5 19.5 38.5s21.167 25.5 36.5 37.5c21.333 12 43.666 18.667 66.999 20c10 0.666992 20.667 0 32 -2
s23.166 -6 35.499 -12s25 -14.167 38 -24.5s26.167 -23.833 39.5 -40.5c11.333 -14 21.666 -27.833 30.999 -41.5l28 -40.5c7.33301 13.333 18 31.666 32 54.999s31 44.666 51 63.999s43.333 33.5 70 42.5s56.334 6.16699 89.001 -8.5z" />
    <glyph glyph-name="z" unicode="z" horiz-adv-x="601" 
d="M180 306c-30 -0.666992 -56.3291 3.33496 -78.9961 12.002c-10 4 -19.5 9 -28.5 15s-17 13.5 -24 22.5s-12.5 20 -16.5 33s-5.33301 28.167 -4 45.5c1.33301 24 11 45.333 29 64c8 8 18.167 15.667 30.5 23s27.666 13.833 45.999 19.5s40.166 10 65.499 13
s54.666 4.16699 87.999 3.5c45.333 -1.33301 83.166 -5.33301 113.499 -12s54.5 -15.5 72.5 -26.5s30.167 -24.333 36.5 -40s7.83301 -32.834 4.5 -51.501c-4 -16.667 -11 -34.334 -21 -53.001c-8.66699 -16 -20.834 -34.5 -36.501 -55.5s-36.834 -42.833 -63.501 -65.5
c32 -0.666992 61 -5.33398 87 -14.001c10.667 -4 21.334 -9.16699 32.001 -15.5s20.167 -14 28.5 -23s15 -20 20 -33s7.5 -27.833 7.5 -44.5c0 -34 -7.66699 -60.333 -23 -79s-35.166 -32.167 -59.499 -40.5s-51.333 -13.333 -81 -15s-58.834 -2.5 -87.501 -2.5
s-57.167 0.5 -85.5 1.5s-54.333 4.33301 -78 10s-44.167 14.5 -61.5 26.5s-29 29 -35 51c-4 16 -5.5 31.5 -4.5 46.5s4 29.333 9 43s11.5 26.667 19.5 39s16.333 23.833 25 34.5c20.667 24.667 45.334 47.334 74.001 68.001z" />
    <glyph glyph-name="braceleft" unicode="{" horiz-adv-x="568" 
d="M433 58c18 -4 30.333 -10.665 37 -19.998s10.667 -19 12 -29c1.33301 -12 -0.333984 -24.667 -5.00098 -38c-4 -12.667 -11.667 -22.834 -23 -30.501s-23 -13.834 -35 -18.501c-14 -5.33301 -29.333 -9 -46 -11c-27.333 -2.66699 -49.833 -1.66699 -67.5 3
s-32.167 10 -43.5 16c-12.667 7.33301 -23 15.666 -31 24.999c-13.333 17.333 -21.333 36 -24 56s-2.66699 38.667 0 56c2.66699 20 8 40 16 60c6 16.667 9.66699 32 11 46c1.33301 12 -0.5 23.167 -5.5 33.5s-15.167 17.166 -30.5 20.499
c-16.667 1.33301 -31.667 6.33301 -45 15c-11.333 7.33301 -21.833 18.833 -31.5 34.5s-14.834 37.5 -15.501 65.5v2v2c0.666992 28 5.83398 49.667 15.501 65s20.167 26.666 31.5 33.999c13.333 8 28.333 13 45 15c15.333 2.66699 25.5 9.33398 30.5 20.001
s6.83301 22 5.5 34c-1.33301 14 -5 29.333 -11 46c-8 20 -13.333 40 -16 60c-2.66699 17.333 -2.66699 36 0 56s10.667 38.667 24 56c8 10 18.333 18.667 31 26c11.333 6 25.833 11.167 43.5 15.5s40.167 5.5 67.5 3.5c16.667 -2.66699 32 -6.66699 46 -12
c12 -4.66699 23.667 -10.834 35 -18.501s19 -17.834 23 -30.501c4.66699 -13.333 6.33398 -26 5.00098 -38c-1.33301 -10 -5.33301 -19.667 -12 -29s-19 -15.666 -37 -18.999c-12.667 -4 -22.334 -11.667 -29.001 -23c-5.33301 -9.33301 -7.83301 -23 -7.5 -41
s7.83301 -42.333 22.5 -73c10 -21.333 14.167 -40.666 12.5 -57.999s-5.83398 -32.166 -12.501 -44.499s-14.334 -22.5 -23.001 -30.5s-15 -13.333 -19 -16c4 -2.66699 10.333 -8 19 -16s16.334 -18.333 23.001 -31s10.834 -27.5 12.501 -44.5s-2.5 -36.167 -12.5 -57.5
c-14.667 -31.333 -22.167 -56 -22.5 -74s2.16699 -31.667 7.5 -41c6.66699 -11.333 16.334 -18.666 29.001 -21.999z" />
    <glyph glyph-name="bar" unicode="|" horiz-adv-x="258" 
d="M200 8c-3.33301 -19.333 -9.33398 -33.8379 -18.001 -43.5049s-17.667 -16.5 -27 -20.5c-11.333 -4.66699 -23.333 -7 -36 -7c-14 -1.33301 -27 0.333984 -39 5.00098c-10 4 -19.167 10.833 -27.5 20.5s-13.166 24.834 -14.499 45.501
c-3.33301 60.667 -5.16602 124.334 -5.49902 191.001s0.166992 131 1.5 193s3.16602 118.667 5.49902 170s5.16602 92 8.49902 122c2.66699 23.333 8.33398 41.333 17.001 54s18 21.667 28 27c11.333 6.66699 24 10 38 10c14.667 -0.666992 28 -4.66699 40 -12
c10 -6 19.5 -15.167 28.5 -27.5s14.167 -30.166 15.5 -53.499c5.33301 -95.333 7.5 -183.666 6.5 -264.999s-3.16699 -152.333 -6.5 -213c-3.33301 -70.667 -8.33301 -136 -15 -196z" />
    <glyph glyph-name="braceright" unicode="}" horiz-adv-x="517" 
d="M123 67c12.667 3.33301 22.334 10.6641 29.001 21.9971c5.33301 9.33301 7.83301 23 7.5 41s-7.83301 42.333 -22.5 73c-10 21.333 -14.167 40.666 -12.5 57.999s6 32.166 13 44.499s14.833 22.5 23.5 30.5s15 13.333 19 16c-4 2.66699 -10.333 8 -19 16
s-16.5 18.333 -23.5 31s-11.333 27.5 -13 44.5s2.5 36.167 12.5 57.5c14.667 30.667 22.167 55.167 22.5 73.5s-2.16699 32.166 -7.5 41.499c-6.66699 11.333 -16.334 18.666 -29.001 21.999c-18 3.33301 -30.333 9.83301 -37 19.5s-10.667 19.5 -12 29.5
c-1.33301 12 0.666992 24.667 6 38c3.33301 12.667 10.666 22.834 21.999 30.501s23 13.834 35 18.501c14 5.33301 29.333 9.33301 46 12c26.667 2 49.167 0.666992 67.5 -4s33.166 -10 44.499 -16c12.667 -7.33301 23 -15.666 31 -24.999
c13.333 -17.333 21.166 -36 23.499 -56s2.16602 -38.667 -0.500977 -56c-2.66699 -20 -8 -40 -16 -60c-6.66699 -16.667 -10.334 -32 -11.001 -46c-1.33301 -12 0.5 -23.333 5.5 -34s15.167 -17.334 30.5 -20.001c17.333 -2 32.666 -7.33301 45.999 -16
c11.333 -7.33301 21.833 -18.666 31.5 -33.999s14.834 -37 15.501 -65v-2v-2c-0.666992 -28 -5.83398 -49.667 -15.501 -65s-20.167 -26.666 -31.5 -33.999c-13.333 -8.66699 -28.666 -13.667 -45.999 -15c-15.333 -3.33301 -25.5 -10.166 -30.5 -20.499
s-6.83301 -21.5 -5.5 -33.5c0.666992 -14 4.33398 -29.333 11.001 -46c8 -20 13.333 -40 16 -60c2.66699 -17.333 2.83398 -36 0.500977 -56s-10.166 -38.667 -23.499 -56c-8 -10 -18.333 -18.667 -31 -26c-11.333 -6 -26.166 -11.333 -44.499 -16
s-40.833 -5.66699 -67.5 -3c-16.667 2.66699 -32 6.66699 -46 12c-12 4.66699 -23.667 10.834 -35 18.501s-18.666 17.834 -21.999 30.501c-5.33301 13.333 -7.33301 26 -6 38c1.33301 10 5.33301 19.667 12 29s19 16 37 20z" />
    <glyph glyph-name="asciitilde" unicode="~" horiz-adv-x="496" 
d="M425 214c-10 -18 -21.3311 -31.667 -33.998 -41s-25.667 -15.666 -39 -18.999s-26.833 -4 -40.5 -2s-26.834 5.33301 -39.501 10c-30 11.333 -60.667 30 -92 56c-6 -22.667 -14.5 -38.5 -25.5 -47.5s-22.167 -14.5 -33.5 -16.5
c-12.667 -2.66699 -26.334 -1.66699 -41.001 3c-8.66699 2.66699 -16.5 7.33398 -23.5 14.001s-12.5 14.334 -16.5 23.001s-6.5 17.667 -7.5 27s0.166992 18.333 3.5 27c12 36 29.333 62.667 52 80c10 7.33301 21.5 13.166 34.5 17.499s28 5.5 45 3.5
s36.167 -7.83301 57.5 -17.5s45 -24.5 71 -44.5c0.666992 -0.666992 1 -1.33398 1 -2.00098s0.333008 -1.33398 1 -2.00098c6.66699 19.333 17.667 34.5 33 45.5s33.333 13.167 54 6.5c16.667 -6 30 -14.333 40 -25c8.66699 -9.33301 14.167 -21.833 16.5 -37.5
s-3.16699 -35.167 -16.5 -58.5z" />
    <glyph glyph-name="exclamdown" unicode="&#xa1;" horiz-adv-x="446" 
d="M387 105c-5.33301 30 -14.6621 56.6699 -27.9951 80.0029c-11.333 20 -27.833 38.333 -49.5 55s-49.834 25 -84.501 25c-32 0 -58 -6.5 -78 -19.5s-36 -27.167 -48 -42.5c-14 -18 -25 -38.333 -33 -61c-5.33301 -22.667 -9.33301 -47.334 -12 -74.001
c-2 -22.667 -2.5 -48.667 -1.5 -78s5.5 -60 13.5 -92c8 -34 20.833 -60.333 38.5 -79s35.5 -32.667 53.5 -42c21.333 -10.667 43.666 -16.667 66.999 -18c19.333 0 36.666 2.33301 51.999 7s28.666 10.667 39.999 18s21.166 15.833 29.499 25.5s15.166 19.5 20.499 29.5
c12.667 23.333 21 50 25 80c2 22.667 3.33301 45 4 67c0.666992 19.333 0.333984 39.666 -0.999023 60.999s-4 40.666 -8 57.999zM96.0039 436.003c0 14.667 3.33301 28.667 10 42s16 24.833 28 34.5s25.833 17.334 41.5 23.001s32.5 8.5 50.5 8.5
s34.833 -2.83301 50.5 -8.5s29.334 -13.334 41.001 -23.001s20.834 -21.167 27.501 -34.5s10 -27.333 10 -42c0 -15.333 -3.33301 -29.5 -10 -42.5s-15.834 -24.333 -27.501 -34s-25.334 -17.334 -41.001 -23.001s-32.5 -8.5 -50.5 -8.5s-34.833 2.83301 -50.5 8.5
s-29.5 13.334 -41.5 23.001s-21.333 21 -28 34s-10 27.167 -10 42.5z" />
    <glyph glyph-name="cent" unicode="&#xa2;" horiz-adv-x="555" 
d="M514 314c8 -16 11.9971 -32.334 11.9971 -49.001c0 -14.667 -4 -30.5 -12 -47.5s-23.667 -34.167 -47 -51.5c-7.33301 -5.33301 -16 -10.333 -26 -15c-8.66699 -4 -19.167 -8.16699 -31.5 -12.5s-26.166 -8.16602 -41.499 -11.499c-0.666992 -8 -1 -15.5 -1 -22.5
s-0.666992 -13.5 -2 -19.5c-2 -22.667 -6.66699 -39.667 -14 -51s-14.666 -19.666 -21.999 -24.999c-9.33301 -6 -19.333 -9 -30 -9c-12 0.666992 -22.667 4.33398 -32 11.001c-8 5.33301 -15.5 13.833 -22.5 25.5s-11.167 28.5 -12.5 50.5
c-0.666992 7.33301 -1 14.5 -1 21.5s-0.333008 14.167 -1 21.5l-33.5 11c-11.667 4 -23.5 8.66699 -35.5 14c-22.667 11.333 -42.667 27.333 -60 48c-15.333 17.333 -29.166 40.5 -41.499 69.5s-18.5 65.167 -18.5 108.5c0 36 6 70 18 102c4.66699 13.333 11.167 27 19.5 41
s18.5 27.333 30.5 40s26.333 24.334 43 35.001s36 19.334 58 26.001c1.33301 0.666992 3.33301 1.33398 6 2.00098c2 0.666992 4.33301 1.16699 7 1.5s6 1.16602 10 2.49902c0.666992 6 1 11.833 1 17.5s0.333008 11.167 1 16.5c2 22 6.5 38.833 13.5 50.5
s14.5 20.167 22.5 25.5c9.33301 6 19.666 9 30.999 9c12 -0.666992 22.667 -4.33398 32 -11.001c8 -5.33301 15.333 -14 22 -26s10.667 -28.667 12 -50c0 -5.33301 0.166992 -10.333 0.5 -15s0.5 -9.33398 0.5 -14.001c19.333 -4 38.333 -10.333 57 -19s36.667 -21 54 -37
c8 -8 14.667 -17.667 20 -29c4 -9.33301 6.83301 -21.166 8.5 -35.499s-0.833008 -30.833 -7.5 -49.5c-6 -14 -15 -25.667 -27 -35c-10 -8 -23.667 -14.667 -41 -20s-39.666 -5.33301 -66.999 0c-12.667 3.33301 -23.667 4.66602 -33 3.99902
c-8.66699 -0.666992 -16.334 -3 -23.001 -7s-10 -12 -10 -24c0.666992 -8.66699 3.33398 -15.334 8.00098 -20.001c4 -4.66699 10.5 -7.66699 19.5 -9s22.167 1.33398 39.5 8.00098c18 7.33301 35.667 10.666 53 9.99902c15.333 -0.666992 31.5 -4.83398 48.5 -12.501
s32.167 -22.5 45.5 -44.5z" />
    <glyph glyph-name="sterling" unicode="&#xa3;" horiz-adv-x="705" 
d="M149 265c-15.333 -1.33301 -28.832 -1.83789 -40.499 -1.50488s-23.167 4.16602 -34.5 11.499c-13.333 8 -22.333 17.667 -27 29s-7.33398 22.666 -8.00098 33.999c-0.666992 12 0.666016 25 3.99902 39c6 16.667 14.5 28.667 25.5 36s22.167 12.333 33.5 15
c12.667 2.66699 26.334 3.33398 41.001 2.00098c0.666992 29.333 3 54.833 7 76.5s8.66699 40.167 14 55.5c6 17.333 12.333 32.333 19 45c10.667 19.333 23.167 35.333 37.5 48s29.666 22.834 45.999 30.501s33.333 13.334 51 17.001s35.167 5.83398 52.5 6.50098
c39.333 2 81 -2.33301 125 -13c32 -11.333 57.333 -27.666 76 -48.999s33 -41.666 43 -60.999c12 -23.333 17.167 -44 15.5 -62s-5.83398 -33 -12.501 -45c-7.33301 -14 -18 -26 -32 -36c-12 -8 -24.167 -13.167 -36.5 -15.5s-23.833 -2.83301 -34.5 -1.5
s-20 4.16602 -28 8.49902s-14 9.5 -18 15.5l-12.5 18c-4.33301 6 -9.16602 11.333 -14.499 16s-11.333 8 -18 10s-14.667 1.66699 -24 -1s-16 -7.33398 -20 -14.001s-6.66699 -13.667 -8 -21c-2 -8.66699 -2.33301 -18 -1 -28c22.667 2.66699 41 2.33398 55 -0.999023
s25.333 -7.66602 34 -12.999c9.33301 -6 16.666 -13.333 21.999 -22c8 -12.667 12.167 -25.167 12.5 -37.5s-1.16699 -23.166 -4.5 -32.499c-3.33301 -12 -8.66602 -23 -15.999 -33c-8.66699 -10.667 -19 -17.667 -31 -21s-23.667 -5 -35 -5
c-13.333 0 -27.333 1.66699 -42 5c-2 -13.333 -2.66699 -23.666 -2 -30.999s1.66699 -13 3 -17c2 -4.66699 4.33301 -7.66699 7 -9c14 -6.66699 28.667 -11.667 44 -15c12.667 -3.33301 26.667 -4.83301 42 -4.5s30 4.5 44 12.5c19.333 11.333 36.5 17.5 51.5 18.5
s27.5 0.166992 37.5 -2.5c12 -3.33301 21.667 -8.66602 29 -15.999c20.667 -18.667 33.167 -36.834 37.5 -54.501s4.83301 -33.5 1.5 -47.5c-3.33301 -16.667 -11 -32.334 -23 -47.001c-12 -13.333 -25 -24.5 -39 -33.5s-28.5 -16 -43.5 -21s-30 -8.5 -45 -10.5
s-29.5 -3 -43.5 -3c-32 0 -64.667 4.33301 -98 13c-14 5.33301 -29.667 9 -47 11c-15.333 1.33301 -33.166 0.833008 -53.499 -1.5s-42.5 -8.83301 -66.5 -19.5c-31.333 -14 -57 -17.5 -77 -10.5s-35.667 17.5 -47 31.5c-13.333 16.667 -23.333 37.334 -30 62.001
c-2.66699 14.667 -3.16699 27.834 -1.5 39.501s4.83398 22 9.50098 31s10.167 16.667 16.5 23s13.166 11.5 20.499 15.5c17.333 10 37.333 16.333 60 19c-2.66699 5.33301 -4.16699 11.666 -4.5 18.999s-0.5 14.333 -0.5 21c0 7.33301 0.666992 14.666 2 21.999z" />
    <glyph glyph-name="yen" unicode="&#xa5;" 
d="M715 529c-6.66699 -37.333 -19.6689 -67.165 -39.002 -89.498s-39.666 -39.5 -60.999 -51.5c-24.667 -14 -52 -23.667 -82 -29c5.33301 -15.333 9.66602 -32.333 12.999 -51c15.333 -0.666992 28.833 -1 40.5 -1h31.5c10 0 19.333 -0.333008 28 -1
c13.333 0 23.166 -2.66699 29.499 -8s11.166 -11 14.499 -17c3.33301 -7.33301 5 -15.333 5 -24c-0.666992 -8 -2.33398 -15.333 -5.00098 -22c-2.66699 -5.33301 -6.66699 -10.333 -12 -15s-12.666 -7.66699 -21.999 -9c-13.333 -1.33301 -28.833 -2.33301 -46.5 -3
s-37.167 -1.33398 -58.5 -2.00098c-0.666992 -4 -1.16699 -8 -1.5 -12s-0.833008 -7.66699 -1.5 -11c14.667 -0.666992 28 -1 40 -1h31c10 0 19 -0.333008 27 -1c13.333 0 23.166 -2.66699 29.499 -8s11.166 -11 14.499 -17c3.33301 -7.33301 5 -15.333 5 -24
c-0.666992 -7.33301 -2.33398 -14.333 -5.00098 -21c-2.66699 -5.33301 -6.66699 -10.5 -12 -15.5s-12.666 -7.83301 -21.999 -8.5c-15.333 -1.33301 -34.166 -2.5 -56.499 -3.5l-75.5 -3.5c-2 -6 -4 -11.167 -6 -15.5s-3.66699 -8.16602 -5 -11.499
c-2 -3.33301 -3.33301 -6.33301 -4 -9c-11.333 -20.667 -27.666 -35.667 -48.999 -45s-45 -14 -71 -14c-21.333 0 -39.833 2.33301 -55.5 7s-28.5 10 -38.5 16c-12 6.66699 -22 14.334 -30 23.001c-12.667 14.667 -22.334 31 -29.001 49
c-19.333 0.666992 -37.5 1.16699 -54.5 1.5s-32.833 1.16602 -47.5 2.49902c-12.667 0.666992 -22.167 3.33398 -28.5 8.00098s-11.166 9.66699 -14.499 15c-3.33301 6.66699 -5.33301 13.667 -6 21c0 9.33301 1.66699 17.666 5 24.999c3.33301 6.66699 8.5 12.667 15.5 18
s17.5 8.33301 31.5 9c12.667 0.666992 25.334 1.16699 38.001 1.5s25.667 0.5 39 0.5c0 4 -0.166992 8 -0.5 12s-0.5 7.66699 -0.5 11c-14.667 0.666992 -28.667 1.16699 -42 1.5s-25.666 0.833008 -36.999 1.5c-12.667 0.666992 -22.167 3.5 -28.5 8.5
s-11.166 10.167 -14.499 15.5c-3.33301 6.66699 -5.33301 13.667 -6 21c0 10.667 2 19.667 6 27c3.33301 6.66699 8.66602 12.667 15.999 18s18.333 8 33 8c12.667 0 25.167 0.166992 37.5 0.5s25.5 0.5 39.5 0.5c0.666992 7.33301 1.33398 13.666 2.00098 18.999
s1.33398 10 2.00098 14c0.666992 4.66699 1.33398 8.66699 2.00098 12c-36 6.66699 -68.333 17.667 -97 33c-12 6.66699 -24 14.334 -36 23.001s-22.833 19 -32.5 31s-17.667 25.5 -24 40.5s-10.166 32.167 -11.499 51.5c-1.33301 21.333 -0.5 40.333 2.5 57
s7.66699 31.334 14 44.001s13.666 23.5 21.999 32.5s17.166 16.5 26.499 22.5c21.333 14 46 23.333 74 28c23.333 0.666992 44.333 -1.33301 63 -6s35.5 -11.167 50.5 -19.5s28 -18 39 -29s20.5 -22.5 28.5 -34.5c18.667 -27.333 32 -59 40 -95
c14 50.667 32.5 88.667 55.5 114s45.5 42.666 67.5 51.999c26 11.333 53 15.666 81 12.999c19.333 -2.66699 36 -7.16699 50 -13.5s25.833 -14 35.5 -23s17.5 -18.833 23.5 -29.5s10.667 -21.334 14 -32.001c7.33301 -25.333 9.33301 -53 6 -83z" />
    <glyph glyph-name="ordfeminine" unicode="&#xaa;" horiz-adv-x="234" 
d="M129.444 632.574c1.57129 4.69238 3.83008 8.79883 6.77637 12.3184c2.55371 3.12793 5.94141 6.01172 10.1641 8.65137s9.77148 3.95898 16.6455 3.95898c5.5 0 10.3125 -1.0752 14.4365 -3.22559c4.125 -2.15039 7.75879 -4.98535 10.9014 -8.50488
s5.79395 -7.52734 7.9541 -12.0244c2.16113 -4.49707 3.92871 -9.0918 5.30273 -13.7842c3.33887 -10.9482 5.20508 -23.3633 5.59863 -37.2451c0.588867 -11.1445 0.392578 -20.8711 -0.589844 -29.1807c-0.981445 -8.30957 -2.40527 -15.4463 -4.27148 -21.4092
c-1.86621 -5.96387 -4.07617 -10.9492 -6.62988 -14.957s-5.20508 -7.18457 -7.95508 -9.53125c-6.48145 -5.66992 -14.043 -8.30957 -22.6855 -7.91895c-5.30273 -0.195312 -10.3115 0.68457 -15.0254 2.63965c-3.92871 1.56445 -7.75879 4.25293 -11.4902 8.06543
s-6.08789 9.43359 -7.06934 16.8633c-1.96387 -5.86621 -5.49902 -10.8516 -10.6055 -14.957c-4.32129 -3.51953 -10.4102 -6.5498 -18.2666 -9.0918s-18.2666 -3.03027 -31.2295 -1.46582c-10.6064 1.17285 -20.0342 4.30078 -28.2832 9.38477
c-3.53613 2.15039 -7.02246 4.8877 -10.459 8.21094c-3.4375 3.32422 -6.48242 7.42969 -9.13379 12.3174s-4.7627 10.5576 -6.33398 17.0098s-2.35645 13.8818 -2.35645 22.2891c-0.393555 14.6641 1.47266 27.959 5.59766 39.8857
c1.76758 5.08301 4.12402 10.1172 7.07031 15.1025s6.67773 9.53125 11.1953 13.6367c4.51758 4.10645 9.91895 7.57715 16.2041 10.4121s13.749 4.64355 22.3906 5.42578c10.999 0.977539 19.8379 0.341797 26.5156 -1.90723
c6.67871 -2.24805 11.9814 -4.93652 15.9092 -8.06445c4.51758 -3.51953 7.75879 -7.82129 9.72266 -12.9043zM116.481 586.531c-3.33887 0 -6.2373 -1.27051 -8.69238 -3.8125s-3.48633 -5.37695 -3.09375 -8.50488c0.393555 -4.10645 1.62109 -6.94141 3.68262 -8.50488
c2.0625 -1.56445 4.76367 -2.34668 8.10254 -2.34668s6.08887 0.977539 8.24902 2.93262c2.16113 1.95508 3.24121 4.59473 3.24121 7.91895c0 3.12793 -0.982422 5.96289 -2.94629 8.50488s-4.81152 3.8125 -8.54297 3.8125z" />
    <glyph glyph-name="degree" unicode="&#xb0;" horiz-adv-x="390" 
d="M350 570c0 -20.667 -3.66699 -40 -11 -58s-17.666 -33.833 -30.999 -47.5s-29 -24.334 -47 -32.001s-38 -11.5 -60 -11.5s-42.167 3.83301 -60.5 11.5s-34.166 18.334 -47.499 32.001s-23.666 29.5 -30.999 47.5s-11 37.333 -11 58s3.66699 40 11 58
s17.666 33.667 30.999 47s29.166 24 47.499 32s38.5 12 60.5 12s42 -4 60 -12s33.667 -18.667 47 -32s23.666 -29 30.999 -47s11 -37.333 11 -58zM201 654c-14 0 -26.333 -2.66992 -37 -8.00293s-19.5 -12.166 -26.5 -20.499s-12.333 -17.666 -16 -27.999
s-5.5 -20.5 -5.5 -30.5c0 -21.333 7 -39.333 21 -54s35.333 -22 64 -22c28 0 48.667 7.33301 62 22s20 32.667 20 54c0 26.667 -7.66699 47.834 -23 63.501s-35 23.5 -59 23.5z" />
    <glyph glyph-name="twosuperior" unicode="&#xb2;" horiz-adv-x="194" 
d="M76.5215 716.65c14.7686 1.05176 27.002 0.108398 36.707 -2.83594c9.70508 -2.94336 17.4062 -6.51758 23.1025 -10.7217c6.75098 -4.83594 11.8145 -10.5127 15.1904 -17.0303c3.79785 -6.93848 6.3291 -13.8242 7.59473 -20.6572
c1.2666 -6.83301 1.68848 -13.5078 1.2666 -20.0254s-1.5293 -12.8252 -3.32324 -18.9219c-1.79297 -6.09668 -3.84961 -11.7734 -6.1709 -17.0303c-5.69629 -12.4043 -13.3975 -24.1777 -23.1025 -35.3213c9.49414 -0.209961 18.0391 -1.78711 25.6338 -4.73047
c3.16504 -1.26172 6.27734 -2.94336 9.33691 -5.0459s5.75 -4.67773 8.07129 -7.72656c2.32031 -3.04883 4.21875 -6.67578 5.69629 -10.8799c1.47656 -4.20508 2.10938 -9.14551 1.89844 -14.8223c-0.210938 -5.4668 -1.63477 -10.1973 -4.27246 -14.1914
c-2.63672 -3.99512 -6.11816 -7.35938 -10.4434 -10.0928s-9.17773 -4.99414 -14.5576 -6.78125s-10.8125 -3.20605 -16.2979 -4.25684c-13.0811 -2.31348 -27.8496 -3.25977 -44.3057 -2.83887c-16.8779 0 -29.958 1.94531 -39.2412 5.83496
s-16.2451 8.14746 -20.8867 12.7734c-5.48535 5.46582 -8.75586 11.668 -9.81055 18.6064c-1.05566 8.83008 -0.475586 16.4512 1.74023 22.8643c2.21582 6.41211 5.43359 12.1416 9.65332 17.1875s9.23047 9.8291 15.0322 14.3496l17.8799 14.3486
c2.9541 2.52246 5.69727 5.25586 8.22949 8.2002c2.53223 2.94336 4.58887 6.04395 6.1709 9.30273c1.58301 3.25879 2.37402 6.51758 2.37402 9.77637s-1.05469 6.36035 -3.16504 9.30371c-2.74316 3.57422 -5.9082 5.93945 -9.49512 7.0957
s-6.96289 1.52441 -10.1279 1.10352c-3.79785 -0.420898 -7.70117 -1.36719 -11.71 -2.83887c-7.17285 -1.47168 -12.7637 -0.893555 -16.7725 1.73438s-7.06836 5.83398 -9.17773 9.61816c-2.32129 4.2041 -4.00879 9.35547 -5.06348 15.4531
c-0.210938 5.25586 0.527344 10.0391 2.21484 14.3486c1.68848 4.31055 3.95703 8.09473 6.80566 11.3535c2.84766 3.25879 6.11816 6.14941 9.81055 8.67188s7.54297 4.625 11.5518 6.30762c9.2832 3.99414 19.9375 6.83203 31.9629 8.51465z" />
    <glyph glyph-name="threesuperior" unicode="&#xb3;" horiz-adv-x="210" 
d="M102.917 709.037c11.8193 0.601562 22.7383 0.204102 32.7539 -1.19824c8.61426 -1.20215 17.0781 -3.40527 25.3916 -6.61035s14.373 -8.11328 18.1787 -14.7236c4.00684 -7.41211 5.75977 -14.5234 5.25879 -21.334s-1.85352 -12.8203 -4.05762 -18.0283
c-2.60352 -6.20996 -6.20898 -12.0195 -10.8164 -17.4277c7.6123 -3.60547 13.7725 -8.21289 18.4805 -13.8223c4.70703 -5.6084 8.2627 -11.1172 10.666 -16.5264c2.80469 -6.41016 4.70801 -12.9199 5.70996 -19.5303
c1.40137 -14.2227 0.399414 -26.1416 -3.00586 -35.7568s-7.6123 -17.3271 -12.6201 -23.1367c-5.80957 -6.81055 -12.6201 -12.3193 -20.4326 -16.5264c-15.0244 -6.41016 -29.3467 -9.71484 -42.9678 -9.91504c-13.6221 -0.200195 -25.6416 0.901367 -36.0586 3.30469
c-12.2197 2.80469 -23.4375 7.11133 -33.6533 12.9209c-4.60742 3.00488 -8.21289 6.05957 -10.8174 9.16406c-2.60352 3.10449 -4.50684 6.15918 -5.70898 9.16406s-1.85352 5.90918 -1.9541 8.71387c-0.0996094 2.80371 0.151367 5.40723 0.751953 7.81055
c1.40137 5.60938 4.50586 11.0186 9.31348 16.2266c4.20605 4.20605 8.81348 6.55957 13.8223 7.06055c5.00781 0.500977 9.61523 0.250977 13.8213 -0.75c5.00781 -1.20215 10.0156 -3.30566 15.0244 -6.31055c4.60645 -2.80469 8.7627 -4.45703 12.4688 -4.95801
s6.86133 -0.550781 9.46582 -0.150391c3.00488 0.600586 5.60938 1.70215 7.81348 3.30469c2.20312 2.00293 3.65527 4.10645 4.35645 6.31055c0.701172 2.20312 0.951172 4.20605 0.750977 6.00977c-0.200195 2.20312 -0.901367 4.20605 -2.10352 6.00879
c-1.40137 2.2041 -3.2041 3.85645 -5.4082 4.95801c-2.20312 1.10254 -4.40625 1.85352 -6.61035 2.25391c-2.60449 0.600586 -5.30859 0.800781 -8.11328 0.600586c-9.61523 0 -16.7266 1.50293 -21.333 4.50781c-4.60742 3.00488 -7.91309 6.30957 -9.91602 9.91504
c-2.2041 4.20703 -3.30566 9.11523 -3.30566 14.7236s1.75293 10.3154 5.25879 14.1211c3.50488 3.80566 7.46094 6.81055 11.8682 9.01465c5.00781 2.60449 10.7168 4.70801 17.127 6.31055c-8.21289 -1.00098 -15.3242 -1.30176 -21.334 -0.901367
c-6.00977 0.401367 -11.168 1.15234 -15.4746 2.25391s-7.8623 2.50391 -10.667 4.20703c-2.80371 1.70215 -5.10742 3.55469 -6.91113 5.55762c-4.00586 4.60742 -5.90918 10.1162 -5.70898 16.5264c0 4.40723 0.901367 8.36328 2.7041 11.8682
c1.80371 3.50586 4.15723 6.51074 7.06152 9.01465c2.90527 2.50391 6.16016 4.65723 9.76562 6.45996s7.31152 3.30469 11.1172 4.50684c8.81445 2.60449 18.8301 4.20703 30.0479 4.80762z" />
    <glyph glyph-name="acute" unicode="&#xb4;" horiz-adv-x="342" 
d="M49 667c5.33301 6.66699 13.166 14.5 23.499 23.5s21.5 17.667 33.5 26s24.5 16 37.5 23s24.833 12.167 35.5 15.5c14.667 4.66699 27.5 7.33398 38.5 8.00098s20.333 -0.166016 28 -2.49902s14.334 -5.66602 20.001 -9.99902s11.167 -8.83301 16.5 -13.5
c5.33301 -5.33301 10.333 -12.333 15 -21s7.5 -18 8.5 -28s-0.5 -20.5 -4.5 -31.5s-12.333 -21.833 -25 -32.5c-14 -12.667 -30.333 -22.834 -49 -30.501s-36.667 -14.167 -54 -19.5c-20 -6 -40 -10.667 -60 -14c-10.667 -2.66699 -21 -3.33398 -31 -2.00098
c-8.66699 1.33301 -17.334 4 -26.001 8s-15.667 11.667 -21 23c-5.33301 10 -7.66602 19.667 -6.99902 29s2.66699 17.666 6 24.999c3.33301 8 8.33301 16 15 24z" />
    <glyph glyph-name="mu" unicode="&#xb5;" horiz-adv-x="833" 
d="M95 361c3.33301 24.667 10.6631 46.665 21.9961 65.998c9.33301 16.667 23.333 31.834 42 45.501s44.334 20.5 77.001 20.5c16.667 0 31.167 -2.16699 43.5 -6.5s22.666 -10 30.999 -17s14.833 -14.833 19.5 -23.5s8.33398 -17.667 11.001 -27
c6 -22 7.33301 -46.333 4 -73c0 -20.667 -0.166992 -40 -0.5 -58s0.666992 -33.5 3 -46.5s6.5 -23.333 12.5 -31s15 -11.5 27 -11.5c12.667 0 21.334 7.66699 26.001 23s7.66699 32.666 9 51.999c1.33301 22 0.333008 47 -3 75
c-3.33301 39.333 0.333984 68.666 11.001 87.999s23 33.333 37 42c16.667 9.33301 35.667 14 57 14c16.667 -2.66699 31.334 -7.83398 44.001 -15.501s23.5 -17 32.5 -28s16.333 -23 22 -36s10.167 -25.833 13.5 -38.5c7.33301 -30.667 10.666 -64.667 9.99902 -102
c-1.33301 -42 -6.16602 -78 -14.499 -108s-19 -55.167 -32 -75.5s-27.833 -36.666 -44.5 -48.999s-33.334 -21.833 -50.001 -28.5c-40 -15.333 -85 -18.666 -135 -9.99902c0 -30.667 -2 -59.5 -6 -86.5s-11.333 -50.5 -22 -70.5s-25.667 -35.833 -45 -47.5
s-44.333 -17.5 -75 -17.5c-27.333 0 -49 7.66699 -65 23s-28.333 32.333 -37 51c-10 22 -17 46.667 -21 74c-7.33301 62.667 -11.666 120.334 -12.999 173.001s-1.33301 98.334 0 137.001c2 45.333 5 86.333 9 123z" />
    <glyph glyph-name="mu" unicode="&#x3bc;" horiz-adv-x="833" 
d="M95 361c3.33301 24.667 10.6631 46.665 21.9961 65.998c9.33301 16.667 23.333 31.834 42 45.501s44.334 20.5 77.001 20.5c16.667 0 31.167 -2.16699 43.5 -6.5s22.666 -10 30.999 -17s14.833 -14.833 19.5 -23.5s8.33398 -17.667 11.001 -27
c6 -22 7.33301 -46.333 4 -73c0 -20.667 -0.166992 -40 -0.5 -58s0.666992 -33.5 3 -46.5s6.5 -23.333 12.5 -31s15 -11.5 27 -11.5c12.667 0 21.334 7.66699 26.001 23s7.66699 32.666 9 51.999c1.33301 22 0.333008 47 -3 75
c-3.33301 39.333 0.333984 68.666 11.001 87.999s23 33.333 37 42c16.667 9.33301 35.667 14 57 14c16.667 -2.66699 31.334 -7.83398 44.001 -15.501s23.5 -17 32.5 -28s16.333 -23 22 -36s10.167 -25.833 13.5 -38.5c7.33301 -30.667 10.666 -64.667 9.99902 -102
c-1.33301 -42 -6.16602 -78 -14.499 -108s-19 -55.167 -32 -75.5s-27.833 -36.666 -44.5 -48.999s-33.334 -21.833 -50.001 -28.5c-40 -15.333 -85 -18.666 -135 -9.99902c0 -30.667 -2 -59.5 -6 -86.5s-11.333 -50.5 -22 -70.5s-25.667 -35.833 -45 -47.5
s-44.333 -17.5 -75 -17.5c-27.333 0 -49 7.66699 -65 23s-28.333 32.333 -37 51c-10 22 -17 46.667 -21 74c-7.33301 62.667 -11.666 120.334 -12.999 173.001s-1.33301 98.334 0 137.001c2 45.333 5 86.333 9 123z" />
    <glyph glyph-name="paragraph" unicode="&#xb6;" horiz-adv-x="702" 
d="M411 681c46 -2 81.6641 -7.50098 106.997 -16.501s44 -18.167 56 -27.5c14 -12 22.333 -24.667 25 -38c2.66699 -18 0.5 -33.167 -6.5 -45.5s-15.167 -22.166 -24.5 -29.499c-11.333 -8.66699 -24.666 -15.667 -39.999 -21c8 -116.667 12 -220.334 12 -311.001
c0 -38.667 -1 -76.667 -3 -114s-5.16699 -70.5 -9.5 -99.5s-10.333 -52.333 -18 -70s-17.5 -26.5 -29.5 -26.5s-22.167 8.83301 -30.5 26.5s-15.333 41 -21 70s-10.167 62.167 -13.5 99.5s-5.66602 75.333 -6.99902 114c-3.33301 90.667 -3.33301 194.334 0 311.001h-24
c2.66699 -116.667 2 -220.334 -2 -311.001c-2 -38.667 -4.66699 -76.667 -8 -114s-7.66602 -70.5 -12.999 -99.5s-12 -52.333 -20 -70s-17.667 -26.5 -29 -26.5c-12 0 -22.167 6.16699 -30.5 18.5s-15.333 28.5 -21 48.5s-10 42.833 -13 68.5s-5.16699 52.167 -6.5 79.5
c-3.33301 62.667 -3.33301 134.334 0 215.001c-24 0 -45 2.33301 -63 7s-33.833 10.834 -47.5 18.501s-25 16.5 -34 26.5s-16.5 20.333 -22.5 31c-14 24.667 -22 52.667 -24 84c0 30 5.16699 55.833 15.5 77.5s24 40 41 55s36.167 27.167 57.5 36.5s43.333 16.666 66 21.999
c52.667 12 113 15.667 181 11z" />
    <glyph glyph-name="onesuperior" unicode="&#xb9;" horiz-adv-x="170" 
d="M68.5703 635.88c-6.99512 -4.92969 -13.8877 -8.5293 -20.6768 -10.7891c-5.76074 -1.84863 -11.624 -2.31055 -17.5898 -1.38574c-5.96582 0.923828 -10.6973 4.98047 -14.1943 12.1699c-2.46875 4.92969 -3.90918 9.60254 -4.32031 14.0186
c-0.411133 4.41699 -0.0507812 8.57617 1.08105 12.4785s2.77734 7.54785 4.9375 10.9375s4.57715 6.52246 7.25195 9.39844c6.17188 6.77832 14.0928 12.7354 23.7617 17.8711c10.4922 5.13574 20.0068 8.01172 28.5449 8.62793s15.79 0.308594 21.7559 -0.922852
c6.99512 -1.43848 13.2695 -4.00586 18.8242 -7.70312c4.9375 -3.49219 9.15527 -8.31934 12.6523 -14.4805c3.49707 -6.16309 6.32617 -13.0957 8.48633 -20.7979s3.85742 -15.918 5.0918 -24.6475s2.05762 -17.4072 2.46875 -26.0332
c1.02832 -20.1299 0.513672 -41.7998 -1.54395 -65.0098c-0.617188 -7.18945 -1.64551 -13.4033 -3.08594 -18.6406s-3.24023 -9.80762 -5.40039 -13.71c-2.16016 -3.90332 -4.52637 -7.13867 -7.09766 -9.70605s-5.19434 -4.57031 -7.86914 -6.00879
c-6.17188 -3.69727 -12.9609 -5.5459 -20.3672 -5.5459c-8.02344 0 -14.5557 1.90039 -19.5957 5.7002s-9 8.06152 -11.8799 12.7852c-3.29199 5.34082 -5.6582 11.5029 -7.09863 18.4863c-2.46875 12.3242 -3.60059 24.5967 -3.39453 36.8184
s1.0293 23.2617 2.46973 33.1211c1.64551 11.5029 3.9082 22.4922 6.78809 32.9678z" />
    <glyph glyph-name="questiondown" unicode="&#xbf;" horiz-adv-x="646" 
d="M138 442c0 34.667 12.333 61.501 37 80.501s56.334 28.5 95.001 28.5s69.5 -10.833 92.5 -32.5s34.5 -47.834 34.5 -78.501c0 -36 -11.5 -63.667 -34.5 -83s-53.833 -29 -92.5 -29s-70.334 10.5 -95.001 31.5s-37 48.5 -37 82.5zM122 213.001
c-6.66699 -10.667 -14.1689 -25.5029 -22.502 -44.5029s-15.666 -40.667 -21.999 -65s-10.833 -50.166 -13.5 -77.499s-1.83398 -54.166 2.49902 -80.499s13 -51.166 26 -74.499s32.167 -43 57.5 -59c27.333 -17.333 53.5 -30.666 78.5 -39.999s48.667 -15.5 71 -18.5
s43.333 -3.5 63 -1.5s37.5 5.66699 53.5 11c38 11.333 72 30.333 102 57c18.667 19.333 33.167 37.833 43.5 55.5s17.5 34.5 21.5 50.5s5.66699 31 5 45s-3 26.667 -7 38c-8.66699 26.667 -24.667 51 -48 73c-12 10 -24.167 17.167 -36.5 21.5s-24.5 6.66602 -36.5 6.99902
s-23.5 -1 -34.5 -4s-21.5 -6.83301 -31.5 -11.5c-22.667 -10.667 -44.667 -26 -66 -46c18.667 31.333 32.334 61 41.001 89c4 12 6.83301 24.167 8.5 36.5s1.83398 24.333 0.500977 36s-4.83301 22.5 -10.5 32.5s-14.167 18.667 -25.5 26
c-18 10.667 -34.833 18.167 -50.5 22.5s-30.334 6.33301 -44.001 6s-26.167 -2.83301 -37.5 -7.5s-21.666 -10 -30.999 -16c-22 -14.667 -41 -35 -57 -61z" />
    <glyph glyph-name="Agrave" unicode="&#xc0;" 
d="M355 945c10.667 -3.33301 22.5 -8.5 35.5 -15.5s25.5 -14.667 37.5 -23s23.167 -17 33.5 -26s18.166 -16.833 23.499 -23.5c6 -8 10.667 -16 14 -24c3.33301 -7.33301 5.5 -15.666 6.5 -24.999s-1.16699 -19 -6.5 -29c-5.33301 -11.333 -12.333 -19 -21 -23
s-17.334 -6.66699 -26.001 -8c-10 -1.33301 -20.333 -0.666016 -31 2.00098c-20.667 3.33301 -41 8 -61 14c-17.333 5.33301 -35.166 11.833 -53.499 19.5s-34.5 17.834 -48.5 30.501c-12.667 10.667 -21 21.5 -25 32.5s-5.5 21.5 -4.5 31.5s3.83301 19.333 8.5 28
s9.66699 15.667 15 21c4.66699 4.66699 10 9.16699 16 13.5s12.833 7.66602 20.5 9.99902s16.834 3.16602 27.501 2.49902s23.667 -3.33398 39 -8.00098zM622 9c-16 -5.33301 -32.665 -8.66602 -49.998 -9.99902c-14.667 -1.33301 -30.834 -0.666016 -48.501 2.00098
s-35.167 9 -52.5 19c-20 12 -36.167 25.833 -48.5 41.5s-22.166 31 -29.499 46s-12.333 28.667 -15 41s-4.33398 20.5 -5.00098 24.5c-0.666992 -4 -2.33398 -12.167 -5.00098 -24.5s-7.66699 -26 -15 -41s-17.166 -30.333 -29.499 -46s-28.5 -29.5 -48.5 -41.5
c-17.333 -10 -34.833 -16.333 -52.5 -19s-33.834 -3.33398 -48.501 -2.00098c-17.333 1.33301 -34 4.66602 -50 9.99902c-13.333 4.66699 -24.833 10.834 -34.5 18.501s-17.667 16.334 -24 26.001s-11.666 20 -15.999 31s-7.5 21.833 -9.5 32.5
c-5.33301 25.333 -7.33301 52.333 -6 81c2 47.333 7.33301 90.833 16 130.5s19.5 76 32.5 109s27.167 62.667 42.5 89s30.333 50.166 45 71.499c22 32 44.5 56.333 67.5 73s44.333 28.834 64 36.501s36 12 49 13s20.5 1.5 22.5 1.5s9.5 -0.5 22.5 -1.5
s29.333 -5.33301 49 -13s41.167 -19.834 64.5 -36.501s46 -41 68 -73c14.667 -21.333 29.5 -45.166 44.5 -71.499s29 -56 42 -89s23.833 -69.333 32.5 -109s14 -83.167 16 -130.5c2 -28.667 0.333008 -55.667 -5 -81c-2 -10.667 -5.16699 -21.5 -9.5 -32.5
s-9.83301 -21.333 -16.5 -31s-14.834 -18.334 -24.501 -26.001s-21.167 -13.834 -34.5 -18.501zM377.002 369c-11.333 0 -21.165 -4.33301 -29.498 -13s-11.833 -18.334 -10.5 -29.001c1.33301 -14 5.5 -23.667 12.5 -29s16.167 -8 27.5 -8s20.666 3.33301 27.999 10
s11 15.667 11 27c0 10.667 -3.33301 20.334 -10 29.001s-16.334 13 -29.001 13z" />
    <glyph glyph-name="Aacute" unicode="&#xc1;" 
d="M241 852c5.33301 6.66699 13.166 14.5 23.499 23.5s21.5 17.667 33.5 26s24.5 16 37.5 23s24.833 12.167 35.5 15.5c14.667 4.66699 27.5 7.33398 38.5 8.00098s20.333 -0.166016 28 -2.49902s14.334 -5.66602 20.001 -9.99902s11.167 -8.83301 16.5 -13.5
c5.33301 -5.33301 10.333 -12.333 15 -21s7.5 -18 8.5 -28s-0.5 -20.5 -4.5 -31.5s-12.333 -21.833 -25 -32.5c-14 -12.667 -30.333 -22.834 -49 -30.501s-36.667 -14.167 -54 -19.5c-20 -6 -40 -10.667 -60 -14c-10.667 -2.66699 -21 -3.33398 -31 -2.00098
c-8.66699 1.33301 -17.334 4 -26.001 8s-15.667 11.667 -21 23c-5.33301 10 -7.66602 19.667 -6.99902 29s2.66699 17.666 6 24.999c3.33301 8 8.33301 16 15 24zM622 9c-16 -5.33301 -32.665 -8.66602 -49.998 -9.99902
c-14.667 -1.33301 -30.834 -0.666016 -48.501 2.00098s-35.167 9 -52.5 19c-20 12 -36.167 25.833 -48.5 41.5s-22.166 31 -29.499 46s-12.333 28.667 -15 41s-4.33398 20.5 -5.00098 24.5c-0.666992 -4 -2.33398 -12.167 -5.00098 -24.5s-7.66699 -26 -15 -41
s-17.166 -30.333 -29.499 -46s-28.5 -29.5 -48.5 -41.5c-17.333 -10 -34.833 -16.333 -52.5 -19s-33.834 -3.33398 -48.501 -2.00098c-17.333 1.33301 -34 4.66602 -50 9.99902c-13.333 4.66699 -24.833 10.834 -34.5 18.501s-17.667 16.334 -24 26.001
s-11.666 20 -15.999 31s-7.5 21.833 -9.5 32.5c-5.33301 25.333 -7.33301 52.333 -6 81c2 47.333 7.33301 90.833 16 130.5s19.5 76 32.5 109s27.167 62.667 42.5 89s30.333 50.166 45 71.499c22 32 44.5 56.333 67.5 73s44.333 28.834 64 36.501s36 12 49 13
s20.5 1.5 22.5 1.5s9.5 -0.5 22.5 -1.5s29.333 -5.33301 49 -13s41.167 -19.834 64.5 -36.501s46 -41 68 -73c14.667 -21.333 29.5 -45.166 44.5 -71.499s29 -56 42 -89s23.833 -69.333 32.5 -109s14 -83.167 16 -130.5c2 -28.667 0.333008 -55.667 -5 -81
c-2 -10.667 -5.16699 -21.5 -9.5 -32.5s-9.83301 -21.333 -16.5 -31s-14.834 -18.334 -24.501 -26.001s-21.167 -13.834 -34.5 -18.501zM377.002 369c-11.333 0 -21.165 -4.33301 -29.498 -13s-11.833 -18.334 -10.5 -29.001c1.33301 -14 5.5 -23.667 12.5 -29
s16.167 -8 27.5 -8s20.666 3.33301 27.999 10s11 15.667 11 27c0 10.667 -3.33301 20.334 -10 29.001s-16.334 13 -29.001 13z" />
    <glyph glyph-name="Acircumflex" unicode="&#xc2;" 
d="M221 842c0.666992 0.666992 5.33398 5.99805 14.001 15.998s20 20.667 34 32s30 21.833 48 31.5s36.667 14.5 56 14.5c18.667 0 36.667 -4.83301 54 -14.5s33 -20.5 47 -32.5s25.167 -23.167 33.5 -33.5s12.833 -15.833 13.5 -16.5
c9.33301 -12.667 12.666 -26.667 9.99902 -42s-10.667 -27.666 -24 -36.999s-27.666 -12.666 -42.999 -9.99902s-27.666 10.667 -36.999 24h1l-4.5 5c-3 3.33301 -7 7.5 -12 12.5s-10.667 10.333 -17 16s-13.5 10.5 -21.5 14.5c-9.33301 -6 -18 -12 -26 -18
s-14.667 -11.667 -20 -17c-6.66699 -6 -12.334 -11.333 -17.001 -16c-7.33301 -8 -15 -14 -23 -18c-7.33301 -3.33301 -15.833 -5 -25.5 -5s-20.167 4.66699 -31.5 14c-12.667 10 -19.834 22.833 -21.501 38.5s2.5 29.5 12.5 41.5zM622 8.99805
c-16 -5.33301 -32.665 -8.66602 -49.998 -9.99902c-14.667 -1.33301 -30.834 -0.666016 -48.501 2.00098s-35.167 9 -52.5 19c-20 12 -36.167 25.833 -48.5 41.5s-22.166 31 -29.499 46s-12.333 28.667 -15 41s-4.33398 20.5 -5.00098 24.5
c-0.666992 -4 -2.33398 -12.167 -5.00098 -24.5s-7.66699 -26 -15 -41s-17.166 -30.333 -29.499 -46s-28.5 -29.5 -48.5 -41.5c-17.333 -10 -34.833 -16.333 -52.5 -19s-33.834 -3.33398 -48.501 -2.00098c-17.333 1.33301 -34 4.66602 -50 9.99902
c-13.333 4.66699 -24.833 10.834 -34.5 18.501s-17.667 16.334 -24 26.001s-11.666 20 -15.999 31s-7.5 21.833 -9.5 32.5c-5.33301 25.333 -7.33301 52.333 -6 81c2 47.333 7.33301 90.833 16 130.5s19.5 76 32.5 109s27.167 62.667 42.5 89s30.333 50.166 45 71.499
c22 32 44.5 56.333 67.5 73s44.333 28.834 64 36.501s36 12 49 13s20.5 1.5 22.5 1.5s9.5 -0.5 22.5 -1.5s29.333 -5.33301 49 -13s41.167 -19.834 64.5 -36.501s46 -41 68 -73c14.667 -21.333 29.5 -45.166 44.5 -71.499s29 -56 42 -89s23.833 -69.333 32.5 -109
s14 -83.167 16 -130.5c2 -28.667 0.333008 -55.667 -5 -81c-2 -10.667 -5.16699 -21.5 -9.5 -32.5s-9.83301 -21.333 -16.5 -31s-14.834 -18.334 -24.501 -26.001s-21.167 -13.834 -34.5 -18.501zM377.002 368.998c-11.333 0 -21.165 -4.33301 -29.498 -13
s-11.833 -18.334 -10.5 -29.001c1.33301 -14 5.5 -23.667 12.5 -29s16.167 -8 27.5 -8s20.666 3.33301 27.999 10s11 15.667 11 27c0 10.667 -3.33301 20.334 -10 29.001s-16.334 13 -29.001 13z" />
    <glyph glyph-name="Atilde" unicode="&#xc3;" 
d="M550 815c-10 -18 -21.3311 -31.667 -33.998 -41s-25.667 -15.666 -39 -18.999s-26.833 -4 -40.5 -2s-26.834 5.33301 -39.501 10c-30 11.333 -60.667 30 -92 56c-6 -22.667 -14.5 -38.5 -25.5 -47.5s-22.167 -14.5 -33.5 -16.5
c-12.667 -2.66699 -26.334 -1.66699 -41.001 3c-8.66699 2.66699 -16.5 7.33398 -23.5 14.001s-12.5 14.334 -16.5 23.001s-6.5 17.667 -7.5 27s0.166992 18.333 3.5 27c12 36 29.333 62.667 52 80c10 7.33301 21.5 13.166 34.5 17.499s28 5.5 45 3.5
s36.167 -7.83301 57.5 -17.5s45 -24.5 71 -44.5c0.666992 -0.666992 1 -1.33398 1 -2.00098s0.333008 -1.33398 1 -2.00098c6.66699 19.333 17.667 34.5 33 45.5s33.333 13.167 54 6.5c16.667 -6 30 -14.333 40 -25c8.66699 -9.33301 14.167 -21.833 16.5 -37.5
s-3.16699 -35.167 -16.5 -58.5zM622.002 9c-16 -5.33301 -32.665 -8.66602 -49.998 -9.99902c-14.667 -1.33301 -30.834 -0.666016 -48.501 2.00098s-35.167 9 -52.5 19c-20 12 -36.167 25.833 -48.5 41.5s-22.166 31 -29.499 46s-12.333 28.667 -15 41
s-4.33398 20.5 -5.00098 24.5c-0.666992 -4 -2.33398 -12.167 -5.00098 -24.5s-7.66699 -26 -15 -41s-17.166 -30.333 -29.499 -46s-28.5 -29.5 -48.5 -41.5c-17.333 -10 -34.833 -16.333 -52.5 -19s-33.834 -3.33398 -48.501 -2.00098
c-17.333 1.33301 -34 4.66602 -50 9.99902c-13.333 4.66699 -24.833 10.834 -34.5 18.501s-17.667 16.334 -24 26.001s-11.666 20 -15.999 31s-7.5 21.833 -9.5 32.5c-5.33301 25.333 -7.33301 52.333 -6 81c2 47.333 7.33301 90.833 16 130.5s19.5 76 32.5 109
s27.167 62.667 42.5 89s30.333 50.166 45 71.499c22 32 44.5 56.333 67.5 73s44.333 28.834 64 36.501s36 12 49 13s20.5 1.5 22.5 1.5s9.5 -0.5 22.5 -1.5s29.333 -5.33301 49 -13s41.167 -19.834 64.5 -36.501s46 -41 68 -73c14.667 -21.333 29.5 -45.166 44.5 -71.499
s29 -56 42 -89s23.833 -69.333 32.5 -109s14 -83.167 16 -130.5c2 -28.667 0.333008 -55.667 -5 -81c-2 -10.667 -5.16699 -21.5 -9.5 -32.5s-9.83301 -21.333 -16.5 -31s-14.834 -18.334 -24.501 -26.001s-21.167 -13.834 -34.5 -18.501zM377.004 369
c-11.333 0 -21.165 -4.33301 -29.498 -13s-11.833 -18.334 -10.5 -29.001c1.33301 -14 5.5 -23.667 12.5 -29s16.167 -8 27.5 -8s20.666 3.33301 27.999 10s11 15.667 11 27c0 10.667 -3.33301 20.334 -10 29.001s-16.334 13 -29.001 13z" />
    <glyph glyph-name="Adieresis" unicode="&#xc4;" 
d="M355 823c0 -21.333 -6.5 -39.666 -19.5 -54.999s-32.167 -23 -57.5 -23s-44.5 7.66699 -57.5 23s-19.5 33.666 -19.5 54.999s6.5 39.5 19.5 54.5s32.167 22.5 57.5 22.5s44.5 -7.5 57.5 -22.5s19.5 -33.167 19.5 -54.5zM538 823c0 -21.333 -6.5 -39.666 -19.5 -54.999
s-32.167 -23 -57.5 -23s-44.5 7.66699 -57.5 23s-19.5 33.666 -19.5 54.999s6.5 39.5 19.5 54.5s32.167 22.5 57.5 22.5s44.5 -7.5 57.5 -22.5s19.5 -33.167 19.5 -54.5zM622 9c-16 -5.33301 -32.665 -8.66602 -49.998 -9.99902
c-14.667 -1.33301 -30.834 -0.666016 -48.501 2.00098s-35.167 9 -52.5 19c-20 12 -36.167 25.833 -48.5 41.5s-22.166 31 -29.499 46s-12.333 28.667 -15 41s-4.33398 20.5 -5.00098 24.5c-0.666992 -4 -2.33398 -12.167 -5.00098 -24.5s-7.66699 -26 -15 -41
s-17.166 -30.333 -29.499 -46s-28.5 -29.5 -48.5 -41.5c-17.333 -10 -34.833 -16.333 -52.5 -19s-33.834 -3.33398 -48.501 -2.00098c-17.333 1.33301 -34 4.66602 -50 9.99902c-13.333 4.66699 -24.833 10.834 -34.5 18.501s-17.667 16.334 -24 26.001
s-11.666 20 -15.999 31s-7.5 21.833 -9.5 32.5c-5.33301 25.333 -7.33301 52.333 -6 81c2 47.333 7.33301 90.833 16 130.5s19.5 76 32.5 109s27.167 62.667 42.5 89s30.333 50.166 45 71.499c22 32 44.5 56.333 67.5 73s44.333 28.834 64 36.501s36 12 49 13
s20.5 1.5 22.5 1.5s9.5 -0.5 22.5 -1.5s29.333 -5.33301 49 -13s41.167 -19.834 64.5 -36.501s46 -41 68 -73c14.667 -21.333 29.5 -45.166 44.5 -71.499s29 -56 42 -89s23.833 -69.333 32.5 -109s14 -83.167 16 -130.5c2 -28.667 0.333008 -55.667 -5 -81
c-2 -10.667 -5.16699 -21.5 -9.5 -32.5s-9.83301 -21.333 -16.5 -31s-14.834 -18.334 -24.501 -26.001s-21.167 -13.834 -34.5 -18.501zM377.002 369c-11.333 0 -21.165 -4.33301 -29.498 -13s-11.833 -18.334 -10.5 -29.001c1.33301 -14 5.5 -23.667 12.5 -29
s16.167 -8 27.5 -8s20.666 3.33301 27.999 10s11 15.667 11 27c0 10.667 -3.33301 20.334 -10 29.001s-16.334 13 -29.001 13z" />
    <glyph glyph-name="Aring" unicode="&#xc5;" 
d="M492 802c0 -16 -3.16699 -31 -9.5 -45s-15 -26.167 -26 -36.5s-24 -18.5 -39 -24.5s-30.833 -9 -47.5 -9c-17.333 0 -33.333 3 -48 9s-27.667 14.167 -39 24.5s-20.166 22.5 -26.499 36.5s-9.5 29 -9.5 45s3.16699 30.833 9.5 44.5s15.166 25.834 26.499 36.501
s24.333 19 39 25s30.667 9 48 9c16.667 0 32.5 -3 47.5 -9s28 -14.333 39 -25s19.667 -22.834 26 -36.501s9.5 -28.5 9.5 -44.5zM370 854c-18 0 -31.167 -5.16895 -39.5 -15.502s-12.5 -23.166 -12.5 -38.499c0 -16.667 4.83301 -29.167 14.5 -37.5s22.167 -12.5 37.5 -12.5
c14 0 26.167 4.16699 36.5 12.5s15.5 20.833 15.5 37.5c0 20.667 -5.33301 34.834 -16 42.501s-22.667 11.5 -36 11.5zM622 8.99805c-16 -5.33301 -32.665 -8.66602 -49.998 -9.99902c-14.667 -1.33301 -30.834 -0.666016 -48.501 2.00098s-35.167 9 -52.5 19
c-20 12 -36.167 25.833 -48.5 41.5s-22.166 31 -29.499 46s-12.333 28.667 -15 41s-4.33398 20.5 -5.00098 24.5c-0.666992 -4 -2.33398 -12.167 -5.00098 -24.5s-7.66699 -26 -15 -41s-17.166 -30.333 -29.499 -46s-28.5 -29.5 -48.5 -41.5
c-17.333 -10 -34.833 -16.333 -52.5 -19s-33.834 -3.33398 -48.501 -2.00098c-17.333 1.33301 -34 4.66602 -50 9.99902c-13.333 4.66699 -24.833 10.834 -34.5 18.501s-17.667 16.334 -24 26.001s-11.666 20 -15.999 31s-7.5 21.833 -9.5 32.5
c-5.33301 25.333 -7.33301 52.333 -6 81c2 47.333 7.33301 90.833 16 130.5s19.5 76 32.5 109s27.167 62.667 42.5 89s30.333 50.166 45 71.499c22 32 44.5 56.333 67.5 73s44.333 28.834 64 36.501s36 12 49 13s20.5 1.5 22.5 1.5s9.5 -0.5 22.5 -1.5
s29.333 -5.33301 49 -13s41.167 -19.834 64.5 -36.501s46 -41 68 -73c14.667 -21.333 29.5 -45.166 44.5 -71.499s29 -56 42 -89s23.833 -69.333 32.5 -109s14 -83.167 16 -130.5c2 -28.667 0.333008 -55.667 -5 -81c-2 -10.667 -5.16699 -21.5 -9.5 -32.5
s-9.83301 -21.333 -16.5 -31s-14.834 -18.334 -24.501 -26.001s-21.167 -13.834 -34.5 -18.501zM377.002 368.998c-11.333 0 -21.165 -4.33301 -29.498 -13s-11.833 -18.334 -10.5 -29.001c1.33301 -14 5.5 -23.667 12.5 -29s16.167 -8 27.5 -8s20.666 3.33301 27.999 10
s11 15.667 11 27c0 10.667 -3.33301 20.334 -10 29.001s-16.334 13 -29.001 13z" />
    <glyph glyph-name="AE" unicode="&#xc6;" horiz-adv-x="1139" 
d="M888 266c28.667 0.666992 53.999 -0.672852 75.999 -4.00586s41 -8 57 -14s29.333 -13 40 -21s19.667 -16 27 -24c16 -20 24.667 -42.667 26 -68c-0.666992 -16 -4.66699 -30.167 -12 -42.5s-16.666 -23.166 -27.999 -32.499s-24.166 -17.166 -38.499 -23.499
s-28.833 -11.5 -43.5 -15.5c-34.667 -10 -74 -16 -118 -18c-50 -4 -92.667 -3.5 -128 1.5s-65.666 12.167 -90.999 21.5c-11.333 -11.333 -25.333 -20 -42 -26c-16 -5.33301 -32.667 -8.66602 -50 -9.99902c-14.667 -1.33301 -30.834 -0.666016 -48.501 2.00098
s-35.167 9 -52.5 19c-20 12 -36.167 25.833 -48.5 41.5s-22.166 31 -29.499 46s-12.333 28.667 -15 41s-4.33398 20.5 -5.00098 24.5c-0.666992 -4 -2.33398 -12.167 -5.00098 -24.5s-7.66699 -26 -15 -41s-17.166 -30.333 -29.499 -46s-28.5 -29.5 -48.5 -41.5
c-17.333 -10 -34.833 -16.333 -52.5 -19s-33.834 -3.33398 -48.501 -2.00098c-17.333 1.33301 -34 4.66602 -50 9.99902c-13.333 4.66699 -24.833 10.834 -34.5 18.501s-17.667 16.334 -24 26.001s-11.666 20 -15.999 31s-7.5 21.833 -9.5 32.5
c-5.33301 25.333 -7.33301 52.333 -6 81c2 47.333 7.33301 90.833 16 130.5s19.5 76 32.5 109s27.167 62.667 42.5 89s30.333 50.166 45 71.499c22 32 44.5 56.333 67.5 73s44.333 28.834 64 36.501s36 12 49 13s20.5 1.5 22.5 1.5s9 -0.5 21 -1.5s27.167 -4.66699 45.5 -11
s38.5 -16.833 60.5 -31.5s43.667 -36 65 -64c8 16.667 18.667 31 32 43s28 22.333 44 31s33 15.834 51 21.501s35.667 10.167 53 13.5c41.333 7.33301 85 10.666 131 9.99902c32 0.666992 60 -0.5 84 -3.5s44.667 -7.33301 62 -13s31.833 -12 43.5 -19
s21.167 -14.167 28.5 -21.5c17.333 -17.333 26.333 -37.666 27 -60.999c0 -20 -3.16699 -37.333 -9.5 -52s-15 -27.334 -26 -38.001s-23.667 -19.334 -38 -26.001s-28.833 -12 -43.5 -16c-35.333 -9.33301 -75.333 -13.333 -120 -12
c37.333 -3.33301 65.166 -10.166 83.499 -20.499s31.5 -21.166 39.5 -32.499c8.66699 -13.333 13 -27.666 13 -42.999c0 -22 -5.16699 -39.5 -15.5 -52.5s-22.5 -23 -36.5 -30s-27.833 -11.667 -41.5 -14s-23.5 -3.5 -29.5 -3.5zM366.999 353.993
c-11.333 0 -21.165 -4.33301 -29.498 -13s-11.833 -18.334 -10.5 -29.001c1.33301 -14 5.5 -23.667 12.5 -29s16.167 -8 27.5 -8s20.666 3.33301 27.999 10s11 15.667 11 27c0 10.667 -3.33301 20.334 -10 29.001s-16.334 13 -29.001 13z" />
    <glyph glyph-name="Ccedilla" unicode="&#xc7;" horiz-adv-x="670" 
d="M639 170c1.33301 -18.667 -0.333984 -36.9951 -5.00098 -54.9951c-4 -15.333 -11.167 -31.5 -21.5 -48.5s-26.5 -31.5 -48.5 -43.5c-14.667 -8 -32 -14.667 -52 -20c-17.333 -4.66699 -38.833 -8.5 -64.5 -11.5s-55.5 -2.83301 -89.5 0.5v-33
c13.333 0 26.833 -1.33301 40.5 -4s25.834 -7.66699 36.501 -15c9.33301 -6.66699 18.833 -16.667 28.5 -30s14.5 -30.333 14.5 -51c0 -19.333 -3.33301 -34.833 -10 -46.5s-15.334 -21.834 -26.001 -30.501c-11.333 -9.33301 -23.833 -15.833 -37.5 -19.5
s-26.834 -6.16699 -39.501 -7.5c-14.667 -1.33301 -29.667 -1 -45 1c-12.667 0 -23.667 4.33301 -33 13s-13.333 20 -12 34c1.33301 11.333 5.5 20.166 12.5 26.499s17.833 9.5 32.5 9.5c12 -2 22.667 -2.66699 32 -2c8 0.666992 15.5 2.5 22.5 5.5s10.5 8.5 10.5 16.5
c0 12.667 -4.66699 20.834 -14 24.501s-27 5.5 -53 5.5c-5.33301 0 -10.833 0.666992 -16.5 2s-11 3.33301 -16 6s-9.16699 6.5 -12.5 11.5s-5 11.5 -5 19.5v77c-6 1.33301 -12.333 2.83301 -19 4.5s-13.334 3.5 -20.001 5.5c-38.667 12.667 -73.334 33 -104.001 61
c-13.333 12 -26 26.167 -38 42.5s-22.833 35.333 -32.5 57s-17.167 46.334 -22.5 74.001s-7.66602 58.5 -6.99902 92.5c0.666992 50 9.66699 96.333 27 139c7.33301 18 17 36.333 29 55s26.833 36.334 44.5 53.001s38.834 31.667 63.501 45s53.334 23.666 86.001 30.999
s66 11.333 100 12c29.333 0.666992 61.5 -2 96.5 -8s69.167 -18.667 102.5 -38c17.333 -12 31 -26.667 41 -44c8.66699 -14.667 14.5 -32.834 17.5 -54.501s-1.5 -47.167 -13.5 -76.5c-7.33301 -14.667 -17.333 -26.667 -30 -36
c-11.333 -8.66699 -26.333 -15.334 -45 -20.001s-43 -4.33398 -73 0.999023c-19.333 3.33301 -37 3.66602 -53 0.999023c-13.333 -2.66699 -25.833 -8.16699 -37.5 -16.5s-18.167 -22.5 -19.5 -42.5c0 -14.667 3.66699 -27.667 11 -39
c6.66699 -9.33301 17.667 -17.5 33 -24.5s38 -8.83301 68 -5.5c28.667 4 54.334 3 77.001 -3c10 -2.66699 19.833 -6.33398 29.5 -11.001s18.5 -11 26.5 -19s15 -17.833 21 -29.5s10 -25.5 12 -41.5z" />
    <glyph glyph-name="Egrave" unicode="&#xc8;" horiz-adv-x="668" 
d="M303 947c10.667 -3.33301 22.5 -8.5 35.5 -15.5s25.5 -14.667 37.5 -23s23.167 -17 33.5 -26s18.166 -16.833 23.499 -23.5c6 -8 10.667 -16 14 -24c3.33301 -7.33301 5.5 -15.666 6.5 -24.999s-1.16699 -19 -6.5 -29c-5.33301 -11.333 -12.333 -19 -21 -23
s-17.334 -6.66699 -26.001 -8c-10 -1.33301 -20.333 -0.666016 -31 2.00098c-20.667 3.33301 -41 8 -61 14c-17.333 5.33301 -35.166 11.833 -53.499 19.5s-34.5 17.834 -48.5 30.501c-12.667 10.667 -21 21.5 -25 32.5s-5.5 21.5 -4.5 31.5s3.83301 19.333 8.5 28
s9.66699 15.667 15 21c4.66699 4.66699 10 9.16699 16 13.5s12.833 7.66602 20.5 9.99902s16.834 3.16602 27.501 2.49902s23.667 -3.33398 39 -8.00098zM343 711c37.333 -1.33301 69.835 -3.99902 97.502 -7.99902s51.667 -9.16699 72 -15.5s37.166 -13.166 50.499 -20.499
s24 -15 32 -23c19.333 -18 28.666 -38 27.999 -60c0 -20 -3.66699 -37.167 -11 -51.5s-17 -26.5 -29 -36.5s-26 -18 -42 -24s-32.333 -10.667 -49 -14c-39.333 -7.33301 -84 -9.66602 -134 -6.99902c38 -6.66699 66.667 -15.834 86 -27.501s32.666 -23.167 39.999 -34.5
c8.66699 -13.333 12.334 -28 11.001 -44c0 -21.333 -5.66699 -38.5 -17 -51.5s-23.666 -23.5 -36.999 -31.5c-16 -9.33301 -34 -16.333 -54 -21c31.333 0.666992 58.666 -0.666016 81.999 -3.99902s43.5 -8 60.5 -14s31.167 -12.833 42.5 -20.5s20.666 -15.5 27.999 -23.5
c16.667 -18.667 25 -40.334 25 -65.001c-1.33301 -16 -6 -29.833 -14 -41.5s-18.167 -21.834 -30.5 -30.501s-26.5 -15.834 -42.5 -21.501s-32 -10.5 -48 -14.5c-38 -8.66699 -81.333 -13.334 -130 -14.001c-36.667 -1.33301 -69 0 -97 4s-52.667 9.33301 -74 16
s-39.666 14.334 -54.999 23.001s-28 17.667 -38 27c-24 22 -39 47 -45 75c-8.66699 44 -13.5 90.167 -14.5 138.5s-0.166992 92.833 2.5 133.5c2.66699 47.333 7.33398 94 14.001 140c4 22.667 11.167 42.5 21.5 59.5s22.666 31.5 36.999 43.5s30 21.833 47 29.5
s34.167 13.5 51.5 17.5c40 10 84.333 14 133 12z" />
    <glyph glyph-name="Eacute" unicode="&#xc9;" horiz-adv-x="668" 
d="M231 852c5.33301 6.66699 13.166 14.5 23.499 23.5s21.5 17.667 33.5 26s24.5 16 37.5 23s24.833 12.167 35.5 15.5c14.667 4.66699 27.5 7.33398 38.5 8.00098s20.333 -0.166016 28 -2.49902s14.334 -5.66602 20.001 -9.99902s11.167 -8.83301 16.5 -13.5
c5.33301 -5.33301 10.333 -12.333 15 -21s7.5 -18 8.5 -28s-0.5 -20.5 -4.5 -31.5s-12.333 -21.833 -25 -32.5c-14 -12.667 -30.333 -22.834 -49 -30.501s-36.667 -14.167 -54 -19.5c-20 -6 -40 -10.667 -60 -14c-10.667 -2.66699 -21 -3.33398 -31 -2.00098
c-8.66699 1.33301 -17.334 4 -26.001 8s-15.667 11.667 -21 23c-5.33301 10 -7.66602 19.667 -6.99902 29s2.66699 17.666 6 24.999c3.33301 8 8.33301 16 15 24zM343 711c37.333 -1.33301 69.835 -3.99902 97.502 -7.99902s51.667 -9.16699 72 -15.5
s37.166 -13.166 50.499 -20.499s24 -15 32 -23c19.333 -18 28.666 -38 27.999 -60c0 -20 -3.66699 -37.167 -11 -51.5s-17 -26.5 -29 -36.5s-26 -18 -42 -24s-32.333 -10.667 -49 -14c-39.333 -7.33301 -84 -9.66602 -134 -6.99902c38 -6.66699 66.667 -15.834 86 -27.501
s32.666 -23.167 39.999 -34.5c8.66699 -13.333 12.334 -28 11.001 -44c0 -21.333 -5.66699 -38.5 -17 -51.5s-23.666 -23.5 -36.999 -31.5c-16 -9.33301 -34 -16.333 -54 -21c31.333 0.666992 58.666 -0.666016 81.999 -3.99902s43.5 -8 60.5 -14s31.167 -12.833 42.5 -20.5
s20.666 -15.5 27.999 -23.5c16.667 -18.667 25 -40.334 25 -65.001c-1.33301 -16 -6 -29.833 -14 -41.5s-18.167 -21.834 -30.5 -30.501s-26.5 -15.834 -42.5 -21.501s-32 -10.5 -48 -14.5c-38 -8.66699 -81.333 -13.334 -130 -14.001c-36.667 -1.33301 -69 0 -97 4
s-52.667 9.33301 -74 16s-39.666 14.334 -54.999 23.001s-28 17.667 -38 27c-24 22 -39 47 -45 75c-8.66699 44 -13.5 90.167 -14.5 138.5s-0.166992 92.833 2.5 133.5c2.66699 47.333 7.33398 94 14.001 140c4 22.667 11.167 42.5 21.5 59.5s22.666 31.5 36.999 43.5
s30 21.833 47 29.5s34.167 13.5 51.5 17.5c40 10 84.333 14 133 12z" />
    <glyph glyph-name="Ecircumflex" unicode="&#xca;" horiz-adv-x="668" 
d="M190 834c0.666992 0.666992 5.33398 5.99805 14.001 15.998s20 20.667 34 32s30 21.833 48 31.5s36.667 14.5 56 14.5c18.667 0 36.667 -4.83301 54 -14.5s33 -20.5 47 -32.5s25.167 -23.167 33.5 -33.5s12.833 -15.833 13.5 -16.5
c9.33301 -12.667 12.666 -26.667 9.99902 -42s-10.667 -27.666 -24 -36.999s-27.666 -12.666 -42.999 -9.99902s-27.666 10.667 -36.999 24h1l-4.5 5c-3 3.33301 -7 7.5 -12 12.5s-10.667 10.333 -17 16s-13.5 10.5 -21.5 14.5c-9.33301 -6 -18 -12 -26 -18
s-14.667 -11.667 -20 -17c-6.66699 -6 -12.334 -11.333 -17.001 -16c-7.33301 -8 -15 -14 -23 -18c-7.33301 -3.33301 -15.833 -5 -25.5 -5s-20.167 4.66699 -31.5 14c-12.667 10 -19.834 22.833 -21.501 38.5s2.5 29.5 12.5 41.5zM343 710.998
c37.333 -1.33301 69.835 -3.99902 97.502 -7.99902s51.667 -9.16699 72 -15.5s37.166 -13.166 50.499 -20.499s24 -15 32 -23c19.333 -18 28.666 -38 27.999 -60c0 -20 -3.66699 -37.167 -11 -51.5s-17 -26.5 -29 -36.5s-26 -18 -42 -24s-32.333 -10.667 -49 -14
c-39.333 -7.33301 -84 -9.66602 -134 -6.99902c38 -6.66699 66.667 -15.834 86 -27.501s32.666 -23.167 39.999 -34.5c8.66699 -13.333 12.334 -28 11.001 -44c0 -21.333 -5.66699 -38.5 -17 -51.5s-23.666 -23.5 -36.999 -31.5c-16 -9.33301 -34 -16.333 -54 -21
c31.333 0.666992 58.666 -0.666016 81.999 -3.99902s43.5 -8 60.5 -14s31.167 -12.833 42.5 -20.5s20.666 -15.5 27.999 -23.5c16.667 -18.667 25 -40.334 25 -65.001c-1.33301 -16 -6 -29.833 -14 -41.5s-18.167 -21.834 -30.5 -30.501s-26.5 -15.834 -42.5 -21.501
s-32 -10.5 -48 -14.5c-38 -8.66699 -81.333 -13.334 -130 -14.001c-36.667 -1.33301 -69 0 -97 4s-52.667 9.33301 -74 16s-39.666 14.334 -54.999 23.001s-28 17.667 -38 27c-24 22 -39 47 -45 75c-8.66699 44 -13.5 90.167 -14.5 138.5s-0.166992 92.833 2.5 133.5
c2.66699 47.333 7.33398 94 14.001 140c4 22.667 11.167 42.5 21.5 59.5s22.666 31.5 36.999 43.5s30 21.833 47 29.5s34.167 13.5 51.5 17.5c40 10 84.333 14 133 12z" />
    <glyph glyph-name="Edieresis" unicode="&#xcb;" horiz-adv-x="668" 
d="M307 822c0 -21.333 -6.5 -39.666 -19.5 -54.999s-32.167 -23 -57.5 -23s-44.5 7.66699 -57.5 23s-19.5 33.666 -19.5 54.999s6.5 39.5 19.5 54.5s32.167 22.5 57.5 22.5s44.5 -7.5 57.5 -22.5s19.5 -33.167 19.5 -54.5zM490 822c0 -21.333 -6.5 -39.666 -19.5 -54.999
s-32.167 -23 -57.5 -23s-44.5 7.66699 -57.5 23s-19.5 33.666 -19.5 54.999s6.5 39.5 19.5 54.5s32.167 22.5 57.5 22.5s44.5 -7.5 57.5 -22.5s19.5 -33.167 19.5 -54.5zM343 711c-48.667 2 -93.002 -2.00098 -133.002 -12.001c-17.333 -4 -34.5 -9.83301 -51.5 -17.5
s-32.667 -17.5 -47 -29.5s-26.666 -26.5 -36.999 -43.5s-17.5 -36.833 -21.5 -59.5c-6.66699 -46 -11.334 -92.667 -14.001 -140c-2.66699 -40.667 -3.5 -85.167 -2.5 -133.5s5.83301 -94.5 14.5 -138.5c6 -28 21 -53 45 -75c10 -9.33301 22.667 -18.333 38 -27
s33.666 -16.334 54.999 -23.001s46 -12 74 -16s60.333 -5.33301 97 -4c48.667 0.666992 92 5.33398 130 14.001c16 4 32 8.83301 48 14.5s30.167 12.834 42.5 21.501s22.5 18.834 30.5 30.501s12.667 25.5 14 41.5c0 24.667 -8.33301 46.334 -25 65.001
c-7.33301 8 -16.666 15.833 -27.999 23.5s-25.5 14.5 -42.5 20.5s-37.167 10.667 -60.5 14s-50.666 4.66602 -81.999 3.99902c20 4.66699 38 11.667 54 21c13.333 8 25.666 18.5 36.999 31.5s17 30.167 17 51.5c1.33301 16 -2.33398 30.667 -11.001 44
c-7.33301 11.333 -20.666 22.833 -39.999 34.5s-48 20.834 -86 27.501c50 -2.66699 94.667 -0.333984 134 6.99902c16.667 3.33301 33 8 49 14s30 14 42 24s21.667 22.167 29 36.5s11 31.5 11 51.5c0.666992 22 -8.66602 42 -27.999 60c-8 8 -18.667 15.667 -32 23
s-30.166 14.166 -50.499 20.499s-44.333 11.5 -72 15.5s-60.167 6.66699 -97.5 8z" />
    <glyph glyph-name="Igrave" unicode="&#xcc;" horiz-adv-x="420" 
d="M200 942c10.667 -3.33301 22.5 -8.5 35.5 -15.5s25.5 -14.667 37.5 -23s23.167 -17 33.5 -26s18.166 -16.833 23.499 -23.5c6 -8 10.667 -16 14 -24c3.33301 -7.33301 5.5 -15.666 6.5 -24.999s-1.16699 -19 -6.5 -29c-5.33301 -11.333 -12.333 -19 -21 -23
s-17.334 -6.66699 -26.001 -8c-10 -1.33301 -20.333 -0.666016 -31 2.00098c-20.667 3.33301 -41 8 -61 14c-17.333 5.33301 -35.166 11.833 -53.499 19.5s-34.5 17.834 -48.5 30.501c-12.667 10.667 -21 21.5 -25 32.5s-5.5 21.5 -4.5 31.5s3.83301 19.333 8.5 28
s9.66699 15.667 15 21c4.66699 4.66699 10 9.16699 16 13.5s12.833 7.66602 20.5 9.99902s16.834 3.16602 27.501 2.49902s23.667 -3.33398 39 -8.00098zM39 203c-4 27.333 -6.49707 57.168 -7.49707 89.501s-1.16699 62.5 -0.5 90.5c0.666992 32.667 2 65.667 4 99
c3.33301 41.333 11.666 78.333 24.999 111c6 14 13.333 27.667 22 41s19.167 25.166 31.5 35.499s26.833 18.833 43.5 25.5s36 10 58 10c26.667 -2 51 -10 73 -24c9.33301 -6 18.833 -13.667 28.5 -23s18.667 -21 27 -35s15.666 -30.333 21.999 -49s11.166 -40 14.499 -64
c5.33301 -46.667 8.33301 -90.834 9 -132.501s0.333984 -78.5 -0.999023 -110.5c-2 -36.667 -4.66699 -71 -8 -103c-4.66699 -32.667 -13.334 -61.667 -26.001 -87c-6 -10.667 -13 -21.167 -21 -31.5s-17.667 -19.666 -29 -27.999s-24.333 -14.833 -39 -19.5
s-31.334 -7 -50.001 -7c-20.667 0 -39 3.16699 -55 9.5s-30.167 14.5 -42.5 24.5s-22.666 21.333 -30.999 34s-15.5 25.667 -21.5 39c-13.333 31.333 -22 66.333 -26 105z" />
    <glyph glyph-name="Iacute" unicode="&#xcd;" horiz-adv-x="420" 
d="M97 851c5.33301 6.66699 13.166 14.5 23.499 23.5s21.5 17.667 33.5 26s24.5 16 37.5 23s24.833 12.167 35.5 15.5c14.667 4.66699 27.5 7.33398 38.5 8.00098s20.333 -0.166016 28 -2.49902s14.334 -5.66602 20.001 -9.99902s11.167 -8.83301 16.5 -13.5
c5.33301 -5.33301 10.333 -12.333 15 -21s7.5 -18 8.5 -28s-0.5 -20.5 -4.5 -31.5s-12.333 -21.833 -25 -32.5c-14 -12.667 -30.333 -22.834 -49 -30.501s-36.667 -14.167 -54 -19.5c-20 -6 -40 -10.667 -60 -14c-10.667 -2.66699 -21 -3.33398 -31 -2.00098
c-8.66699 1.33301 -17.334 4 -26.001 8s-15.667 11.667 -21 23c-5.33301 10 -7.66602 19.667 -6.99902 29s2.66699 17.666 6 24.999c3.33301 8 8.33301 16 15 24zM39 203c-4 27.333 -6.49707 57.168 -7.49707 89.501s-1.16699 62.5 -0.5 90.5c0.666992 32.667 2 65.667 4 99
c3.33301 41.333 11.666 78.333 24.999 111c6 14 13.333 27.667 22 41s19.167 25.166 31.5 35.499s26.833 18.833 43.5 25.5s36 10 58 10c26.667 -2 51 -10 73 -24c9.33301 -6 18.833 -13.667 28.5 -23s18.667 -21 27 -35s15.666 -30.333 21.999 -49s11.166 -40 14.499 -64
c5.33301 -46.667 8.33301 -90.834 9 -132.501s0.333984 -78.5 -0.999023 -110.5c-2 -36.667 -4.66699 -71 -8 -103c-4.66699 -32.667 -13.334 -61.667 -26.001 -87c-6 -10.667 -13 -21.167 -21 -31.5s-17.667 -19.666 -29 -27.999s-24.333 -14.833 -39 -19.5
s-31.334 -7 -50.001 -7c-20.667 0 -39 3.16699 -55 9.5s-30.167 14.5 -42.5 24.5s-22.666 21.333 -30.999 34s-15.5 25.667 -21.5 39c-13.333 31.333 -22 66.333 -26 105z" />
    <glyph glyph-name="Icircumflex" unicode="&#xce;" horiz-adv-x="420" 
d="M59 833c0.666992 0.666992 5.33398 5.99805 14.001 15.998s20 20.667 34 32s30 21.833 48 31.5s36.667 14.5 56 14.5c18.667 0 36.667 -4.83301 54 -14.5s33 -20.5 47 -32.5s25.167 -23.167 33.5 -33.5s12.833 -15.833 13.5 -16.5
c9.33301 -12.667 12.666 -26.667 9.99902 -42s-10.667 -27.666 -24 -36.999s-27.666 -12.666 -42.999 -9.99902s-27.666 10.667 -36.999 24h1l-4.5 5c-3 3.33301 -7 7.5 -12 12.5s-10.667 10.333 -17 16s-13.5 10.5 -21.5 14.5c-9.33301 -6 -18 -12 -26 -18
s-14.667 -11.667 -20 -17c-6.66699 -6 -12.334 -11.333 -17.001 -16c-7.33301 -8 -15 -14 -23 -18c-7.33301 -3.33301 -15.833 -5 -25.5 -5s-20.167 4.66699 -31.5 14c-12.667 10 -19.834 22.833 -21.501 38.5s2.5 29.5 12.5 41.5zM39 202.998
c-4 27.333 -6.49707 57.168 -7.49707 89.501s-1.16699 62.5 -0.5 90.5c0.666992 32.667 2 65.667 4 99c3.33301 41.333 11.666 78.333 24.999 111c6 14 13.333 27.667 22 41s19.167 25.166 31.5 35.499s26.833 18.833 43.5 25.5s36 10 58 10c26.667 -2 51 -10 73 -24
c9.33301 -6 18.833 -13.667 28.5 -23s18.667 -21 27 -35s15.666 -30.333 21.999 -49s11.166 -40 14.499 -64c5.33301 -46.667 8.33301 -90.834 9 -132.501s0.333984 -78.5 -0.999023 -110.5c-2 -36.667 -4.66699 -71 -8 -103c-4.66699 -32.667 -13.334 -61.667 -26.001 -87
c-6 -10.667 -13 -21.167 -21 -31.5s-17.667 -19.666 -29 -27.999s-24.333 -14.833 -39 -19.5s-31.334 -7 -50.001 -7c-20.667 0 -39 3.16699 -55 9.5s-30.167 14.5 -42.5 24.5s-22.666 21.333 -30.999 34s-15.5 25.667 -21.5 39c-13.333 31.333 -22 66.333 -26 105z" />
    <glyph glyph-name="Idieresis" unicode="&#xcf;" horiz-adv-x="420" 
d="M190 803c0 -21.333 -6.5 -39.666 -19.5 -54.999s-32.167 -23 -57.5 -23s-44.5 7.66699 -57.5 23s-19.5 33.666 -19.5 54.999s6.5 39.5 19.5 54.5s32.167 22.5 57.5 22.5s44.5 -7.5 57.5 -22.5s19.5 -33.167 19.5 -54.5zM373 803c0 -21.333 -6.5 -39.666 -19.5 -54.999
s-32.167 -23 -57.5 -23s-44.5 7.66699 -57.5 23s-19.5 33.666 -19.5 54.999s6.5 39.5 19.5 54.5s32.167 22.5 57.5 22.5s44.5 -7.5 57.5 -22.5s19.5 -33.167 19.5 -54.5zM39 203c4 -38.667 12.6641 -73.6689 25.9971 -105.002c6 -13.333 13.167 -26.333 21.5 -39
s18.666 -24 30.999 -34s26.5 -18.167 42.5 -24.5s34.333 -9.5 55 -9.5c18.667 0 35.334 2.33301 50.001 7s27.667 11.167 39 19.5s21 17.666 29 27.999s15 20.833 21 31.5c12.667 25.333 21.334 54.333 26.001 87c3.33301 32 6 66.333 8 103
c1.33301 32 1.66602 68.833 0.999023 110.5s-3.66699 85.834 -9 132.501c-3.33301 24 -8.16602 45.333 -14.499 64s-13.666 35 -21.999 49s-17.333 25.667 -27 35s-19.167 17 -28.5 23c-22 14 -46.333 22 -73 24c-22 0 -41.333 -3.33301 -58 -10
s-31.167 -15.167 -43.5 -25.5s-22.833 -22.166 -31.5 -35.499s-16 -27 -22 -41c-13.333 -32.667 -21.666 -69.667 -24.999 -111c-2 -33.333 -3.33301 -66.333 -4 -99c-0.666992 -28 -0.5 -58.167 0.5 -90.5s3.5 -62.166 7.5 -89.499z" />
    <glyph glyph-name="Eth" unicode="&#xd0;" horiz-adv-x="835" 
d="M766 560c16.667 -28.667 29.0039 -61.668 37.0039 -99.001c3.33301 -16 6.16602 -33.833 8.49902 -53.5s3.16602 -41.167 2.49902 -64.5s-2.83398 -48.166 -6.50098 -74.499s-9.83398 -54.166 -18.501 -83.499c-8 -26.667 -19 -49.834 -33 -69.501
s-29.667 -36.5 -47 -50.5s-35.833 -25.333 -55.5 -34s-39.167 -15.667 -58.5 -21c-46 -12 -95 -17.333 -147 -16c-40 -0.666992 -73 3.5 -99 12.5s-47 19.167 -63 30.5c-18.667 12.667 -33.667 27 -45 43c-11.333 20.667 -19.166 44.334 -23.499 71.001
s-7.16602 52.667 -8.49902 78c-8 0 -14.333 0.166992 -19 0.5l-13.5 1c-4.33301 0.333008 -9.16602 0.833008 -14.499 1.5s-12 1.66699 -20 3c-23.333 3.33301 -41.5 10.666 -54.5 21.999s-22.167 23 -27.5 35c-7.33301 14 -11 29.333 -11 46
c-1.33301 17.333 1 33.666 7 48.999c5.33301 13.333 14.166 26.333 26.499 39s31.833 22 58.5 28c8.66699 2 16 3.33301 22 4s11.333 1 16 1h15c5.33301 0 12 0.333008 20 1c1.33301 14.667 2.83301 28.167 4.5 40.5l4.5 32.5c1.33301 10.667 2.66602 20.334 3.99902 29.001
c3.33301 20.667 9 38.667 17 54s17.167 28.5 27.5 39.5s21.333 20.167 33 27.5s23.5 13 35.5 17c27.333 10 57.666 14.333 90.999 13c32 0 61.333 -2.16699 88 -6.5s50.667 -10 72 -17s40.5 -15.167 57.5 -24.5s32.167 -18.666 45.5 -27.999
c30.667 -22.667 54.667 -48.334 72 -77.001zM493.004 376.999c-11.333 0 -20.8311 -2.83398 -28.498 -8.50098s-11.5 -16.834 -11.5 -33.501c0 -9.33301 1 -16.5 3 -21.5s4.83301 -8.66699 8.5 -11s8 -3.66602 13 -3.99902s10.167 -0.5 15.5 -0.5
c11.333 0 20.666 3.33301 27.999 10s11 15.667 11 27c0 10.667 -3.33301 20.334 -10 29.001s-16.334 13 -29.001 13z" />
    <glyph glyph-name="Ntilde" unicode="&#xd1;" horiz-adv-x="833" 
d="M599 814c-10 -18 -21.3311 -31.667 -33.998 -41s-25.667 -15.666 -39 -18.999s-26.833 -4 -40.5 -2s-26.834 5.33301 -39.501 10c-30 11.333 -60.667 30 -92 56c-6 -22.667 -14.5 -38.5 -25.5 -47.5s-22.167 -14.5 -33.5 -16.5
c-12.667 -2.66699 -26.334 -1.66699 -41.001 3c-8.66699 2.66699 -16.5 7.33398 -23.5 14.001s-12.5 14.334 -16.5 23.001s-6.5 17.667 -7.5 27s0.166992 18.333 3.5 27c12 36 29.333 62.667 52 80c10 7.33301 21.5 13.166 34.5 17.499s28 5.5 45 3.5
s36.167 -7.83301 57.5 -17.5s45 -24.5 71 -44.5c0.666992 -0.666992 1 -1.33398 1 -2.00098s0.333008 -1.33398 1 -2.00098c6.66699 19.333 17.667 34.5 33 45.5s33.333 13.167 54 6.5c16.667 -6 30 -14.333 40 -25c8.66699 -9.33301 14.167 -21.833 16.5 -37.5
s-3.16699 -35.167 -16.5 -58.5zM65.002 552c-9.33301 -46 -15.6738 -93.666 -19.0068 -142.999c-3.33301 -42.667 -4.16602 -90.167 -2.49902 -142.5s8.83398 -104.833 21.501 -157.5c5.33301 -21.333 14 -40.333 26 -57c10 -14 24 -26.833 42 -38.5
s41.333 -16.834 70 -15.501c32.667 -2.66699 61.667 6 87 26c10.667 8 20.834 19 30.501 33s18.167 31.833 25.5 53.5s12.666 47.667 15.999 78s4 66.166 2 107.499c7.33301 -56.667 21.333 -107 42 -151c8.66699 -18.667 19 -37 31 -55s26.333 -34 43 -48
s35.834 -25 57.501 -33s46.167 -11.667 73.5 -11c22.667 -2 44.667 1.66699 66 11c8.66699 4 17.667 9.5 27 16.5s18.166 16 26.499 27s16 24.333 23 40s12.833 34.167 17.5 55.5c8.66699 42.667 15.334 88 20.001 136c3.33301 41.333 5 88.5 5 141.5
s-5.66699 108.833 -17 167.5c-4 21.333 -12 40.666 -24 57.999c-10 14.667 -24.5 27.834 -43.5 39.501s-44.167 17.167 -75.5 16.5c-30.667 0 -57.667 -8.66699 -81 -26c-10 -7.33301 -19.833 -17.166 -29.5 -29.499s-18.167 -27.666 -25.5 -45.999
s-13.166 -40.333 -17.499 -66s-6.16602 -55.5 -5.49902 -89.5c-2 51.333 -11.667 96.666 -29 135.999c-7.33301 16.667 -16.5 33 -27.5 49s-24.5 30 -40.5 42s-34.5 21.5 -55.5 28.5s-45.5 9.83301 -73.5 8.5c-39.333 -2 -71.166 -11.5 -95.499 -28.5
s-43.166 -35.5 -56.499 -55.5c-16 -23.333 -27.333 -49.333 -34 -78z" />
    <glyph glyph-name="Ograve" unicode="&#xd2;" horiz-adv-x="771" 
d="M365 945c10.667 -3.33301 22.5 -8.5 35.5 -15.5s25.5 -14.667 37.5 -23s23.167 -17 33.5 -26s18.166 -16.833 23.499 -23.5c6 -8 10.667 -16 14 -24c3.33301 -7.33301 5.5 -15.666 6.5 -24.999s-1.16699 -19 -6.5 -29c-5.33301 -11.333 -12.333 -19 -21 -23
s-17.334 -6.66699 -26.001 -8c-10 -1.33301 -20.333 -0.666016 -31 2.00098c-20.667 3.33301 -41 8 -61 14c-17.333 5.33301 -35.166 11.833 -53.499 19.5s-34.5 17.834 -48.5 30.501c-12.667 10.667 -21 21.5 -25 32.5s-5.5 21.5 -4.5 31.5s3.83301 19.333 8.5 28
s9.66699 15.667 15 21c4.66699 4.66699 10 9.16699 16 13.5s12.833 7.66602 20.5 9.99902s16.834 3.16602 27.501 2.49902s23.667 -3.33398 39 -8.00098zM404 704c40 0 75.166 -4.83496 105.499 -14.502s56.833 -22.5 79.5 -38.5s41.667 -34.167 57 -54.5
s28 -41.166 38 -62.499c23.333 -50 36.666 -106.333 39.999 -169c0 -47.333 -4.66699 -88.833 -14 -124.5s-21.5 -66.667 -36.5 -93s-32 -48.5 -51 -66.5s-38.5 -33 -58.5 -45c-46.667 -27.333 -100 -43 -160 -47c-45.333 0 -85 4.83301 -119 14.5
s-63.667 22.334 -89 38.001s-46.666 33.667 -63.999 54s-31.666 41.166 -42.999 62.499c-26.667 49.333 -41.667 105.666 -45 168.999c0 52 5.16699 97 15.5 135s24 70.833 41 98.5s36.167 50.334 57.5 68.001s43.333 31.834 66 42.501c52.667 24.667 112.667 35.667 180 33
zM388.999 382.998c-11.333 0 -21.165 -4.33301 -29.498 -13s-11.833 -18.334 -10.5 -29.001c1.33301 -14 5.5 -23.667 12.5 -29s16.167 -8 27.5 -8s20.666 3.33301 27.999 10s11 15.667 11 27c0 10.667 -3.33301 20.334 -10 29.001s-16.334 13 -29.001 13z" />
    <glyph glyph-name="Oacute" unicode="&#xd3;" horiz-adv-x="771" 
d="M249 852c5.33301 6.66699 13.166 14.5 23.499 23.5s21.5 17.667 33.5 26s24.5 16 37.5 23s24.833 12.167 35.5 15.5c14.667 4.66699 27.5 7.33398 38.5 8.00098s20.333 -0.166016 28 -2.49902s14.334 -5.66602 20.001 -9.99902s11.167 -8.83301 16.5 -13.5
c5.33301 -5.33301 10.333 -12.333 15 -21s7.5 -18 8.5 -28s-0.5 -20.5 -4.5 -31.5s-12.333 -21.833 -25 -32.5c-14 -12.667 -30.333 -22.834 -49 -30.501s-36.667 -14.167 -54 -19.5c-20 -6 -40 -10.667 -60 -14c-10.667 -2.66699 -21 -3.33398 -31 -2.00098
c-8.66699 1.33301 -17.334 4 -26.001 8s-15.667 11.667 -21 23c-5.33301 10 -7.66602 19.667 -6.99902 29s2.66699 17.666 6 24.999c3.33301 8 8.33301 16 15 24zM404 704c40 0 75.166 -4.83496 105.499 -14.502s56.833 -22.5 79.5 -38.5s41.667 -34.167 57 -54.5
s28 -41.166 38 -62.499c23.333 -50 36.666 -106.333 39.999 -169c0 -47.333 -4.66699 -88.833 -14 -124.5s-21.5 -66.667 -36.5 -93s-32 -48.5 -51 -66.5s-38.5 -33 -58.5 -45c-46.667 -27.333 -100 -43 -160 -47c-45.333 0 -85 4.83301 -119 14.5
s-63.667 22.334 -89 38.001s-46.666 33.667 -63.999 54s-31.666 41.166 -42.999 62.499c-26.667 49.333 -41.667 105.666 -45 168.999c0 52 5.16699 97 15.5 135s24 70.833 41 98.5s36.167 50.334 57.5 68.001s43.333 31.834 66 42.501c52.667 24.667 112.667 35.667 180 33
zM388.999 382.998c-11.333 0 -21.165 -4.33301 -29.498 -13s-11.833 -18.334 -10.5 -29.001c1.33301 -14 5.5 -23.667 12.5 -29s16.167 -8 27.5 -8s20.666 3.33301 27.999 10s11 15.667 11 27c0 10.667 -3.33301 20.334 -10 29.001s-16.334 13 -29.001 13z" />
    <glyph glyph-name="Ocircumflex" unicode="&#xd4;" horiz-adv-x="771" 
d="M246 831c0.666992 0.666992 5.33398 5.99805 14.001 15.998s20 20.667 34 32s30 21.833 48 31.5s36.667 14.5 56 14.5c18.667 0 36.667 -4.83301 54 -14.5s33 -20.5 47 -32.5s25.167 -23.167 33.5 -33.5s12.833 -15.833 13.5 -16.5
c9.33301 -12.667 12.666 -26.667 9.99902 -42s-10.667 -27.666 -24 -36.999s-27.666 -12.666 -42.999 -9.99902s-27.666 10.667 -36.999 24h1l-4.5 5c-3 3.33301 -7 7.5 -12 12.5s-10.667 10.333 -17 16s-13.5 10.5 -21.5 14.5c-9.33301 -6 -18 -12 -26 -18
s-14.667 -11.667 -20 -17c-6.66699 -6 -12.334 -11.333 -17.001 -16c-7.33301 -8 -15 -14 -23 -18c-7.33301 -3.33301 -15.833 -5 -25.5 -5s-20.167 4.66699 -31.5 14c-12.667 10 -19.834 22.833 -21.501 38.5s2.5 29.5 12.5 41.5zM404 703.998
c40 0 75.166 -4.83496 105.499 -14.502s56.833 -22.5 79.5 -38.5s41.667 -34.167 57 -54.5s28 -41.166 38 -62.499c23.333 -50 36.666 -106.333 39.999 -169c0 -47.333 -4.66699 -88.833 -14 -124.5s-21.5 -66.667 -36.5 -93s-32 -48.5 -51 -66.5s-38.5 -33 -58.5 -45
c-46.667 -27.333 -100 -43 -160 -47c-45.333 0 -85 4.83301 -119 14.5s-63.667 22.334 -89 38.001s-46.666 33.667 -63.999 54s-31.666 41.166 -42.999 62.499c-26.667 49.333 -41.667 105.666 -45 168.999c0 52 5.16699 97 15.5 135s24 70.833 41 98.5
s36.167 50.334 57.5 68.001s43.333 31.834 66 42.501c52.667 24.667 112.667 35.667 180 33zM388.999 382.996c-11.333 0 -21.165 -4.33301 -29.498 -13s-11.833 -18.334 -10.5 -29.001c1.33301 -14 5.5 -23.667 12.5 -29s16.167 -8 27.5 -8s20.666 3.33301 27.999 10
s11 15.667 11 27c0 10.667 -3.33301 20.334 -10 29.001s-16.334 13 -29.001 13z" />
    <glyph glyph-name="Otilde" unicode="&#xd5;" horiz-adv-x="771" 
d="M560 807c-10 -18 -21.3311 -31.667 -33.998 -41s-25.667 -15.666 -39 -18.999s-26.833 -4 -40.5 -2s-26.834 5.33301 -39.501 10c-30 11.333 -60.667 30 -92 56c-6 -22.667 -14.5 -38.5 -25.5 -47.5s-22.167 -14.5 -33.5 -16.5
c-12.667 -2.66699 -26.334 -1.66699 -41.001 3c-8.66699 2.66699 -16.5 7.33398 -23.5 14.001s-12.5 14.334 -16.5 23.001s-6.5 17.667 -7.5 27s0.166992 18.333 3.5 27c12 36 29.333 62.667 52 80c10 7.33301 21.5 13.166 34.5 17.499s28 5.5 45 3.5
s36.167 -7.83301 57.5 -17.5s45 -24.5 71 -44.5c0.666992 -0.666992 1 -1.33398 1 -2.00098s0.333008 -1.33398 1 -2.00098c6.66699 19.333 17.667 34.5 33 45.5s33.333 13.167 54 6.5c16.667 -6 30 -14.333 40 -25c8.66699 -9.33301 14.167 -21.833 16.5 -37.5
s-3.16699 -35.167 -16.5 -58.5zM404.002 704c-67.333 2.66699 -127.332 -8.33105 -179.999 -32.998c-22.667 -10.667 -44.667 -24.834 -66 -42.501s-40.5 -40.334 -57.5 -68.001s-30.667 -60.5 -41 -98.5s-15.5 -83 -15.5 -135c3.33301 -63.333 18.333 -119.666 45 -168.999
c11.333 -21.333 25.666 -42.166 42.999 -62.499s38.666 -38.333 63.999 -54s55 -28.334 89 -38.001s73.667 -14.5 119 -14.5c60 4 113.333 19.667 160 47c20 12 39.5 27 58.5 45s36 40.167 51 66.5s27.167 57.333 36.5 93s14 77.167 14 124.5
c-3.33301 62.667 -16.666 119 -39.999 169c-10 21.333 -22.667 42.166 -38 62.499s-34.333 38.5 -57 54.5s-49.167 28.833 -79.5 38.5s-65.5 14.5 -105.5 14.5zM389.003 383.002c12.667 0 22.333 -4.33301 29 -13s10 -18.334 10 -29.001c0 -11.333 -3.66699 -20.333 -11 -27
s-16.666 -10 -27.999 -10s-20.5 2.66699 -27.5 8s-11.167 15 -12.5 29c-1.33301 10.667 2.16699 20.334 10.5 29.001s18.166 13 29.499 13z" />
    <glyph glyph-name="Odieresis" unicode="&#xd6;" horiz-adv-x="771" 
d="M365 820c0 -21.333 -6.5 -39.666 -19.5 -54.999s-32.167 -23 -57.5 -23s-44.5 7.66699 -57.5 23s-19.5 33.666 -19.5 54.999s6.5 39.5 19.5 54.5s32.167 22.5 57.5 22.5s44.5 -7.5 57.5 -22.5s19.5 -33.167 19.5 -54.5zM548 820c0 -21.333 -6.5 -39.666 -19.5 -54.999
s-32.167 -23 -57.5 -23s-44.5 7.66699 -57.5 23s-19.5 33.666 -19.5 54.999s6.5 39.5 19.5 54.5s32.167 22.5 57.5 22.5s44.5 -7.5 57.5 -22.5s19.5 -33.167 19.5 -54.5zM404 704c-67.333 2.66699 -127.332 -8.33105 -179.999 -32.998
c-22.667 -10.667 -44.667 -24.834 -66 -42.501s-40.5 -40.334 -57.5 -68.001s-30.667 -60.5 -41 -98.5s-15.5 -83 -15.5 -135c3.33301 -63.333 18.333 -119.666 45 -168.999c11.333 -21.333 25.666 -42.166 42.999 -62.499s38.666 -38.333 63.999 -54s55 -28.334 89 -38.001
s73.667 -14.5 119 -14.5c60 4 113.333 19.667 160 47c20 12 39.5 27 58.5 45s36 40.167 51 66.5s27.167 57.333 36.5 93s14 77.167 14 124.5c-3.33301 62.667 -16.666 119 -39.999 169c-10 21.333 -22.667 42.166 -38 62.499s-34.333 38.5 -57 54.5
s-49.167 28.833 -79.5 38.5s-65.5 14.5 -105.5 14.5zM389.001 383.002c12.667 0 22.333 -4.33301 29 -13s10 -18.334 10 -29.001c0 -11.333 -3.66699 -20.333 -11 -27s-16.666 -10 -27.999 -10s-20.5 2.66699 -27.5 8s-11.167 15 -12.5 29
c-1.33301 10.667 2.16699 20.334 10.5 29.001s18.166 13 29.499 13z" />
    <glyph glyph-name="multiply" unicode="&#xd7;" horiz-adv-x="536" 
d="M471 177c-12.667 -12.667 -26.333 -22.6621 -41 -29.9951c-13.333 -6 -28.5 -9.33301 -45.5 -10s-35.833 5.66602 -56.5 18.999l-24 16l-23 16c-8 -7.33301 -15.167 -13.5 -21.5 -18.5s-11.833 -9.16699 -16.5 -12.5c-5.33301 -4 -10 -7 -14 -9
c-19.333 -14 -37.5 -20.833 -54.5 -20.5s-32.167 3.5 -45.5 9.5c-15.333 7.33301 -29.666 17.666 -42.999 30.999c-8.66699 10.667 -16 22 -22 34c-5.33301 10.667 -9 23 -11 37s0.333008 29.667 7 47c8 19.333 21.333 41.666 40 66.999c-6.66699 7.33301 -12 14 -16 20
s-7.66699 11 -11 15l-9 13c-14 19.333 -20.833 37.333 -20.5 54s3.5 31.667 9.5 45c7.33301 15.333 18 29.666 32 42.999c10 8.66699 21 16 33 22c10.667 4.66699 23 8 37 10s29.667 -0.333008 47 -7c10 -3.33301 20.667 -8.33301 32 -15s23 -14.334 35 -23.001
c19.333 14.667 36.666 26.667 51.999 36c18.667 11.333 36 17.166 52 17.499s30 -1.5 42 -5.5c14 -5.33301 26.667 -13 38 -23c12.667 -12.667 22.334 -26.334 29.001 -41.001c5.33301 -12.667 8.33301 -27.667 9 -45s-5.33301 -36 -18 -56l-15.5 -24
c-5 -8 -10.167 -15.667 -15.5 -23c16 -21.333 29 -40.333 39 -57c11.333 -19.333 17.333 -37.166 18 -53.499s-1 -30.166 -5 -41.499c-4.66699 -14 -12.334 -26.333 -23.001 -37z" />
    <glyph glyph-name="Oslash" unicode="&#xd8;" horiz-adv-x="735" 
d="M600 623c25.333 -25.333 44.833 -53.0059 58.5 -83.0059s23.834 -58 30.501 -84c7.33301 -30.667 11.666 -61.334 12.999 -92.001c0 -47.333 -4.66699 -88.833 -14 -124.5s-21.5 -66.667 -36.5 -93s-32 -48.5 -51 -66.5s-38.5 -33 -58.5 -45
c-46.667 -27.333 -100 -43 -160 -47c-12 0 -23.667 0.5 -35 1.5s-22.333 2.16699 -33 3.5l-16.5 -32.5l-12.5 -24.5l-11 -20c-10 -17.333 -20.833 -29.166 -32.5 -35.499s-22.5 -10.166 -32.5 -11.499c-12 -1.33301 -23.333 0.333984 -34 5.00098
c-12 4 -21.667 10.333 -29 19c-7.33301 7.33301 -13 17.333 -17 30s-4 29.334 0 50.001c2.66699 11.333 5.83398 23.833 9.50098 37.5s8.16699 28.834 13.5 45.501c-32.667 24.667 -57.834 52.5 -75.501 83.5s-30.5 60.5 -38.5 88.5c-9.33301 32 -14.666 64.667 -15.999 98
c0 52 5.16699 97 15.5 135s24 70.833 41 98.5s36.167 50.334 57.5 68.001s43.333 31.834 66 42.501c52.667 24.667 112.667 35.667 180 33c19.333 0 38 -1 56 -3c6 11.333 11.833 21.666 17.5 30.999s10.5 17.666 14.5 24.999c12.667 20.667 26 34.5 40 41.5
s27 10.833 39 11.5c14 0.666992 27.667 -2 41 -8c11.333 -4 20.666 -10.333 27.999 -19c6 -7.33301 10.5 -18.166 13.5 -32.499s0.833008 -33.166 -6.5 -56.499l-12 -34.5c-4 -11.667 -8.33301 -23.5 -13 -35.5zM386 367.994c-11.333 0 -21.165 -4.33301 -29.498 -13
s-11.833 -18.334 -10.5 -29.001c1.33301 -14 5.5 -23.667 12.5 -29s16.167 -8 27.5 -8s20.666 3.33301 27.999 10s11 15.667 11 27c0 10.667 -3.33301 20.334 -10 29.001s-16.334 13 -29.001 13z" />
    <glyph glyph-name="Ugrave" unicode="&#xd9;" horiz-adv-x="767" 
d="M331 937c10.667 -3.33301 22.5 -8.5 35.5 -15.5s25.5 -14.667 37.5 -23s23.167 -17 33.5 -26s18.166 -16.833 23.499 -23.5c6 -8 10.667 -16 14 -24c3.33301 -7.33301 5.5 -15.666 6.5 -24.999s-1.16699 -19 -6.5 -29c-5.33301 -11.333 -12.333 -19 -21 -23
s-17.334 -6.66699 -26.001 -8c-10 -1.33301 -20.333 -0.666016 -31 2.00098c-20.667 3.33301 -41 8 -61 14c-17.333 5.33301 -35.166 11.833 -53.499 19.5s-34.5 17.834 -48.5 30.501c-12.667 10.667 -21 21.5 -25 32.5s-5.5 21.5 -4.5 31.5s3.83301 19.333 8.5 28
s9.66699 15.667 15 21c4.66699 4.66699 10 9.16699 16 13.5s12.833 7.66602 20.5 9.99902s16.834 3.16602 27.501 2.49902s23.667 -3.33398 39 -8.00098zM202 711c24 -1.33301 45.335 -7.66992 64.002 -19.0029c16 -9.33301 30.833 -24.333 44.5 -45s20.5 -50 20.5 -88
c0 -28.667 -0.333008 -55.834 -1 -81.501s0 -48.334 2 -68.001s5.83301 -35.334 11.5 -47.001s14.5 -17.5 26.5 -17.5s20.833 5.83301 26.5 17.5s9.5 27.334 11.5 47.001s2.66699 42.334 2 68.001s-1.33398 52.834 -2.00098 81.501
c-0.666992 18.667 0.833008 35.167 4.5 49.5s8.83398 26.833 15.501 37.5s14.167 19.5 22.5 26.5s16.833 12.5 25.5 16.5c20.667 10 44.334 15 71.001 15c34 2 61.5 -2.66699 82.5 -14s37.5 -24 49.5 -38c13.333 -17.333 23.333 -36.666 30 -57.999
c11.333 -50.667 17.166 -99.5 17.499 -146.5s-1.83398 -88.833 -6.50098 -125.5c-5.33301 -42.667 -13 -83 -23 -121c-14 -40.667 -34.667 -77 -62 -109c-12 -13.333 -25.833 -26.5 -41.5 -39.5s-34 -24.5 -55 -34.5s-44.667 -18 -71 -24s-55.5 -9 -87.5 -9
c-27.333 0 -52.166 2.16699 -74.499 6.5s-42.833 9.83301 -61.5 16.5s-35.334 14.334 -50.001 23.001s-27.667 17.334 -39 26.001c-26.667 20.667 -47.667 44 -63 70c-12.667 21.333 -23 43.833 -31 67.5s-14.5 47.667 -19.5 72s-8.66699 48.333 -11 72s-3.5 46.5 -3.5 68.5
c-0.666992 51.333 2.66602 102 9.99902 152c8 42 21 73.5 39 94.5s36.333 35.833 55 44.5c22 10 45.667 14.333 71 13z" />
    <glyph glyph-name="Uacute" unicode="&#xda;" horiz-adv-x="767" 
d="M271 852c5.33301 6.66699 13.166 14.5 23.499 23.5s21.5 17.667 33.5 26s24.5 16 37.5 23s24.833 12.167 35.5 15.5c14.667 4.66699 27.5 7.33398 38.5 8.00098s20.333 -0.166016 28 -2.49902s14.334 -5.66602 20.001 -9.99902s11.167 -8.83301 16.5 -13.5
c5.33301 -5.33301 10.333 -12.333 15 -21s7.5 -18 8.5 -28s-0.5 -20.5 -4.5 -31.5s-12.333 -21.833 -25 -32.5c-14 -12.667 -30.333 -22.834 -49 -30.501s-36.667 -14.167 -54 -19.5c-20 -6 -40 -10.667 -60 -14c-10.667 -2.66699 -21 -3.33398 -31 -2.00098
c-8.66699 1.33301 -17.334 4 -26.001 8s-15.667 11.667 -21 23c-5.33301 10 -7.66602 19.667 -6.99902 29s2.66699 17.666 6 24.999c3.33301 8 8.33301 16 15 24zM202 711c24 -1.33301 45.335 -7.66992 64.002 -19.0029c16 -9.33301 30.833 -24.333 44.5 -45
s20.5 -50 20.5 -88c0 -28.667 -0.333008 -55.834 -1 -81.501s0 -48.334 2 -68.001s5.83301 -35.334 11.5 -47.001s14.5 -17.5 26.5 -17.5s20.833 5.83301 26.5 17.5s9.5 27.334 11.5 47.001s2.66699 42.334 2 68.001s-1.33398 52.834 -2.00098 81.501
c-0.666992 18.667 0.833008 35.167 4.5 49.5s8.83398 26.833 15.501 37.5s14.167 19.5 22.5 26.5s16.833 12.5 25.5 16.5c20.667 10 44.334 15 71.001 15c34 2 61.5 -2.66699 82.5 -14s37.5 -24 49.5 -38c13.333 -17.333 23.333 -36.666 30 -57.999
c11.333 -50.667 17.166 -99.5 17.499 -146.5s-1.83398 -88.833 -6.50098 -125.5c-5.33301 -42.667 -13 -83 -23 -121c-14 -40.667 -34.667 -77 -62 -109c-12 -13.333 -25.833 -26.5 -41.5 -39.5s-34 -24.5 -55 -34.5s-44.667 -18 -71 -24s-55.5 -9 -87.5 -9
c-27.333 0 -52.166 2.16699 -74.499 6.5s-42.833 9.83301 -61.5 16.5s-35.334 14.334 -50.001 23.001s-27.667 17.334 -39 26.001c-26.667 20.667 -47.667 44 -63 70c-12.667 21.333 -23 43.833 -31 67.5s-14.5 47.667 -19.5 72s-8.66699 48.333 -11 72s-3.5 46.5 -3.5 68.5
c-0.666992 51.333 2.66602 102 9.99902 152c8 42 21 73.5 39 94.5s36.333 35.833 55 44.5c22 10 45.667 14.333 71 13z" />
    <glyph glyph-name="Ucircumflex" unicode="&#xdb;" horiz-adv-x="767" 
d="M227 830c0.666992 0.666992 5.33398 5.99805 14.001 15.998s20 20.667 34 32s30 21.833 48 31.5s36.667 14.5 56 14.5c18.667 0 36.667 -4.83301 54 -14.5s33 -20.5 47 -32.5s25.167 -23.167 33.5 -33.5s12.833 -15.833 13.5 -16.5
c9.33301 -12.667 12.666 -26.667 9.99902 -42s-10.667 -27.666 -24 -36.999s-27.666 -12.666 -42.999 -9.99902s-27.666 10.667 -36.999 24h1l-4.5 5c-3 3.33301 -7 7.5 -12 12.5s-10.667 10.333 -17 16s-13.5 10.5 -21.5 14.5c-9.33301 -6 -18 -12 -26 -18
s-14.667 -11.667 -20 -17c-6.66699 -6 -12.334 -11.333 -17.001 -16c-7.33301 -8 -15 -14 -23 -18c-7.33301 -3.33301 -15.833 -5 -25.5 -5s-20.167 4.66699 -31.5 14c-12.667 10 -19.834 22.833 -21.501 38.5s2.5 29.5 12.5 41.5zM202 710.998
c24 -1.33301 45.335 -7.66992 64.002 -19.0029c16 -9.33301 30.833 -24.333 44.5 -45s20.5 -50 20.5 -88c0 -28.667 -0.333008 -55.834 -1 -81.501s0 -48.334 2 -68.001s5.83301 -35.334 11.5 -47.001s14.5 -17.5 26.5 -17.5s20.833 5.83301 26.5 17.5
s9.5 27.334 11.5 47.001s2.66699 42.334 2 68.001s-1.33398 52.834 -2.00098 81.501c-0.666992 18.667 0.833008 35.167 4.5 49.5s8.83398 26.833 15.501 37.5s14.167 19.5 22.5 26.5s16.833 12.5 25.5 16.5c20.667 10 44.334 15 71.001 15c34 2 61.5 -2.66699 82.5 -14
s37.5 -24 49.5 -38c13.333 -17.333 23.333 -36.666 30 -57.999c11.333 -50.667 17.166 -99.5 17.499 -146.5s-1.83398 -88.833 -6.50098 -125.5c-5.33301 -42.667 -13 -83 -23 -121c-14 -40.667 -34.667 -77 -62 -109c-12 -13.333 -25.833 -26.5 -41.5 -39.5
s-34 -24.5 -55 -34.5s-44.667 -18 -71 -24s-55.5 -9 -87.5 -9c-27.333 0 -52.166 2.16699 -74.499 6.5s-42.833 9.83301 -61.5 16.5s-35.334 14.334 -50.001 23.001s-27.667 17.334 -39 26.001c-26.667 20.667 -47.667 44 -63 70c-12.667 21.333 -23 43.833 -31 67.5
s-14.5 47.667 -19.5 72s-8.66699 48.333 -11 72s-3.5 46.5 -3.5 68.5c-0.666992 51.333 2.66602 102 9.99902 152c8 42 21 73.5 39 94.5s36.333 35.833 55 44.5c22 10 45.667 14.333 71 13z" />
    <glyph glyph-name="Udieresis" unicode="&#xdc;" horiz-adv-x="767" 
d="M354 820c0 -21.333 -6.5 -39.666 -19.5 -54.999s-32.167 -23 -57.5 -23s-44.5 7.66699 -57.5 23s-19.5 33.666 -19.5 54.999s6.5 39.5 19.5 54.5s32.167 22.5 57.5 22.5s44.5 -7.5 57.5 -22.5s19.5 -33.167 19.5 -54.5zM537 820c0 -21.333 -6.5 -39.666 -19.5 -54.999
s-32.167 -23 -57.5 -23s-44.5 7.66699 -57.5 23s-19.5 33.666 -19.5 54.999s6.5 39.5 19.5 54.5s32.167 22.5 57.5 22.5s44.5 -7.5 57.5 -22.5s19.5 -33.167 19.5 -54.5zM202 711c-25.333 1.33301 -49.002 -2.99609 -71.002 -12.9961c-18.667 -8.66699 -37 -23.5 -55 -44.5
s-31 -52.5 -39 -94.5c-7.33301 -50 -10.666 -100.667 -9.99902 -152c0 -22 1.16699 -44.833 3.5 -68.5s6 -47.667 11 -72s11.5 -48.333 19.5 -72s18.333 -46.167 31 -67.5c15.333 -26 36.333 -49.333 63 -70c11.333 -8.66699 24.333 -17.334 39 -26.001
s31.334 -16.334 50.001 -23.001s39.167 -12.167 61.5 -16.5s47.166 -6.5 74.499 -6.5c32 0 61.167 3 87.5 9s50 14 71 24s39.333 21.5 55 34.5s29.5 26.167 41.5 39.5c27.333 32 48 68.333 62 109c10 38 17.667 78.333 23 121c4.66699 36.667 6.83398 78.5 6.50098 125.5
s-6.16602 95.833 -17.499 146.5c-6.66699 21.333 -16.667 40.666 -30 57.999c-12 14 -28.5 26.667 -49.5 38s-48.5 16 -82.5 14c-26.667 0 -50.334 -5 -71.001 -15c-8.66699 -4 -17.167 -9.5 -25.5 -16.5s-15.833 -15.833 -22.5 -26.5s-11.834 -23.167 -15.501 -37.5
s-5.16699 -30.833 -4.5 -49.5c0.666992 -28.667 1.33398 -55.834 2.00098 -81.501s0 -48.334 -2 -68.001s-5.83301 -35.334 -11.5 -47.001s-14.5 -17.5 -26.5 -17.5s-20.833 5.83301 -26.5 17.5s-9.5 27.334 -11.5 47.001s-2.66699 42.334 -2 68.001s1 52.834 1 81.501
c0 38 -6.83301 67.333 -20.5 88s-28.5 35.667 -44.5 45c-18.667 11.333 -40 17.666 -64 18.999z" />
    <glyph glyph-name="Yacute" unicode="&#xdd;" horiz-adv-x="833" 
d="M344 852c5.33301 6.66699 13.166 14.5 23.499 23.5s21.5 17.667 33.5 26s24.5 16 37.5 23s24.833 12.167 35.5 15.5c14.667 4.66699 27.5 7.33398 38.5 8.00098s20.333 -0.166016 28 -2.49902s14.334 -5.66602 20.001 -9.99902s11.167 -8.83301 16.5 -13.5
c5.33301 -5.33301 10.333 -12.333 15 -21s7.5 -18 8.5 -28s-0.5 -20.5 -4.5 -31.5s-12.333 -21.833 -25 -32.5c-14 -12.667 -30.333 -22.834 -49 -30.501s-36.667 -14.167 -54 -19.5c-20 -6 -40 -10.667 -60 -14c-10.667 -2.66699 -21 -3.33398 -31 -2.00098
c-8.66699 1.33301 -17.334 4 -26.001 8s-15.667 11.667 -21 23c-5.33301 10 -7.66602 19.667 -6.99902 29s2.66699 17.666 6 24.999c3.33301 8 8.33301 16 15 24zM447 547c14 50.667 31.8281 88.501 53.4951 113.501s43.167 42.167 64.5 51.5
c24.667 11.333 50.334 15.333 77.001 12c21.333 -2.66699 39.5 -7.33398 54.5 -14.001s27.5 -14.5 37.5 -23.5s17.833 -18.833 23.5 -29.5s10.167 -21.334 13.5 -32.001c6.66699 -25.333 7.33398 -53.333 2.00098 -84c-8.66699 -36.667 -23 -68.5 -43 -95.5
s-40.333 -49.167 -61 -66.5c-24 -20.667 -50 -38 -78 -52c13.333 -42 19.333 -79.667 18 -113s-5 -61.666 -11 -84.999c-7.33301 -27.333 -17.666 -51.666 -30.999 -72.999c-15.333 -21.333 -32.666 -36.5 -51.999 -45.5s-42 -13.5 -68 -13.5
c-21.333 0 -39.833 2.33301 -55.5 7s-28.5 10 -38.5 16c-12 6.66699 -22 14.334 -30 23.001c-10.667 12 -19.5 25 -26.5 39s-12.5 28.667 -16.5 44s-6.66699 30.833 -8 46.5s-2 30.5 -2 44.5c0 33.333 3.66699 67.666 11 102.999c-34 14.667 -65 33 -93 55
c-12 9.33301 -23.833 19.833 -35.5 31.5s-22.5 24.5 -32.5 38.5s-18.5 29.167 -25.5 45.5s-11.833 33.833 -14.5 52.5c-3.33301 22 -3.66602 41.5 -0.999023 58.5s7 32 13 45s13.167 24.167 21.5 33.5s17.166 17 26.499 23c22 14.667 47.667 24 77 28
c22 1.33301 42.333 -0.333984 61 -5.00098s35.5 -11.167 50.5 -19.5s28.333 -18 40 -29s21.834 -22.5 30.501 -34.5c20.667 -27.333 36.667 -59.333 48 -96z" />
    <glyph glyph-name="Thorn" unicode="&#xde;" horiz-adv-x="708" 
d="M665 370c1.33301 -31.333 -1.82715 -58.332 -9.49414 -80.999s-18.334 -42 -32.001 -58s-29.334 -29 -47.001 -39s-35.834 -18 -54.501 -24c-44 -14 -94.333 -19.333 -151 -16c4 -21.333 5.5 -40.166 4.5 -56.499s-3.83301 -30.5 -8.5 -42.5s-10.834 -22 -18.501 -30
s-15.834 -14.667 -24.501 -20c-20.667 -12 -45.334 -18.667 -74.001 -20c-35.333 -1.33301 -64.666 3.66699 -87.999 15s-42 24.333 -56 39c-16.667 17.333 -29.667 37 -39 59c-9.33301 26.667 -16.833 51.5 -22.5 74.5s-9.83398 45.333 -12.501 67
s-4.33398 43.167 -5.00098 64.5s-1 43 -1 65s0.5 43 1.5 63s3 40.333 6 61s6.83301 42 11.5 64s11 46 19 72c8.66699 26 21.334 48.667 38.001 68c14 16.667 32.667 31.167 56 43.5s53 16.833 89 13.5c28.667 -2.66699 53.667 -10 75 -22c8.66699 -5.33301 17 -12 25 -20
s14.5 -17.833 19.5 -29.5s8.16699 -25.167 9.5 -40.5s0 -33 -4 -53c37.333 -1.33301 70 -5.33301 98 -12s52.333 -15.334 73 -26.001s38 -22.334 52 -35.001s25.667 -25.667 35 -39c21.333 -31.333 33 -66.333 35 -105zM386.007 401.001
c-11.333 0 -21.165 -4.33301 -29.498 -13s-11.833 -18.334 -10.5 -29.001c1.33301 -14 5.5 -23.667 12.5 -29s16.167 -8 27.5 -8s20.666 3.33301 27.999 10s11 15.667 11 27c0 10.667 -3.33301 20.334 -10 29.001s-16.334 13 -29.001 13z" />
    <glyph glyph-name="germandbls" unicode="&#xdf;" horiz-adv-x="657" 
d="M344 522c-11.333 0 -20.833 -3.5 -28.5 -10.5s-11.5 -16.167 -11.5 -27.5c0 -10.667 2.83301 -20.5 8.5 -29.5s16.167 -13.5 31.5 -13.5c13.333 0 23.333 4.5 30 13.5s10 18.833 10 29.5c0 10 -2.66699 18.833 -8 26.5s-16 11.5 -32 11.5zM30 322
c0 36 1.49512 68.1641 4.49512 96.4971s6.16699 52.5 9.5 72.5c4 23.333 9 44 15 62c8 23.333 18.167 43.5 30.5 60.5s25.5 31.667 39.5 44s28.667 22.5 44 30.5s30.333 14.333 45 19c34.667 11.333 71.334 16.333 110.001 15c47.333 -2 86.333 -10 117 -24s55 -29 73 -45
c21.333 -18.667 37.333 -40 48 -64c12.667 -32.667 17.5 -61.667 14.5 -87s-9.16699 -46.666 -18.5 -63.999c-10.667 -20.667 -24.667 -38.334 -42 -53.001c26 -8.66699 46.667 -20.167 62 -34.5s27.333 -28.5 36 -42.5c9.33301 -16.667 16 -33.667 20 -51
c4 -34.667 3.33301 -67.667 -2 -99c-4.66699 -26.667 -14.5 -53.5 -29.5 -80.5s-38.833 -48.167 -71.5 -63.5c-26 -12 -49.833 -18.333 -71.5 -19s-41 2.5 -58 9.5s-31.5 16.333 -43.5 28s-21.667 23.834 -29 36.501c-7.33301 12 -11.5 25.167 -12.5 39.5s0.333008 28 4 41
s9.33398 24.667 17.001 35s16.834 17.5 27.501 21.5c9.33301 3.33301 16 8.33301 20 15s6.33301 13.334 7 20.001c0.666992 7.33301 -0.333008 15.333 -3 24c-6.66699 19.333 -22 29 -46 29c-11.333 0 -20.833 -3.66699 -28.5 -11s-11.5 -18.333 -11.5 -33
c0 -15.333 0.333008 -26.666 1 -33.999s1 -14.666 1 -21.999s-0.666992 -16.833 -2 -28.5s-3.66602 -29.167 -6.99902 -52.5c-4 -23.333 -9.83301 -42 -17.5 -56s-16.667 -24.833 -27 -32.5s-21.666 -12.834 -33.999 -15.501s-24.833 -4 -37.5 -4c-16 0 -33 4 -51 12
s-34.667 23.5 -50 46.5s-28 55.167 -38 96.5s-15 95.333 -15 162z" />
    <glyph glyph-name="agrave" unicode="&#xe0;" horiz-adv-x="704" 
d="M335 756c10.667 -3.33301 22.5 -8.5 35.5 -15.5s25.5 -14.667 37.5 -23s23.167 -17 33.5 -26s18.166 -16.833 23.499 -23.5c6 -8 10.667 -16 14 -24c3.33301 -7.33301 5.5 -15.666 6.5 -24.999s-1.16699 -19 -6.5 -29c-5.33301 -11.333 -12.333 -19 -21 -23
s-17.334 -6.66699 -26.001 -8c-10 -1.33301 -20.333 -0.666016 -31 2.00098c-20.667 3.33301 -41 8 -61 14c-17.333 5.33301 -35.166 11.833 -53.499 19.5s-34.5 17.834 -48.5 30.501c-12.667 10.667 -21 21.5 -25 32.5s-5.5 21.5 -4.5 31.5s3.83301 19.333 8.5 28
s9.66699 15.667 15 21c4.66699 4.66699 10 9.16699 16 13.5s12.833 7.66602 20.5 9.99902s16.834 3.16602 27.501 2.49902s23.667 -3.33398 39 -8.00098zM419 435c5.33301 16 13.0039 30.001 23.0039 42.001c8.66699 10.667 20.167 20.5 34.5 29.5s33.166 13.5 56.499 13.5
c18.667 0 35 -3.66699 49 -11s26.333 -17 37 -29s19.667 -25.667 27 -41s13.333 -31 18 -47c11.333 -37.333 17.666 -79.666 18.999 -126.999c2 -38 1.33301 -71.167 -2 -99.5s-8.16602 -52.666 -14.499 -72.999s-13.833 -37.333 -22.5 -51s-17.667 -24.5 -27 -32.5
c-22 -19.333 -47.667 -28.333 -77 -27c-18 -0.666992 -35 2.33301 -51 9c-13.333 5.33301 -26.333 14.5 -39 27.5s-20.667 32.167 -24 57.5c-6.66699 -20 -18.667 -37 -36 -51c-14.667 -12 -35.334 -22.333 -62.001 -31s-62 -10.334 -106 -5.00098c-36 4 -68 14.667 -96 32
c-12 7.33301 -23.833 16.666 -35.5 27.999s-22 25.333 -31 42s-16.167 36 -21.5 58s-8 47.333 -8 76c-1.33301 50 5 95.333 19 136c6 17.333 14 34.5 24 51.5s22.667 32.5 38 46.5s33.666 25.833 54.999 35.5s46.666 15.834 75.999 18.501
c37.333 3.33301 67.333 1.16602 90 -6.50098s40.667 -16.834 54 -27.501c15.333 -12 26.333 -26.667 33 -44zM375.004 278.001c-11.333 0 -21.165 -4.33301 -29.498 -13s-11.833 -18.334 -10.5 -29.001c1.33301 -14 5.5 -23.667 12.5 -29s16.167 -8 27.5 -8
s20.666 3.33301 27.999 10s11 15.667 11 27c0 10.667 -3.33301 20.334 -10 29.001s-16.334 13 -29.001 13z" />
    <glyph glyph-name="aacute" unicode="&#xe1;" horiz-adv-x="704" 
d="M251 667c5.33301 6.66699 13.166 14.5 23.499 23.5s21.5 17.667 33.5 26s24.5 16 37.5 23s24.833 12.167 35.5 15.5c14.667 4.66699 27.5 7.33398 38.5 8.00098s20.333 -0.166016 28 -2.49902s14.334 -5.66602 20.001 -9.99902s11.167 -8.83301 16.5 -13.5
c5.33301 -5.33301 10.333 -12.333 15 -21s7.5 -18 8.5 -28s-0.5 -20.5 -4.5 -31.5s-12.333 -21.833 -25 -32.5c-14 -12.667 -30.333 -22.834 -49 -30.501s-36.667 -14.167 -54 -19.5c-20 -6 -40 -10.667 -60 -14c-10.667 -2.66699 -21 -3.33398 -31 -2.00098
c-8.66699 1.33301 -17.334 4 -26.001 8s-15.667 11.667 -21 23c-5.33301 10 -7.66602 19.667 -6.99902 29s2.66699 17.666 6 24.999c3.33301 8 8.33301 16 15 24zM419 435c5.33301 16 13.0039 30.001 23.0039 42.001c8.66699 10.667 20.167 20.5 34.5 29.5
s33.166 13.5 56.499 13.5c18.667 0 35 -3.66699 49 -11s26.333 -17 37 -29s19.667 -25.667 27 -41s13.333 -31 18 -47c11.333 -37.333 17.666 -79.666 18.999 -126.999c2 -38 1.33301 -71.167 -2 -99.5s-8.16602 -52.666 -14.499 -72.999s-13.833 -37.333 -22.5 -51
s-17.667 -24.5 -27 -32.5c-22 -19.333 -47.667 -28.333 -77 -27c-18 -0.666992 -35 2.33301 -51 9c-13.333 5.33301 -26.333 14.5 -39 27.5s-20.667 32.167 -24 57.5c-6.66699 -20 -18.667 -37 -36 -51c-14.667 -12 -35.334 -22.333 -62.001 -31s-62 -10.334 -106 -5.00098
c-36 4 -68 14.667 -96 32c-12 7.33301 -23.833 16.666 -35.5 27.999s-22 25.333 -31 42s-16.167 36 -21.5 58s-8 47.333 -8 76c-1.33301 50 5 95.333 19 136c6 17.333 14 34.5 24 51.5s22.667 32.5 38 46.5s33.666 25.833 54.999 35.5s46.666 15.834 75.999 18.501
c37.333 3.33301 67.333 1.16602 90 -6.50098s40.667 -16.834 54 -27.501c15.333 -12 26.333 -26.667 33 -44zM375.004 278.001c-11.333 0 -21.165 -4.33301 -29.498 -13s-11.833 -18.334 -10.5 -29.001c1.33301 -14 5.5 -23.667 12.5 -29s16.167 -8 27.5 -8
s20.666 3.33301 27.999 10s11 15.667 11 27c0 10.667 -3.33301 20.334 -10 29.001s-16.334 13 -29.001 13z" />
    <glyph glyph-name="acircumflex" unicode="&#xe2;" horiz-adv-x="704" 
d="M202 655c0.666992 0.666992 5.33398 5.99805 14.001 15.998s20 20.667 34 32s30 21.833 48 31.5s36.667 14.5 56 14.5c18.667 0 36.667 -4.83301 54 -14.5s33 -20.5 47 -32.5s25.167 -23.167 33.5 -33.5s12.833 -15.833 13.5 -16.5
c9.33301 -12.667 12.666 -26.667 9.99902 -42s-10.667 -27.666 -24 -36.999s-27.666 -12.666 -42.999 -9.99902s-27.666 10.667 -36.999 24h1l-4.5 5c-3 3.33301 -7 7.5 -12 12.5s-10.667 10.333 -17 16s-13.5 10.5 -21.5 14.5c-9.33301 -6 -18 -12 -26 -18
s-14.667 -11.667 -20 -17c-6.66699 -6 -12.334 -11.333 -17.001 -16c-7.33301 -8 -15 -14 -23 -18c-7.33301 -3.33301 -15.833 -5 -25.5 -5s-20.167 4.66699 -31.5 14c-12.667 10 -19.834 22.833 -21.501 38.5s2.5 29.5 12.5 41.5zM419 434.998
c5.33301 16 13.0039 30.001 23.0039 42.001c8.66699 10.667 20.167 20.5 34.5 29.5s33.166 13.5 56.499 13.5c18.667 0 35 -3.66699 49 -11s26.333 -17 37 -29s19.667 -25.667 27 -41s13.333 -31 18 -47c11.333 -37.333 17.666 -79.666 18.999 -126.999
c2 -38 1.33301 -71.167 -2 -99.5s-8.16602 -52.666 -14.499 -72.999s-13.833 -37.333 -22.5 -51s-17.667 -24.5 -27 -32.5c-22 -19.333 -47.667 -28.333 -77 -27c-18 -0.666992 -35 2.33301 -51 9c-13.333 5.33301 -26.333 14.5 -39 27.5s-20.667 32.167 -24 57.5
c-6.66699 -20 -18.667 -37 -36 -51c-14.667 -12 -35.334 -22.333 -62.001 -31s-62 -10.334 -106 -5.00098c-36 4 -68 14.667 -96 32c-12 7.33301 -23.833 16.666 -35.5 27.999s-22 25.333 -31 42s-16.167 36 -21.5 58s-8 47.333 -8 76c-1.33301 50 5 95.333 19 136
c6 17.333 14 34.5 24 51.5s22.667 32.5 38 46.5s33.666 25.833 54.999 35.5s46.666 15.834 75.999 18.501c37.333 3.33301 67.333 1.16602 90 -6.50098s40.667 -16.834 54 -27.501c15.333 -12 26.333 -26.667 33 -44zM375.004 277.999
c-11.333 0 -21.165 -4.33301 -29.498 -13s-11.833 -18.334 -10.5 -29.001c1.33301 -14 5.5 -23.667 12.5 -29s16.167 -8 27.5 -8s20.666 3.33301 27.999 10s11 15.667 11 27c0 10.667 -3.33301 20.334 -10 29.001s-16.334 13 -29.001 13z" />
    <glyph glyph-name="atilde" unicode="&#xe3;" horiz-adv-x="724" 
d="M544 625c-10 -18 -21.3311 -31.667 -33.998 -41s-25.667 -15.666 -39 -18.999s-26.833 -4 -40.5 -2s-26.834 5.33301 -39.501 10c-30 11.333 -60.667 30 -92 56c-6 -22.667 -14.5 -38.5 -25.5 -47.5s-22.167 -14.5 -33.5 -16.5
c-12.667 -2.66699 -26.334 -1.66699 -41.001 3c-8.66699 2.66699 -16.5 7.33398 -23.5 14.001s-12.5 14.334 -16.5 23.001s-6.5 17.667 -7.5 27s0.166992 18.333 3.5 27c12 36 29.333 62.667 52 80c10 7.33301 21.5 13.166 34.5 17.499s28 5.5 45 3.5
s36.167 -7.83301 57.5 -17.5s45 -24.5 71 -44.5c0.666992 -0.666992 1 -1.33398 1 -2.00098s0.333008 -1.33398 1 -2.00098c6.66699 19.333 17.667 34.5 33 45.5s33.333 13.167 54 6.5c16.667 -6 30 -14.333 40 -25c8.66699 -9.33301 14.167 -21.833 16.5 -37.5
s-3.16699 -35.167 -16.5 -58.5zM419.002 435c5.33301 16 13.0039 30.001 23.0039 42.001c8.66699 10.667 20.167 20.5 34.5 29.5s33.166 13.5 56.499 13.5c18.667 0 35 -3.66699 49 -11s26.333 -17 37 -29s19.667 -25.667 27 -41s13.333 -31 18 -47
c11.333 -37.333 17.666 -79.666 18.999 -126.999c2 -38 1.33301 -71.167 -2 -99.5s-8.16602 -52.666 -14.499 -72.999s-13.833 -37.333 -22.5 -51s-17.667 -24.5 -27 -32.5c-22 -19.333 -47.667 -28.333 -77 -27c-18 -0.666992 -35 2.33301 -51 9
c-13.333 5.33301 -26.333 14.5 -39 27.5s-20.667 32.167 -24 57.5c-6.66699 -20 -18.667 -37 -36 -51c-14.667 -12 -35.334 -22.333 -62.001 -31s-62 -10.334 -106 -5.00098c-36 4 -68 14.667 -96 32c-12 7.33301 -23.833 16.666 -35.5 27.999s-22 25.333 -31 42
s-16.167 36 -21.5 58s-8 47.333 -8 76c-1.33301 50 5 95.333 19 136c6 17.333 14 34.5 24 51.5s22.667 32.5 38 46.5s33.666 25.833 54.999 35.5s46.666 15.834 75.999 18.501c37.333 3.33301 67.333 1.16602 90 -6.50098s40.667 -16.834 54 -27.501
c15.333 -12 26.333 -26.667 33 -44zM375.006 278.001c-11.333 0 -21.165 -4.33301 -29.498 -13s-11.833 -18.334 -10.5 -29.001c1.33301 -14 5.5 -23.667 12.5 -29s16.167 -8 27.5 -8s20.666 3.33301 27.999 10s11 15.667 11 27c0 10.667 -3.33301 20.334 -10 29.001
s-16.334 13 -29.001 13z" />
    <glyph glyph-name="adieresis" unicode="&#xe4;" horiz-adv-x="704" 
d="M344 628c0 -21.333 -6.5 -39.666 -19.5 -54.999s-32.167 -23 -57.5 -23s-44.5 7.66699 -57.5 23s-19.5 33.666 -19.5 54.999s6.5 39.5 19.5 54.5s32.167 22.5 57.5 22.5s44.5 -7.5 57.5 -22.5s19.5 -33.167 19.5 -54.5zM527 628c0 -21.333 -6.5 -39.666 -19.5 -54.999
s-32.167 -23 -57.5 -23s-44.5 7.66699 -57.5 23s-19.5 33.666 -19.5 54.999s6.5 39.5 19.5 54.5s32.167 22.5 57.5 22.5s44.5 -7.5 57.5 -22.5s19.5 -33.167 19.5 -54.5zM419 435c5.33301 16 13.0039 30.001 23.0039 42.001c8.66699 10.667 20.167 20.5 34.5 29.5
s33.166 13.5 56.499 13.5c18.667 0 35 -3.66699 49 -11s26.333 -17 37 -29s19.667 -25.667 27 -41s13.333 -31 18 -47c11.333 -37.333 17.666 -79.666 18.999 -126.999c2 -38 1.33301 -71.167 -2 -99.5s-8.16602 -52.666 -14.499 -72.999s-13.833 -37.333 -22.5 -51
s-17.667 -24.5 -27 -32.5c-22 -19.333 -47.667 -28.333 -77 -27c-18 -0.666992 -35 2.33301 -51 9c-13.333 5.33301 -26.333 14.5 -39 27.5s-20.667 32.167 -24 57.5c-6.66699 -20 -18.667 -37 -36 -51c-14.667 -12 -35.334 -22.333 -62.001 -31s-62 -10.334 -106 -5.00098
c-36 4 -68 14.667 -96 32c-12 7.33301 -23.833 16.666 -35.5 27.999s-22 25.333 -31 42s-16.167 36 -21.5 58s-8 47.333 -8 76c-1.33301 50 5 95.333 19 136c6 17.333 14 34.5 24 51.5s22.667 32.5 38 46.5s33.666 25.833 54.999 35.5s46.666 15.834 75.999 18.501
c37.333 3.33301 67.333 1.16602 90 -6.50098s40.667 -16.834 54 -27.501c15.333 -12 26.333 -26.667 33 -44zM375.004 278.001c-11.333 0 -21.165 -4.33301 -29.498 -13s-11.833 -18.334 -10.5 -29.001c1.33301 -14 5.5 -23.667 12.5 -29s16.167 -8 27.5 -8
s20.666 3.33301 27.999 10s11 15.667 11 27c0 10.667 -3.33301 20.334 -10 29.001s-16.334 13 -29.001 13z" />
    <glyph glyph-name="aring" unicode="&#xe5;" horiz-adv-x="704" 
d="M493 650c0 -16 -3.16699 -31 -9.5 -45s-15 -26.167 -26 -36.5s-24 -18.5 -39 -24.5s-30.833 -9 -47.5 -9c-17.333 0 -33.333 3 -48 9s-27.667 14.167 -39 24.5s-20.166 22.5 -26.499 36.5s-9.5 29 -9.5 45s3.16699 30.833 9.5 44.5s15.166 25.834 26.499 36.501
s24.333 19 39 25s30.667 9 48 9c16.667 0 32.5 -3 47.5 -9s28 -14.333 39 -25s19.667 -22.834 26 -36.501s9.5 -28.5 9.5 -44.5zM371 702c-15.333 0 -28 -5.16797 -38 -15.501s-15 -23.166 -15 -38.499c0 -6 0.666992 -12 2 -18s4 -11.5 8 -16.5s9.33301 -9 16 -12
s15.667 -4.5 27 -4.5c19.333 0 32.666 5.66699 39.999 17s11 22.666 11 33.999c0 14.667 -4.16699 27.334 -12.5 38.001s-21.166 16 -38.499 16zM419 434.999c5.33301 16 13.0039 30.001 23.0039 42.001c8.66699 10.667 20.167 20.5 34.5 29.5s33.166 13.5 56.499 13.5
c18.667 0 35 -3.66699 49 -11s26.333 -17 37 -29s19.667 -25.667 27 -41s13.333 -31 18 -47c11.333 -37.333 17.666 -79.666 18.999 -126.999c2 -38 1.33301 -71.167 -2 -99.5s-8.16602 -52.666 -14.499 -72.999s-13.833 -37.333 -22.5 -51s-17.667 -24.5 -27 -32.5
c-22 -19.333 -47.667 -28.333 -77 -27c-18 -0.666992 -35 2.33301 -51 9c-13.333 5.33301 -26.333 14.5 -39 27.5s-20.667 32.167 -24 57.5c-6.66699 -20 -18.667 -37 -36 -51c-14.667 -12 -35.334 -22.333 -62.001 -31s-62 -10.334 -106 -5.00098c-36 4 -68 14.667 -96 32
c-12 7.33301 -23.833 16.666 -35.5 27.999s-22 25.333 -31 42s-16.167 36 -21.5 58s-8 47.333 -8 76c-1.33301 50 5 95.333 19 136c6 17.333 14 34.5 24 51.5s22.667 32.5 38 46.5s33.666 25.833 54.999 35.5s46.666 15.834 75.999 18.501
c37.333 3.33301 67.333 1.16602 90 -6.50098s40.667 -16.834 54 -27.501c15.333 -12 26.333 -26.667 33 -44zM375.004 278c-11.333 0 -21.165 -4.33301 -29.498 -13s-11.833 -18.334 -10.5 -29.001c1.33301 -14 5.5 -23.667 12.5 -29s16.167 -8 27.5 -8
s20.666 3.33301 27.999 10s11 15.667 11 27c0 10.667 -3.33301 20.334 -10 29.001s-16.334 13 -29.001 13z" />
    <glyph glyph-name="ae" unicode="&#xe6;" horiz-adv-x="1072" 
d="M834 206c19.333 -15.333 39.6738 -24.8311 61.0068 -28.498s41.166 -6.83398 59.499 -9.50098s34 -7.66699 47 -15s21.167 -22.666 24.5 -45.999c0.666992 -13.333 -1 -26.333 -5 -39c-4 -11.333 -10.833 -22.833 -20.5 -34.5s-24.834 -21.5 -45.501 -29.5
c-29.333 -9.33301 -61 -15.333 -95 -18c-29.333 -2.66699 -62.666 -2.16699 -99.999 1.5s-76.333 13.834 -117 30.501l-4 2l-4 2c-1.33301 0.666992 -3 1.66699 -5 3c-10 -9.33301 -19.833 -16.166 -29.5 -20.499s-18.167 -7.16602 -25.5 -8.49902
c-8.66699 -2 -17.334 -2.66699 -26.001 -2c-18 -0.666992 -35 2.33301 -51 9c-13.333 5.33301 -26.333 14.5 -39 27.5s-20.667 32.167 -24 57.5c-6.66699 -20 -18.667 -37 -36 -51c-14.667 -12 -35.334 -22.333 -62.001 -31s-62 -10.334 -106 -5.00098
c-36 4 -68 14.667 -96 32c-12 7.33301 -23.833 16.666 -35.5 27.999s-22 25.333 -31 42s-16.167 36 -21.5 58s-8 47.333 -8 76c-1.33301 50 5 95.333 19 136c6 17.333 14 34.5 24 51.5s22.667 32.5 38 46.5s33.666 25.833 54.999 35.5s46.666 15.834 75.999 18.501
c37.333 3.33301 67.333 1.16602 90 -6.50098s40.667 -16.834 54 -27.501c15.333 -12 26.333 -26.667 33 -44c5.33301 16 13 30 23 42c8.66699 10.667 20.167 20.5 34.5 29.5s33.166 13.5 56.499 13.5c19.333 0 36 -3.66699 50 -11s26.333 -17 37 -29
c6.66699 4 13.5 7.66699 20.5 11s14.5 6.33301 22.5 9c34 10 68.667 15.333 104 16c14.667 0 30.5 -0.833008 47.5 -2.5s34 -5 51 -10s34.167 -12.167 51.5 -21.5s34 -21 50 -35c10.667 -10.667 20 -22.667 28 -36c7.33301 -12 13.666 -26.5 18.999 -43.5
s8.33301 -37.167 9 -60.5c0 -26 -5.83301 -47.333 -17.5 -64s-27 -29.334 -46 -38.001s-40.333 -13.834 -64 -15.501s-47.167 -0.166992 -70.5 4.5zM376.008 201.002c10.667 0 19.667 3 27 9s11 15 11 27c0 13.333 -3.66699 23.666 -11 30.999s-16.333 11 -27 11
c-10 0 -18.667 -3.66699 -26 -11s-11 -17.666 -11 -30.999c0 -12 3.66699 -21 11 -27s16 -9 26 -9zM806.008 263.002c9.33301 0 17 2.5 23 7.5s9 12.167 9 21.5c0 8.66699 -2.5 15.834 -7.5 21.501s-13.167 8.5 -24.5 8.5s-19.333 -2.83301 -24 -8.5s-7 -12.834 -7 -21.501
c0 -10.667 2.83301 -18.167 8.5 -22.5s13.167 -6.5 22.5 -6.5z" />
    </font>
</defs>
</svg>
